<?xml version="1.0" encoding="UTF-8"?>
<svg width="251px" height="225px" viewBox="0 0 251 225" version="1.1" xmlns="http://www.w3.org/2000/svg" xmlns:xlink="http://www.w3.org/1999/xlink">
    <!-- Generator: sketchtool 52.4 (67378) - http://www.bohemiancoding.com/sketch -->
    <title>D77A68EC-A0FA-4935-8C75-E9550D45EFC1</title>
    <desc>Created with sketchtool.</desc>
    <g id="ðŸ©-Approved-Screens" stroke="none" stroke-width="1" fill="none" fill-rule="evenodd">
        <g id="404" transform="translate(-595.000000, -264.000000)">
            <g id="Group-2" transform="translate(595.000000, 264.000000)">
                <g id="404">
                    <g id="Group" opacity="0.25" transform="translate(4.000000, 212.000000)" fill="#FD344D">
                        <ellipse id="Oval" cx="123.33" cy="6.5" rx="123.33" ry="6.5"></ellipse>
                    </g>
                    <polygon id="Path" fill="#FD344D" points="118 125 118 130 125.34 130 125.34 138.83 130.75 138.83 130.75 219.13 137.25 219.13 137.25 206.96 227.18 206.96 227.18 219.13 233.68 219.13 233.68 138.83 239.1 138.83 239.1 130 246.43 130 246.43 125"></polygon>
                    <polygon id="Path" fill="#FD344D" points="181.68 70.96 189.96 25.16 183.57 24 167.37 113.55 173.77 114.7 180.33 78.4 195.8 117.27 164 117.27 164 121.27 201.7 121.27"></polygon>
                    <path d="M141,121 L157.36,121 L157.36,117 L144,117 C143.342285,118.558676 142.312169,119.932164 141,121 Z" id="Path" fill="#FD344D"></path>
                    <path d="M115.592712,140.110695 C115.071448,133.615773 109.648518,128.610662 103.132712,128.610695 L71.3527122,128.610695 C71.4637643,122.095554 72.0587354,115.597668 73.1327122,109.170695 L54.6527122,88.7206954 C50.8438533,84.4968186 51.1749701,77.9863464 55.3927122,74.1706954 C57.4172414,72.3370142 60.0883085,71.3844544 62.8162802,71.523292 C65.5442518,71.6621297 68.1048087,72.8809481 69.9327122,74.9106954 L78.0027122,83.7906954 C79.1327122,74.7906954 75.3227122,65.3606954 67.8227122,63.4906954 C59.2927122,61.3606954 46.9127122,66.0006954 41.8827122,80.6406954 C35.0727122,100.810695 33.6127122,113.940695 36.2027122,136.160695 C38.3327122,147.160695 44.2027122,151.400695 50.5427122,152.960695 C51.6045691,153.302342 52.7080845,153.497476 53.8227122,153.540695 C55.7150987,153.750429 57.6190902,153.837277 59.5227122,153.800695 C61.2027122,153.800695 62.7127122,153.720695 64.0427122,153.570695 L91.5927122,153.570695 L95.9927122,208.470695 C96.5090218,214.964046 101.928867,219.970329 108.442712,219.970695 C108.772712,219.970695 109.112712,219.970695 109.442712,219.970695 C112.747316,219.705495 115.811219,218.1384 117.96039,215.614156 C120.10956,213.089913 121.167946,209.815297 120.902712,206.510695 L115.592712,140.110695 Z" id="Path" fill="#FD344D"></path>
                    <path d="M85.4000404,207.607873 L85.4000404,203.917873 L56.1500404,194.917873 L56.1500404,173.867873 L60.4000404,173.867873 L60.4000404,172.097873 C75.2500404,171.097873 86.4000404,166.977873 86.4000404,162.017873 C86.4000404,157.207873 39.6300404,156.467873 25.1400404,159.787873 L13.9200404,129.927873 C18.7100404,137.387873 23.6300404,141.617873 26.9200404,140.367873 C32.2400404,138.367873 9.22004042,77.0478729 3.92004042,79.0478729 C-0.419959583,80.6778729 -0.659959583,91.1778729 2.84004042,104.177873 C2.4330932,104.113343 2.01638605,104.15467 1.63004042,104.297873 C1.00213063,104.530942 0.493999675,105.006218 0.219540565,105.617171 C-0.0549185443,106.228125 -0.0727509159,106.923658 0.170040417,107.547873 L21.0100404,163.067873 C21.0657819,163.217741 21.1361201,163.361767 21.2200404,163.497873 C23.2200404,167.787873 33.5300404,171.217873 46.8800404,172.097873 L46.8800404,173.867873 L51.1300404,173.867873 L51.1300404,194.917873 L21.8800404,203.917873 L21.8800404,207.607873 C19.5131483,208.7706 18.2603237,211.411636 18.8571754,213.98027 C19.4540272,216.548904 21.7429752,218.366969 24.3800404,218.366969 C27.0171056,218.366969 29.3060537,216.548904 29.9029054,213.98027 C30.4997571,211.411636 29.2469325,208.7706 26.8800404,207.607873 L51.1200404,200.157873 L51.1200404,207.607873 C48.7531483,208.7706 47.5003237,211.411636 48.0971754,213.98027 C48.6940272,216.548904 50.9829752,218.366969 53.6200404,218.366969 C56.2571056,218.366969 58.5460537,216.548904 59.1429054,213.98027 C59.7397571,211.411636 58.4869325,208.7706 56.1200404,207.607873 L56.1200404,200.157873 L80.3600404,207.607873 C77.9871431,208.771004 76.7298804,211.416964 77.3268796,213.991281 C77.9238789,216.565598 80.2174061,218.388108 82.8600404,218.388108 C85.5026747,218.388108 87.7962019,216.565598 88.3932012,213.991281 C88.9902005,211.416964 87.7329377,208.771004 85.3600404,207.607873 L85.4000404,207.607873 Z" id="Path" fill="#FD344D"></path>
                    <path d="M57.6411754,76.0656676 C56.065593,77.4871104 55.119302,79.4763 55.0105274,81.5955281 C54.9017529,83.7147562 55.6394076,85.7903784 57.0611754,87.3656676 L85.6911754,119.055668 C87.20832,120.736666 89.3667804,121.695982 91.6311754,121.695668 L134.801175,121.695668 C139.219453,121.695668 142.801175,118.113946 142.801175,113.695668 C142.801175,109.27739 139.219453,105.695668 134.801175,105.695668 L95.1811754,105.695668 L68.9411754,76.6356676 C67.5183551,75.0614968 65.5284348,74.1170659 63.4092359,74.0101683 C61.2900371,73.9032706 59.2151805,74.6426641 57.6411754,76.0656676 Z" id="Path" fill="#FD344D"></path>
                    <circle id="Oval" fill="#FD344D" cx="87.5" cy="43.5" r="22.5"></circle>
                    <rect id="Rectangle" fill="#FFFFFF" transform="translate(87.000774, 40.004385) rotate(-75.610000) translate(-87.000774, -40.004385) " x="85.8107738" y="12.434385" width="2.38" height="55.14"></rect>
                    <circle id="Oval" fill="#FFFFFF" transform="translate(106.626678, 46.626678) rotate(-30.830000) translate(-106.626678, -46.626678) " cx="106.626678" cy="46.6266777" r="7.75"></circle>
                    <path d="M101.174913,45.4532037 C100.394916,48.5892644 102.296421,51.7659414 105.428941,52.5600362 C108.561462,53.3541311 111.74666,51.4669346 112.554837,48.3380176 C113.363013,45.2091006 111.490163,42.0154464 108.364913,41.1932037 C106.846052,40.7935965 105.230399,41.0193106 103.879208,41.8198774 C102.528016,42.6204442 101.553989,43.9290885 101.174913,45.4532037 Z" id="Path" fill="#FD344D"></path>
                    <path d="M81.2447672,39.8245953 C80.1818296,43.9696344 82.6795006,48.1917411 86.8241707,49.2561164 C90.9688408,50.3204918 95.1918136,47.8242854 96.2576265,43.6799847 C97.3234394,39.5356841 94.8286979,35.3118457 90.6847672,34.2445953 C86.5376107,33.1822133 82.3135253,35.6790774 81.2447672,39.8245953 Z" id="Path" fill="#FFFFFF"></path>
                    <path d="M83.1852415,40.4094687 C82.5933251,42.7113058 83.4478555,45.1429146 85.3496488,46.5683974 C87.2514421,47.9938802 89.8251355,48.1318851 91.8684583,46.9179448 C93.9117811,45.7040044 95.0214362,43.377718 94.6790613,41.0257829 C94.3366865,38.6738478 92.6098572,36.7604729 90.3052415,36.1794687 C87.1722144,35.3896183 83.9899268,37.280219 83.1852415,40.4094687 Z" id="Path" fill="#FD344D"></path>
                    <path d="M95.52,57.8938055 C89.4,56.4638055 79.32,57.1738055 79.22,57.1838055 L79,54.1838055 C79.43,54.1838055 89.64,53.4338055 96.2,54.9638055 L95.52,57.8938055 Z" id="Path" fill="#FFFFFF"></path>
                    <g id="Group" opacity="0.75" transform="translate(113.000000, 0.000000)" fill="#FFFFFF" fill-rule="nonzero">
                        <path d="M3.30585072,19.592483 C4.03231369,19.68927 4.68245828,20.0927698 5.09163171,20.7007939 C5.50080515,21.308818 5.62976473,22.0630524 5.44585072,22.772483 C5.09238846,24.2553675 3.60373526,25.1709452 2.12085073,24.817483 C0.637966189,24.4640207 -0.277611497,22.9753675 0.0758507167,21.492483 C0.249886845,20.8107724 0.688840774,20.226733 1.2952762,19.8700063 C1.90171162,19.5132796 2.62545374,19.4133801 3.30585072,19.592483 Z M5.37585072,1.432483 C5.61585072,0.432483 6.37585072,-0.287517 8.05585072,0.112483 C9.73585072,0.512483 10.1458507,1.472483 9.87585072,2.582483 L8.93585072,6.582483 L5.35585072,18.142483 L2.35585072,17.442483 L4.35585072,5.502483 L5.37585072,1.432483 Z" id="Shape"></path>
                        <path d="M19.0610759,6.12242594 C18.5183885,5.96344453 17.9565288,5.8793338 17.3910759,5.87242594 C17.0510759,5.87242594 16.8110759,6.11242594 16.6910759,6.61242594 L16.2010759,8.67242594 L12.3810759,7.47242594 L13.6210759,2.27242594 C15.8944747,1.86969986 18.2245675,1.91385614 20.4810759,2.40242594 C25.3210759,3.55242594 26.3010759,6.87242594 25.7110759,9.33242594 C25.0810759,12.0024259 23.6210759,13.5324259 20.5910759,14.7324259 C18.1010759,15.7324259 17.5210759,16.1024259 16.9710759,18.3824259 L16.5710759,20.0924259 L12.8210759,19.2724259 L13.1810759,16.6524259 C13.6110759,13.5924259 14.9210759,12.8124259 17.4310759,11.7524259 C19.2310759,10.9824259 20.4310759,10.6624259 20.8410759,8.80242594 C21.0576344,8.20591478 20.9782457,7.54202667 20.6271412,7.0133975 C20.2760368,6.48476832 19.6948877,6.15413891 19.0610759,6.12242594 Z M14.3310759,21.5824259 C15.052499,21.6807151 15.6966069,22.0850413 16.0987082,22.6920228 C16.5008096,23.2990043 16.6219211,24.0497951 16.4310759,24.7524259 C16.278919,25.451292 15.8445336,26.0561258 15.2308881,26.4235556 C14.6172426,26.7909853 13.878971,26.8882979 13.1910759,26.6924259 C12.4650941,26.5866969 11.8193611,26.1745815 11.4177223,25.5606479 C11.0160836,24.9467143 10.8971415,24.1899693 11.0910759,23.4824259 C11.2550188,22.792467 11.6936791,22.1994149 12.3054209,21.8406774 C12.9171627,21.48194 13.6488942,21.3886513 14.3310759,21.5824259 Z" id="Shape"></path>
                    </g>
                </g>
            </g>
        </g>
    </g>
</svg>