<?xml version="1.0" encoding="UTF-8"?>
<svg width="15px" height="12px" viewBox="0 0 15 12" version="1.1" xmlns="http://www.w3.org/2000/svg" xmlns:xlink="http://www.w3.org/1999/xlink">
    <!-- Generator: Sketch 52.4 (67378) - http://www.bohemiancoding.com/sketch -->
    <title>Path</title>
    <desc>Created with Sketch.</desc>
    <g id="ðŸ©-Approved-Screens" stroke="none" stroke-width="1" fill="none" fill-rule="evenodd">
        <g id="Dispute-Center" transform="translate(-568.000000, -306.000000)" fill="#FFFFFF">
            <g id="Dispute-1-" transform="translate(274.000000, 159.000000)">
                <g id="Button-" transform="translate(280.000000, 131.000000)">
                    <path d="M28.7163866,21.3625914 L23.9107143,16.2633229 C23.5798319,15.9122257 23.0441176,15.9122257 22.7289916,16.2633229 C22.3981092,16.6144201 22.3981092,17.1828631 22.7289916,17.5172414 L26.1165966,21.1118077 L14.835084,21.1118077 C14.3781513,21.1118077 14,21.5130617 14,21.9979101 C14,22.4827586 14.3781513,22.8840125 14.835084,22.8840125 L26.1008403,22.8840125 L22.7289916,26.4785789 C22.3981092,26.8296761 22.3981092,27.3981191 22.7289916,27.7324974 C22.8865546,27.8996865 23.1071429,28 23.3277311,28 C23.5483193,28 23.7531513,27.9164054 23.9264706,27.7324974 L28.7478992,22.6165099 C28.9054622,22.4493208 29,22.215256 29,21.9811912 C28.9684874,21.7638454 28.8739496,21.5297806 28.7163866,21.3625914 Z" id="Path"></path>
                </g>
            </g>
        </g>
    </g>
</svg>