<?xml version="1.0" encoding="UTF-8"?>
<svg width="6px" height="6px" viewBox="0 0 6 6" version="1.1" xmlns="http://www.w3.org/2000/svg" xmlns:xlink="http://www.w3.org/1999/xlink">
    <!-- Generator: Sketch 52.4 (67378) - http://www.bohemiancoding.com/sketch -->
    <title>Path</title>
    <desc>Created with Sketch.</desc>
    <g id="Page-1" stroke="none" stroke-width="1" fill="none" fill-rule="evenodd">
        <g id="Profile/with-2-console-" transform="translate(-383.000000, -437.000000)" fill="#F33149">
            <g id="Profiles-" transform="translate(322.000000, 401.000000)">
                <g id="Xbox" transform="translate(0.000000, 1.000000)">
                    <g id="Bg">
                        <g id="Group-5">
                            <g id="Xbox-Profile-">
                                <g id="PSN-Profile" transform="translate(24.000000, 30.000000)">
                                    <path d="M42.6805812,5.85946293 C42.8735406,5.6665035 42.8732006,5.35331442 42.6811665,5.16128033 L42.6644256,5.14453939 C42.4717894,4.95190322 42.1598256,4.95154211 41.966243,5.14512472 L40.0041105,7.10725719 C39.9537103,7.15765735 39.8711483,7.1568101 39.8215954,7.10725719 L37.8594629,5.14512472 C37.6665035,4.95216529 37.3533144,4.9525053 37.1612803,5.14453939 L37.1445394,5.16128033 C36.9519032,5.3539165 36.9515421,5.66588033 37.1451247,5.85946293 L39.1072572,7.8215954 C39.1576573,7.87199556 39.1568101,7.95455759 39.1072572,8.0041105 L37.1451247,9.96624297 C36.9521653,10.1592024 36.9525053,10.4723915 37.1445394,10.6644256 L37.1612803,10.6811665 C37.3539165,10.8738027 37.6658803,10.8741638 37.8594629,10.6805812 L39.8215954,8.71844871 C39.8719956,8.66804856 39.9545576,8.6688958 40.0041105,8.71844871 L41.966243,10.6805812 C42.1592024,10.8735406 42.4723915,10.8732006 42.6644256,10.6811665 L42.6811665,10.6644256 C42.8738027,10.4717894 42.8741638,10.1598256 42.6805812,9.96624297 L40.7184487,8.0041105 C40.6680486,7.95371034 40.6688958,7.87114831 40.7184487,7.8215954 L42.6805812,5.85946293 Z" id="Path"></path>
                                </g>
                            </g>
                        </g>
                    </g>
                </g>
            </g>
        </g>
    </g>
</svg>