<?xml version="1.0" encoding="UTF-8"?>
<svg width="8px" height="6px" viewBox="0 0 8 6" version="1.1" xmlns="http://www.w3.org/2000/svg" xmlns:xlink="http://www.w3.org/1999/xlink">
    <!-- Generator: sketchtool 52.4 (67378) - http://www.bohemiancoding.com/sketch -->
    <title>D8B784A7-E606-48E4-A29F-59614ECCBA86</title>
    <desc>Created with sketchtool.</desc>
    <g id="Page-1" stroke="none" stroke-width="1" fill="none" fill-rule="evenodd">
        <g id="Profile/with-2-console-" transform="translate(-1087.000000, -435.000000)" fill="#31BE71">
            <g id="Profiles-" transform="translate(322.000000, 401.000000)">
                <g id="Steam-" transform="translate(706.000000, 0.000000)">
                    <g id="PSN-Profile" transform="translate(24.000000, 30.000000)">
                        <path d="M42.5607561,4.12830189 C42.6663666,4.23899371 42.7719772,4.34968553 42.8775878,4.46037736 C43.0408041,4.63144654 43.0408041,4.91320755 42.8775878,5.08427673 C41.4374437,6.59371069 39.9972997,8.10314465 38.5475548,9.62264151 C38.0675068,10.1257862 37.9714971,10.1257862 37.4914491,9.62264151 C36.7041704,8.79748428 35.9168917,7.97232704 35.129613,7.14716981 C34.9567957,6.96603774 34.9567957,6.68427673 35.129613,6.51320755 C35.2256226,6.40251572 35.3312331,6.30188679 35.4368437,6.19119497 C35.60006,6.02012579 35.8688869,6.02012579 36.0417042,6.19119497 C36.6945695,6.8754717 37.3570357,7.56981132 38.019502,8.26415094 C39.3348335,6.88553459 40.650165,5.50691824 41.9654965,4.12830189 C42.1287129,3.9572327 42.3975398,3.9572327 42.5607561,4.12830189 Z" id="Path"></path>
                    </g>
                </g>
            </g>
        </g>
    </g>
</svg>