<?xml version="1.0" encoding="UTF-8"?>
<svg width="52px" height="44px" viewBox="0 0 52 44" version="1.1" xmlns="http://www.w3.org/2000/svg" xmlns:xlink="http://www.w3.org/1999/xlink">
    <!-- Generator: Sketch 52.4 (67378) - http://www.bohemiancoding.com/sketch -->
    <title>Photo</title>
    <desc>Created with Sketch.</desc>
    <g id="ðŸ©-Approved-Screens" stroke="none" stroke-width="1" fill="none" fill-rule="evenodd">
        <g id="Lobby---Won/Lost---Screenshot-Copy-4" transform="translate(-816.000000, -325.000000)" fill="#FFFFFF">
            <g id="Group" transform="translate(630.000000, 197.000000)">
                <g id="Group-4">
                    <g id="Group-6" transform="translate(54.000000, 90.000000)">
                        <g id="Photo" transform="translate(132.000000, 38.000000)">
                            <g id="noun_Photo_2059727">
                                <g id="Group">
                                    <path d="M47.8291667,9.79 L42.0333333,9.79 L41.4375,3.905 C41.3291667,2.86 40.8416667,1.87 40.0291667,1.21 C39.2166667,0.55 38.1875,0.22 37.1583333,0.33 L3.79166667,3.96 C1.625,4.18 0.0541666667,6.16 0.325,8.305 L2.97916667,33.99 C3.19583333,36.025 4.875,37.565 6.87916667,37.565 C7.04166667,37.565 7.15,37.565 7.3125,37.565 L10.4541667,37.235 L10.4541667,39.655 C10.4541667,41.855 12.1875,43.615 14.3541667,43.615 L47.8291667,43.615 C49.9958333,43.615 51.7291667,41.855 51.7291667,39.655 L51.7291667,13.805 C51.7291667,11.605 49.9958333,9.79 47.8291667,9.79 Z M10.4,13.805 L10.4,33.99 L6.93333333,34.375 C6.55416667,34.43 6.12083333,34.1 6.12083333,33.715 L3.46666667,7.975 C3.46666667,7.7 3.575,7.535 3.62916667,7.425 C3.68333333,7.315 3.84583333,7.205 4.11666667,7.15 L37.4291667,3.575 L37.4833333,3.575 C37.7,3.575 37.8625,3.685 37.9708333,3.74 C38.0791667,3.795 38.1875,3.96 38.2416667,4.235 L38.8375,9.79 L14.3,9.79 C12.1333333,9.79 10.4,11.605 10.4,13.805 Z M48.5333333,39.655 C48.5333333,40.095 48.2083333,40.425 47.775,40.425 L14.3,40.425 C13.8666667,40.425 13.5416667,40.095 13.5416667,39.655 L13.5416667,28.545 L19.9333333,22.055 C20.6375,21.34 21.775,21.34 22.4791667,22.055 L35.3166667,35.09 C35.6416667,35.42 36.0208333,35.585 36.4541667,35.585 C36.8875,35.585 37.2666667,35.42 37.5916667,35.09 C38.1875,34.485 38.1875,33.44 37.5916667,32.835 L36.1833333,31.405 L39.4875,28.05 C39.5958333,27.94 39.8125,27.94 39.9208333,28.05 L48.5333333,36.85 L48.5333333,39.655 Z M48.5333333,32.285 L42.1416667,25.795 C40.7875,24.42 38.5666667,24.42 37.2125,25.795 L33.9625,29.15 L24.7541667,19.8 C23.8333333,18.865 22.5875,18.315 21.2333333,18.315 C19.8791667,18.315 18.6333333,18.865 17.7125,19.8 L13.5416667,23.98 L13.5416667,13.805 C13.5416667,13.365 13.8666667,13.035 14.3,13.035 L47.775,13.035 C48.2083333,13.035 48.5333333,13.365 48.5333333,13.805 L48.5333333,32.285 Z" id="Shape" fill-rule="nonzero"></path>
                                    <ellipse id="Oval" cx="41.3291667" cy="19.03" rx="3.03333333" ry="3.08"></ellipse>
                                </g>
                            </g>
                        </g>
                    </g>
                </g>
            </g>
        </g>
    </g>
</svg>