<?xml version="1.0" encoding="UTF-8"?>
<svg width="83px" height="83px" viewBox="0 0 83 83" version="1.1" xmlns="http://www.w3.org/2000/svg" xmlns:xlink="http://www.w3.org/1999/xlink">
    <!-- Generator: sketchtool 52.4 (67378) - http://www.bohemiancoding.com/sketch -->
    <title>D11FB057-6696-4A81-AE03-AEE3EE0C19EF</title>
    <desc>Created with sketchtool.</desc>
    <g id="First-Sprint-" stroke="none" stroke-width="1" fill="none" fill-rule="evenodd">
        <g id="Settings/Log-out" transform="translate(-782.000000, -435.000000)" fill="#F33149">
            <g id="To-quit" transform="translate(652.000000, 319.000000)">
                <path d="M171.538537,192.083482 C173.452744,192.083482 175,193.629306 175,195.541741 C175,197.454177 173.452744,199 171.538537,199 L140.384553,199 C134.659186,199 130,194.345127 130,188.625061 L130,126.375102 C130,120.655036 134.659186,116 140.384553,116 L171.538537,116 C173.452744,116 175,117.546148 175,119.458584 C175,121.37102 173.452744,122.916843 171.538537,122.916843 L140.384553,122.916843 C138.473927,122.916843 136.923089,124.466082 136.923089,126.375102 L136.923089,188.625224 C136.923089,190.534081 138.473764,192.083482 140.384553,192.083482 L171.538537,192.083482 Z M211.980755,155.558757 C212.63403,156.206827 213,157.081134 213,157.999623 C213,158.918435 212.630652,159.796289 211.980755,160.440812 L191.184674,181.012495 C190.521103,181.670885 189.652428,182 188.783592,182 C187.901082,182 187.018573,181.657179 186.348245,180.978309 C185.024642,179.63089 185.034937,177.460604 186.38251,176.130278 L201.244092,161.428479 L161.420328,161.428479 C159.528868,161.428479 158,159.895782 158,157.999785 C158,156.103787 159.528868,154.571251 161.420328,154.571251 L201.244092,154.571251 L186.38251,139.869453 C185.034776,138.539126 185.021103,136.36884 186.348245,135.021421 C187.675388,133.674002 189.843858,133.656748 191.184674,134.987074 L211.980755,155.558757 Z" id="Combined-Shape"></path>
            </g>
        </g>
    </g>
</svg>