<?xml version="1.0" encoding="UTF-8"?>
<svg width="22px" height="20px" viewBox="0 0 22 20" version="1.1" xmlns="http://www.w3.org/2000/svg" xmlns:xlink="http://www.w3.org/1999/xlink">
    <!-- Generator: sketchtool 52.4 (67378) - http://www.bohemiancoding.com/sketch -->
    <title>50AF630C-9D8B-40A6-864C-3CA9776A7379</title>
    <desc>Created with sketchtool.</desc>
    <defs>
        <path d="M15.2311831,33.7448883 C16.8719188,35.4175124 19.5417707,35.4192286 21.1832956,33.7448883 L30.7061178,24.0377906 C31.1845342,23.5551172 31.4492047,22.9073696 31.4508355,22.217683 C31.4549389,20.8392215 30.2721025,19.6342006 28.9199212,19.6375793 C28.2434886,19.6392419 27.6088267,19.9091099 27.1321463,20.4001496 L18.8019455,28.8913394 C18.473146,29.227441 18.473146,29.7695368 18.8019455,30.1047267 C19.130745,30.4399165 19.6634002,30.4399165 19.9921997,30.1047267 L28.3248204,21.6101581 C28.4867476,21.4442257 28.698021,21.3545557 28.9240772,21.3537513 C29.3745588,21.3537513 29.7674347,21.7543165 29.7674347,22.2134998 C29.766593,22.4439495 29.6786326,22.6593291 29.5183889,22.8210247 L19.9921997,32.5315011 C19.0082738,33.5370706 17.4062049,33.5370706 16.4214372,32.5315011 C15.4366696,31.5292566 15.4366696,29.8952464 16.4214372,28.8913394 L27.1345663,17.9699965 C28.775302,16.2973724 31.445943,16.2973724 33.0866787,17.9699965 C34.7274145,19.6426206 34.7274145,22.3651665 33.0866787,24.0377906 L24.7540054,32.5315011 C24.4252059,32.8666909 24.4252059,33.4096984 24.7540054,33.7448883 C25.0828049,34.0800781 25.61546,34.0800781 25.9442595,33.7448883 L34.2768803,25.2511778 C36.5743732,22.9090321 36.5743732,19.0980041 34.2768803,16.7566093 C31.980229,14.4144636 28.2417525,14.4144636 25.9442595,16.7566093 L15.2311831,27.6779522 C13.5896056,29.3513808 13.5896056,32.0722642 15.2311831,33.7448883 Z" id="path-1"></path>
    </defs>
    <g id="ðŸ©-Approved-Screens" stroke="none" stroke-width="1" fill="none" fill-rule="evenodd">
        <g id="Messages---Open-View" transform="translate(-651.000000, -969.000000)">
            <g id="Send-Message" transform="translate(608.000000, 934.000000)">
                <g id="Group-5" transform="translate(29.000000, 20.000000)">
                    <mask id="mask-2" fill="white">
                        <use xlink:href="#path-1"></use>
                    </mask>
                    <use id="Clip" fill="#FFFFFF" fill-rule="nonzero" xlink:href="#path-1"></use>
                </g>
            </g>
        </g>
    </g>
</svg>