<?xml version="1.0" encoding="UTF-8"?>
<svg width="86px" height="104px" viewBox="0 0 86 104" version="1.1" xmlns="http://www.w3.org/2000/svg" xmlns:xlink="http://www.w3.org/1999/xlink">
    <!-- Generator: sketchtool 52.4 (67378) - http://www.bohemiancoding.com/sketch -->
    <title>098F3185-874B-49CE-8DA9-852436430555</title>
    <desc>Created with sketchtool.</desc>
    <defs>
        <linearGradient x1="89.9488729%" y1="16.2910841%" x2="11.5601977%" y2="61.1399191%" id="linearGradient-1">
            <stop stop-color="#FF344D" offset="0%"></stop>
            <stop stop-color="#D2273C" offset="100%"></stop>
        </linearGradient>
    </defs>
    <g id="First-Sprint-" stroke="none" stroke-width="1" fill="none" fill-rule="evenodd">
        <g id="Searching-Opponent-" transform="translate(-405.000000, -192.000000)" fill="url(#linearGradient-1)" fill-rule="nonzero">
            <path d="M435.491279,218.168464 L489.175639,218.168464 C490.218346,218.168464 491,217.359291 491,216.280654 L491,193.888591 C491,192.809173 490.218346,192 489.175639,192 L406.824361,192 C405.782408,192 405,192.809173 405,193.888591 L405,264.8404 C405,265.380109 405.261054,265.919818 405.782408,266.459527 L446.958047,295.595218 C447.478646,296.134927 448.521354,296.134927 449.042708,295.595218 L490.218346,266.459527 C490.738946,266.189282 491,265.649573 491,264.8404 L491,227.070928 C491,225.992291 490.218346,225.182337 489.175639,225.182337 L442.266616,225.182337 C441.224663,225.182337 440.442255,225.992291 440.442255,227.070928 L440.442255,245.956054 C440.442255,247.034691 441.224663,247.844645 442.266616,247.844645 L460.509475,247.844645 C461.551428,247.844645 462.333082,248.653818 462.333082,249.733236 L462.333082,252.969928 C462.333082,254.049345 461.551428,254.858518 460.509475,254.858518 L435.491279,254.858518 C434.448572,254.858518 433.666918,254.049345 433.666918,252.969928 L433.666918,220.057055 C433.666918,218.978418 434.448572,218.168464 435.491279,218.168464" id="G---logo"></path>
        </g>
    </g>
</svg>