<?xml version="1.0" encoding="UTF-8"?>
<svg width="24px" height="24px" viewBox="0 0 24 24" version="1.1" xmlns="http://www.w3.org/2000/svg" xmlns:xlink="http://www.w3.org/1999/xlink">
    <!-- Generator: Sketch 52.4 (67378) - http://www.bohemiancoding.com/sketch -->
    <title>checked</title>
    <desc>Created with Sketch.</desc>
    <g id="ðŸ©-Approved-Screens" stroke="none" stroke-width="1" fill="none" fill-rule="evenodd">
        <g id="Start-Game---PSN-Copy-12" transform="translate(-474.000000, -531.000000)">
            <g id="Group-4" transform="translate(381.000000, 197.000000)">
                <g id="Rectangle">
                    <g id="checked" transform="translate(93.000000, 334.000000)">
                        <rect id="Rectangle-Copy-8" fill="#2FC272" fill-rule="nonzero" x="0" y="0" width="24" height="24" rx="3"></rect>
                        <path d="M17.3411341,7.21383648 C17.49955,7.39832285 17.6579658,7.58280922 17.8163816,7.7672956 C18.0612061,8.0524109 18.0612061,8.52201258 17.8163816,8.80712788 C15.6561656,11.3228512 13.4959496,13.8385744 11.3213321,16.3710692 C10.6012601,17.2096436 10.4572457,17.2096436 9.73717372,16.3710692 C8.55625563,14.9958071 7.37533753,13.6205451 6.19441944,12.245283 C5.93519352,11.9433962 5.93519352,11.4737945 6.19441944,11.1886792 C6.33843384,11.0041929 6.49684968,10.836478 6.65526553,10.6519916 C6.90009001,10.3668763 7.30333033,10.3668763 7.56255626,10.6519916 C8.54185419,11.7924528 9.53555356,12.9496855 10.5292529,14.1069182 C12.5022502,11.8092243 14.4752475,9.5115304 16.4482448,7.21383648 C16.6930693,6.92872117 17.0963096,6.92872117 17.3411341,7.21383648 Z" id="Path" fill="#FFFFFF"></path>
                    </g>
                </g>
            </g>
        </g>
    </g>
</svg>