<?xml version="1.0" encoding="UTF-8"?>
<svg width="122px" height="146px" viewBox="0 0 122 146" version="1.1" xmlns="http://www.w3.org/2000/svg" xmlns:xlink="http://www.w3.org/1999/xlink">
    <!-- Generator: Sketch 52.4 (67378) - http://www.bohemiancoding.com/sketch -->
    <title>G-shield</title>
    <desc>Created with Sketch.</desc>
    <defs>
        <polygon id="path-1" points="0 0 122 0 122 146 0 146"></polygon>
        <polygon id="path-3" points="40.7790085 36.7437975 17 37.1055324 19.7617226 98.4706628 61.2601828 116.780831 61.7514405 117 102.970097 95.8874502 103 36.4671767 79.1974965 36.0267113 58.8850586 23.3085386 58.3895291 23"></polygon>
        <polygon id="path-5" points="62.3689358 116.780109 62.8589135 117 103.970175 95.8179237 104 36.2019713 80.2595139 35.7600554 60 23"></polygon>
    </defs>
    <g id="ðŸ©-Approved-Screens" stroke="none" stroke-width="1" fill="none" fill-rule="evenodd">
        <g id="Start-Game---PSN-Copy-9" transform="translate(-548.000000, -620.000000)">
            <g id="1" transform="translate(275.000000, 620.000000)">
                <g id="G-shield" transform="translate(273.000000, 0.000000)">
                    <g id="Shield">
                        <g id="Group-4">
                            <mask id="mask-2" fill="white">
                                <use xlink:href="#path-1"></use>
                            </mask>
                            <g id="Clip-2"></g>
                            <path d="M121.998305,108.639851 C122.05169,110.959171 120.840911,113.126159 118.833624,114.286891 L65.2326387,145.161097 C64.2845157,145.708208 63.1975908,146 62.0935826,146 C61.1048867,146 60.1140554,145.761846 59.2257238,145.311284 L3.9441694,116.78 C1.81302789,115.675051 0.499749309,113.503772 0.510426371,111.107213 L0.521103432,108.459626 C0.405791166,107.983318 0.341728796,107.4877 0.333187147,106.981355 L6.28233284e-05,26.2299667 C-0.014885063,22.8078431 2.63943247,20.0079239 6.04327972,19.8598822 L13.9144096,19.5080149 C19.5476273,19.2548421 26.5838109,18.9373034 29.7143254,18.7999893 C33.8121817,16.1524029 47.3143939,6.76999138 55.3606275,1.12509666 C57.4084879,-0.314555313 60.2464509,-0.378921274 62.3605091,0.968472828 L89.9222761,18.5103425 L114.79983,18.5639808 C116.471858,18.5639808 118.107583,19.2505511 119.284196,20.4499035 C120.450131,21.6192184 121.12065,23.2734236 121.103567,24.9641028 L120.834505,56.3382174 L121.998305,108.639851 Z" id="Fill-1" fill="#0E1832"></path>
                            <path d="M113.831596,55.8300502 L115,108.205115 L61.585403,139 L6.5065214,110.548925 L6.52567557,106.430668 L6.32987738,106.349331 L6,25.8164349 C6,25.8164349 30.4045415,24.7119544 31.1302718,24.6926902 C31.8517455,24.673426 58.4781709,6 58.4781709,6 L87.4882263,24.4807841 L114.101882,24.5321553 L113.831596,55.8300502 Z" id="Fill-4" fill="#582805"></path>
                            <path d="M10.5032957,109.142247 L62.516229,136 L113,106.903204 L111.873474,56.1996412 L112.113343,27.9704742 L88.6704718,27.9209569 C88.0472418,27.9209569 87.4368619,27.7401111 86.9057243,27.4064075 L59.569272,10 C33.7491319,28.0953439 33.2736781,28.1104144 32.0486349,28.1384024 C31.4532468,28.1556258 19.5069345,28.6938573 10,29.1244425 L10.3105442,105.880564 C10.4454702,106.250867 10.5161458,106.638394 10.5161458,107.045297 L10.5032957,109.142247 Z M62.0932679,143 C61.5741942,143 61.0572566,142.875518 60.580905,142.632994 L5.30276119,114.105237 C4.20266674,113.536485 3.50202407,112.390395 3.50843239,111.145579 L3.52124902,108.055001 C3.39949099,107.705164 3.33754393,107.333866 3.33113561,106.951836 L3.00003922,26.2104722 C2.9914948,24.4269509 4.37996352,22.9610723 6.15506737,22.8838078 C8.41079502,22.785081 26.5228354,21.9652192 30.636975,21.7870817 C33.7535533,19.8640551 48.1637225,9.85401471 57.0841,3.59773947 C58.1777861,2.83153354 59.6196575,2.79934002 60.7432491,3.51618253 L89.0530582,21.5359722 L114.810221,21.5874819 C115.692433,21.5874819 116.534058,21.9437569 117.149257,22.5683113 C117.773,23.1950119 118.11264,24.0513597 118.104096,24.9313161 L117.834947,56.3178578 L118.999124,108.728918 C119.026894,109.941541 118.39247,111.074753 117.343642,111.682138 L63.731661,142.562168 C63.2211317,142.856202 62.6571998,143 62.0932679,143 Z" id="Fill-6" fill="#450604"></path>
                            <polygon id="Fill-8" fill="#FF8300" points="7.36349013 26.9354309 7 111.416671 62.3360273 140 116 109.059816 114.154753 26 104.945624 94.9208307"></polygon>
                            <path d="M6,25.8645846 C6,25.8645846 30.6072961,24.7574204 31.3390558,24.7402551 C32.0665236,24.7209441 58.9141631,6 58.9141631,6 L88.1652361,24.5256884 L115,24.5771844 L114.313305,103.614972 L62.5901288,132 L6.33261803,106.593158 L6,25.8645846 Z" id="Fill-10" fill="#FFE951"></path>
                            <polygon id="Fill-12" fill="#FFFF9A" points="10 29.2863456 11.1722657 104.12776 61.4809295 124.501529 63.1298308 132 64.8839353 124.167883 110.894291 100.408467 112 28.6618294 88.3399848 29.256403 60.3043698 11 36.1097499 29.1131065"></polygon>
                            <polygon id="Fill-14" fill="#FFFFF0" points="44 116.254453 61.3751189 123.114411 62.6606645 126 63.5454098 122.571091 109 99.2917258 108.469153 30.2536392 87.648857 31.0237 60.2985011 13 59.8657221 15.1968122 83.5747647 32.8312037 105.390665 33.0087455 107.241169 96.9066765 62.9847158 119.66625"></polygon>
                            <polygon id="Fill-16" fill="#A71729" points="58.5121373 21 39.982189 35.3814956 16 35.2634033 16.9012496 100.154051 61.9637317 120 105 97.6655244 104.162669 35.4544981 79.6904386 35.1045155"></polygon>
                            <polygon id="Fill-18" fill="#FFE951" points="59.4858716 18 39.3457778 32.2457181 14 33.3828726 16.2389808 35.2881996 40.4019413 35.406878 59.0737102 20.9540121 80.411648 35.1285233 105.066197 35.4824005 105.911986 98 106 33.7432232 82.7901626 32.6125421"></polygon>
                            <polygon id="Fill-20" fill="#FFE951" points="14 33 16.4172967 101.070832 62 120 18.8006367 99.7857444 16.6613609 35.0095665"></polygon>
                            <polygon id="Fill-22" fill="#B02233" points="59.390637 23 41.7805538 36.8918442 18 37.257419 20.7637899 99.2739661 62.7524649 118 103.970098 96.6611812 104 36.6101365 80.1980877 36.1606945"></polygon>
                            <mask id="mask-4" fill="white">
                                <use xlink:href="#path-3"></use>
                            </mask>
                            <g id="Clip-26"></g>
                            <polygon id="Fill-25" fill="#FC334C" points="40.7790085 36.7437975 17 37.1055324 19.7617226 98.4706628 61.2601828 116.780831 61.7514405 117 102.970097 95.8874502 103 36.4671767 79.1974965 36.0267113 58.8850586 23.3085386 58.3895291 23"></polygon>
                            <path d="M6,26 C6.66717744,26.6421509 9.81857187,29.1592106 9.81857187,29.1592106 C9.81857187,29.1592106 10.4085198,103.848448 10.6573705,104.245765 C10.9126571,104.649526 60.5133313,124.876206 60.5133313,124.876206 L62,132 L6.33251609,106.803631 L6,26 Z" id="Fill-28" fill="#FFAB00"></path>
                            <mask id="mask-6" fill="white">
                                <use xlink:href="#path-5"></use>
                            </mask>
                            <g id="Clip-31"></g>
                            <polygon id="Fill-30" points="62.3689358 116.780109 62.8589135 117 103.970175 95.8179237 104 36.2019713 80.2595139 35.7600554 60 23"></polygon>
                            <polygon id="Fill-33" fill="#CD3131" points="19 63.5793788 60.1728784 44 104 65.8054357 103.980735 84 60.9541677 64.1876618 19.8283808 82.1945643"></polygon>
                            <polygon id="Fill-35" fill="#CD3131" points="19 63.4796408 60.2178571 44 61 64.0848252 19.8292857 82"></polygon>
                        </g>
                    </g>
                    <path d="M55.1819905,58.0777525 L80.1514599,58.0777525 C80.6364402,58.0777525 81,57.7042881 81,57.2064557 L81,46.8716573 C81,46.3734644 80.6364402,46 80.1514599,46 L41.8485401,46 C41.3639107,46 41,46.3734644 41,46.8716573 L41,79.6186462 C41,79.8677426 41.1214206,80.1168391 41.3639107,80.3659355 L60.5153706,93.8131777 C60.7575098,94.0622741 61.2424902,94.0622741 61.4849803,93.8131777 L80.6364402,80.3659355 C80.8785794,80.241207 81,79.9921106 81,79.6186462 L81,62.186582 C81,61.6887496 80.6364402,61.3149247 80.1514599,61.3149247 L58.3333099,61.3149247 C57.8486805,61.3149247 57.4847698,61.6887496 57.4847698,62.186582 L57.4847698,70.9027943 C57.4847698,71.4006267 57.8486805,71.7744516 58.3333099,71.7744516 L66.8183605,71.7744516 C67.3029899,71.7744516 67.6665497,72.147916 67.6665497,72.6461089 L67.6665497,74.1399665 C67.6665497,74.6381594 67.3029899,75.0116238 66.8183605,75.0116238 L55.1819905,75.0116238 C54.6970101,75.0116238 54.3334503,74.6381594 54.3334503,74.1399665 L54.3334503,58.9494098 C54.3334503,58.4515774 54.6970101,58.0777525 55.1819905,58.0777525" id="G---Coin" fill="#FFFFFF" fill-rule="nonzero"></path>
                </g>
            </g>
        </g>
    </g>
</svg>