<?xml version="1.0" encoding="UTF-8"?>
<svg width="12px" height="16px" viewBox="0 0 12 16" version="1.1" xmlns="http://www.w3.org/2000/svg" xmlns:xlink="http://www.w3.org/1999/xlink">
    <!-- Generator: sketchtool 52.4 (67378) - http://www.bohemiancoding.com/sketch -->
    <title>25373BF3-5CD1-432E-8643-560332F9C06F</title>
    <desc>Created with sketchtool.</desc>
    <g id="Page-1" stroke="none" stroke-width="1" fill="none" fill-rule="evenodd">
        <g id="Main-Page" transform="translate(-1368.000000, -18.000000)" fill="#FFFFFF">
            <g id="Menu">
                <g id="Header">
                    <g id="Profile-" transform="translate(1172.000000, 9.000000)">
                        <g id="Bell" transform="translate(196.000000, 9.000000)">
                            <g id="bell">
                                <g id="Path">
                                    <path d="M4.23558575,13.8181818 C4.23555334,13.8229578 4.23529412,13.8276939 4.23529412,13.8324699 C4.23529412,15.0295645 5.0253792,16 6,16 C6.9746208,16 7.76470588,15.0295645 7.76470588,13.8324699 C7.76470588,13.8276939 7.76444666,13.8229578 7.76441425,13.8181818 L4.23558575,13.8181818 Z"></path>
                                    <path d="M11.8554624,11.740612 L10.2048838,9.22797212 C10.2048838,8.45881159 10.2048838,6.57937424 10.2048838,6.09319192 C10.2048838,3.97910844 8.75201102,2.21688947 6.82455686,1.81976381 L6.82455686,0.854448325 C6.82452319,0.382573698 6.45537819,0 5.99999159,0 C5.544605,0 5.17545999,0.382573698 5.17545999,0.854448325 L5.17545999,1.8197987 C3.24800584,2.21695927 1.79513301,3.97917824 1.79513301,6.09322682 C1.79513301,6.9208395 1.79513301,8.7483155 1.79513301,9.22800701 L0.144554447,11.7406469 C-0.0293094138,12.0053043 -0.0476959464,12.3478863 0.0967696671,12.6308994 C0.241235281,12.9139125 0.524845863,13.0909091 0.833813696,13.0909091 L11.1661695,13.0909091 C11.4751373,13.0909091 11.7587479,12.9138776 11.9032135,12.6308994 C12.0477128,12.3478514 12.0292926,12.0052694 11.8554624,11.740612 Z"></path>
                                </g>
                            </g>
                        </g>
                    </g>
                </g>
            </g>
        </g>
    </g>
</svg>