<?xml version="1.0" encoding="UTF-8"?>
<svg width="79px" height="13px" viewBox="0 0 79 13" version="1.1" xmlns="http://www.w3.org/2000/svg" xmlns:xlink="http://www.w3.org/1999/xlink">
    <!-- Generator: Sketch 52.4 (67378) - http://www.bohemiancoding.com/sketch -->
    <title>Gaming Stars</title>
    <desc>Created with Sketch.</desc>
    <g id="Page-1" stroke="none" stroke-width="1" fill="none" fill-rule="evenodd">
        <g id="Main-Page" transform="translate(-83.000000, -19.000000)" fill="#FFFFFF">
            <g id="Menu">
                <g id="Logotype" transform="translate(43.000000, 14.000000)">
                    <path d="M45.474,15.182 C44.0926598,15.182 42.9306714,14.7340045 41.988,13.838 C41.0453286,12.9419955 40.574,11.7753405 40.574,10.338 C40.574,8.90065948 41.0453286,7.73633779 41.988,6.845 C42.9306714,5.95366221 44.0926598,5.508 45.474,5.508 C47.0793414,5.508 48.3346621,6.15666018 49.24,7.454 L47.896,8.21 C47.6346654,7.84599818 47.2916688,7.5473345 46.867,7.314 C46.4423312,7.0806655 45.9780025,6.964 45.474,6.964 C44.5499954,6.964 43.7823364,7.28133016 43.171,7.916 C42.5596636,8.55066984 42.254,9.3579951 42.254,10.338 C42.254,11.3180049 42.5596636,12.1276635 43.171,12.767 C43.7823364,13.4063365 44.5499954,13.726 45.474,13.726 C45.9126689,13.726 46.3303314,13.6420008 46.727,13.474 C47.1236687,13.3059992 47.4433321,13.1100011 47.686,12.886 L47.686,11.43 L44.9,11.43 L44.9,9.988 L49.324,9.988 L49.324,13.488 C48.3066616,14.617339 47.0233411,15.182 45.474,15.182 Z M56.19,15 L54.72,15 L54.72,14.272 C54.1973307,14.8693363 53.469338,15.168 52.536,15.168 C51.9199969,15.168 51.3740024,14.9696686 50.898,14.573 C50.4219976,14.1763313 50.184,13.6280035 50.184,12.928 C50.184,12.2093297 50.4196643,11.6633352 50.891,11.29 C51.3623357,10.9166648 51.9106635,10.73 52.536,10.73 C53.4973381,10.73 54.2253309,11.0193304 54.72,11.598 L54.72,10.59 C54.72,10.197998 54.5753348,9.89000112 54.286,9.666 C53.9966652,9.44199888 53.6140024,9.33 53.138,9.33 C52.3819962,9.33 51.7146696,9.61466382 51.136,10.184 L50.534,9.162 C51.2993372,8.43399636 52.246661,8.07 53.376,8.07 C54.2066708,8.07 54.8833307,8.26599804 55.406,8.658 C55.9286693,9.05000196 56.19,9.67066242 56.19,10.52 L56.19,15 Z M53.11,14.16 C53.847337,14.16 54.3839983,13.926669 54.72,13.46 L54.72,12.438 C54.3839983,11.971331 53.847337,11.738 53.11,11.738 C52.6899979,11.738 52.344668,11.8499989 52.074,12.074 C51.803332,12.2980011 51.668,12.5919982 51.668,12.956 C51.668,13.3200018 51.803332,13.6116656 52.074,13.831 C52.344668,14.0503344 52.6899979,14.16 53.11,14.16 Z M67.452,15 L65.982,15 L65.982,10.59 C65.982,9.77799594 65.613337,9.372 64.876,9.372 C64.5679984,9.372 64.2693348,9.46066578 63.98,9.638 C63.6906652,9.81533422 63.4666674,10.0253321 63.308,10.268 L63.308,15 L61.838,15 L61.838,10.59 C61.838,9.77799594 61.4646704,9.372 60.718,9.372 C60.4193318,9.372 60.1276681,9.46066578 59.843,9.638 C59.5583319,9.81533422 59.3320008,10.0299987 59.164,10.282 L59.164,15 L57.694,15 L57.694,8.238 L59.164,8.238 L59.164,9.162 C59.3320008,8.90999874 59.6236646,8.66500119 60.039,8.427 C60.4543354,8.18899881 60.895331,8.07 61.362,8.07 C62.3420049,8.07 62.9579987,8.48532918 63.21,9.316 C63.4246677,8.97999832 63.7419979,8.68833457 64.162,8.441 C64.5820021,8.19366543 65.0299976,8.07 65.506,8.07 C66.8033398,8.07 67.452,8.75132652 67.452,10.114 L67.452,15 Z M69.684,7.412 C69.4413321,7.412 69.2290009,7.32333422 69.047,7.146 C68.8649991,6.96866578 68.774,6.75400126 68.774,6.502 C68.774,6.24999874 68.8649991,6.03533422 69.047,5.858 C69.2290009,5.68066578 69.4413321,5.592 69.684,5.592 C69.9360012,5.592 70.1506658,5.68066578 70.328,5.858 C70.5053342,6.03533422 70.594,6.24999874 70.594,6.502 C70.594,6.75400126 70.5053342,6.96866578 70.328,7.146 C70.1506658,7.32333422 69.9360012,7.412 69.684,7.412 Z M70.426,15 L68.956,15 L68.956,8.238 L70.426,8.238 L70.426,15 Z M77.964,15 L76.494,15 L76.494,10.772 C76.494,9.838662 76.0413378,9.372 75.136,9.372 C74.7813315,9.372 74.4500015,9.46066578 74.142,9.638 C73.8339984,9.81533422 73.5866676,10.0299987 73.4,10.282 L73.4,15 L71.93,15 L71.93,8.238 L73.4,8.238 L73.4,9.162 C73.6520012,8.86333184 73.9879979,8.60666774 74.408,8.392 C74.8280021,8.17733226 75.2853308,8.07 75.78,8.07 C76.4986702,8.07 77.0423315,8.2566648 77.411,8.63 C77.7796685,9.0033352 77.964,9.5399965 77.964,10.24 L77.964,15 Z M82.212,17.744 C81.0639942,17.744 80.121337,17.4080034 79.384,16.736 L80.07,15.672 C80.5740025,16.2506696 81.2879954,16.54 82.212,16.54 C82.7720028,16.54 83.2456647,16.3930015 83.633,16.099 C84.0203352,15.8049985 84.214,15.3406698 84.214,14.706 L84.214,13.894 C83.6353304,14.6406704 82.9120043,15.014 82.044,15.014 C81.1573289,15.014 80.4363361,14.7060031 79.881,14.09 C79.3256639,13.4739969 79.048,12.6246721 79.048,11.542 C79.048,10.4686613 79.3256639,9.62166977 79.881,9.001 C80.4363361,8.38033023 81.1573289,8.07 82.044,8.07 C82.9306711,8.07 83.6539972,8.43866298 84.214,9.176 L84.214,8.238 L85.684,8.238 L85.684,14.65 C85.684,15.2286696 85.5836676,15.7303312 85.383,16.155 C85.1823323,16.5796688 84.909335,16.9016656 84.564,17.121 C84.2186649,17.3403344 83.8523352,17.4989995 83.465,17.597 C83.0776647,17.6950005 82.6600022,17.744 82.212,17.744 Z M82.478,13.712 C82.8140017,13.712 83.1453317,13.6233342 83.472,13.446 C83.7986683,13.2686658 84.0459991,13.0540013 84.214,12.802 L84.214,10.282 C84.0459991,10.0299987 83.7986683,9.81533422 83.472,9.638 C83.1453317,9.46066578 82.8140017,9.372 82.478,9.372 C81.8993304,9.372 81.437335,9.57033135 81.092,9.967 C80.7466649,10.3636686 80.574,10.8886634 80.574,11.542 C80.574,12.1953366 80.7466649,12.7203313 81.092,13.117 C81.437335,13.5136686 81.8993304,13.712 82.478,13.712 Z M93.62,15.168 C92.0146586,15.168 90.7500046,14.6733383 89.826,13.684 L90.736,12.424 C91.5386706,13.282671 92.5233275,13.712 93.69,13.712 C94.3153364,13.712 94.7843317,13.5860013 95.097,13.334 C95.4096682,13.0819987 95.566,12.7833351 95.566,12.438 C95.566,12.0833316 95.3793352,11.801001 95.006,11.591 C94.6326648,11.3809989 94.1800026,11.2153339 93.648,11.094 C93.1159973,10.9726661 92.5816693,10.8280008 92.045,10.66 C91.5083306,10.4919992 91.0533352,10.2073353 90.68,9.806 C90.3066648,9.40466466 90.12,8.88666984 90.12,8.252 C90.12,7.46799608 90.4349968,6.81700259 91.065,6.299 C91.6950031,5.78099741 92.5139949,5.522 93.522,5.522 C94.9593405,5.522 96.1259955,5.95599566 97.022,6.824 L96.084,8.042 C95.3746631,7.33266312 94.4740054,6.978 93.382,6.978 C92.8966642,6.978 92.511668,7.08299895 92.227,7.293 C91.9423319,7.50300105 91.8,7.78533156 91.8,8.14 C91.8,8.3733345 91.9003323,8.56933254 92.101,8.728 C92.3016676,8.88666746 92.560665,9.01499951 92.878,9.113 C93.1953349,9.21100049 93.5476647,9.3066662 93.935,9.4 C94.3223352,9.4933338 94.7096647,9.60766599 95.097,9.743 C95.4843352,9.87833401 95.836665,10.043999 96.154,10.24 C96.4713349,10.436001 96.7303323,10.7066649 96.931,11.052 C97.1316676,11.3973351 97.232,11.8079976 97.232,12.284 C97.232,13.1240042 96.9286697,13.814664 96.322,14.356 C95.7153303,14.897336 94.8146726,15.168 93.62,15.168 Z M100.122,15.168 C99.5526638,15.168 99.1210014,15.0186682 98.827,14.72 C98.5329985,14.4213318 98.386,13.9920028 98.386,13.432 L98.386,9.526 L97.266,9.526 L97.266,8.238 L98.386,8.238 L98.386,6.39 L99.856,6.39 L99.856,8.238 L101.228,8.238 L101.228,9.526 L99.856,9.526 L99.856,13.068 C99.856,13.3106679 99.9119994,13.5043326 100.024,13.649 C100.136001,13.7936674 100.294666,13.866 100.5,13.866 C100.798668,13.866 101.017999,13.7866675 101.158,13.628 L101.508,14.734 C101.199998,15.0233348 100.738003,15.168 100.122,15.168 Z M107.758,15 L106.288,15 L106.288,14.272 C105.765331,14.8693363 105.037338,15.168 104.104,15.168 C103.487997,15.168 102.942002,14.9696686 102.466,14.573 C101.989998,14.1763313 101.752,13.6280035 101.752,12.928 C101.752,12.2093297 101.987664,11.6633352 102.459,11.29 C102.930336,10.9166648 103.478663,10.73 104.104,10.73 C105.065338,10.73 105.793331,11.0193304 106.288,11.598 L106.288,10.59 C106.288,10.197998 106.143335,9.89000112 105.854,9.666 C105.564665,9.44199888 105.182002,9.33 104.706,9.33 C103.949996,9.33 103.28267,9.61466382 102.704,10.184 L102.102,9.162 C102.867337,8.43399636 103.814661,8.07 104.944,8.07 C105.774671,8.07 106.451331,8.26599804 106.974,8.658 C107.496669,9.05000196 107.758,9.67066242 107.758,10.52 L107.758,15 Z M104.678,14.16 C105.415337,14.16 105.951998,13.926669 106.288,13.46 L106.288,12.438 C105.951998,11.971331 105.415337,11.738 104.678,11.738 C104.257998,11.738 103.912668,11.8499989 103.642,12.074 C103.371332,12.2980011 103.236,12.5919982 103.236,12.956 C103.236,13.3200018 103.371332,13.6116656 103.642,13.831 C103.912668,14.0503344 104.257998,14.16 104.678,14.16 Z M110.732,15 L109.262,15 L109.262,8.238 L110.732,8.238 L110.732,9.232 C110.993335,8.89599832 111.319998,8.62066774 111.712,8.406 C112.104002,8.19133226 112.509998,8.084 112.93,8.084 L112.93,9.54 C112.799333,9.51199986 112.645334,9.498 112.468,9.498 C112.159998,9.498 111.831002,9.58899909 111.481,9.771 C111.130998,9.95300091 110.881334,10.1606655 110.732,10.394 L110.732,15 Z M116.03,15.168 C114.816661,15.168 113.85067,14.8180035 113.132,14.118 L113.804,13.054 C114.056001,13.3153346 114.396664,13.5393324 114.826,13.726 C115.255335,13.9126676 115.679998,14.006 116.1,14.006 C116.529335,14.006 116.858332,13.9220008 117.087,13.754 C117.315668,13.5859992 117.43,13.366668 117.43,13.096 C117.43,12.8533321 117.290001,12.664334 117.01,12.529 C116.729999,12.393666 116.389335,12.2863337 115.988,12.207 C115.586665,12.1276663 115.185335,12.0296672 114.784,11.913 C114.382665,11.7963327 114.042001,11.5886682 113.762,11.29 C113.481999,10.9913318 113.342,10.6040024 113.342,10.128 C113.342,9.54933044 113.579998,9.06166865 114.056,8.665 C114.532002,8.26833135 115.180662,8.07 116.002,8.07 C117.038005,8.07 117.91533,8.38733016 118.634,9.022 L118.018,10.058 C117.803332,9.81533212 117.518668,9.61933408 117.164,9.47 C116.809331,9.32066592 116.426669,9.246 116.016,9.246 C115.633331,9.246 115.327668,9.32299923 115.099,9.477 C114.870332,9.63100077 114.756,9.82933212 114.756,10.072 C114.756,10.2586676 114.856332,10.4103327 115.057,10.527 C115.257668,10.6436672 115.509665,10.7299997 115.813,10.786 C116.116335,10.8420003 116.445331,10.9189995 116.8,11.017 C117.154668,11.1150005 117.483665,11.2293327 117.787,11.36 C118.090335,11.4906673 118.342332,11.7029985 118.543,11.997 C118.743668,12.2910015 118.844,12.6479979 118.844,13.068 C118.844,13.6840031 118.596669,14.187998 118.102,14.58 C117.607331,14.972002 116.916671,15.168 116.03,15.168 Z" id="Gaming-Stars"></path>
                </g>
            </g>
        </g>
    </g>
</svg>