<?xml version="1.0" encoding="UTF-8"?>
<svg width="45px" height="44px" viewBox="0 0 45 44" version="1.1" xmlns="http://www.w3.org/2000/svg" xmlns:xlink="http://www.w3.org/1999/xlink">
    <!-- Generator: Sketch 52.4 (67378) - http://www.bohemiancoding.com/sketch -->
    <title>Invite</title>
    <desc>Created with Sketch.</desc>
    <g id="ðŸ©-Approved-Screens" stroke="none" stroke-width="1" fill="none" fill-rule="evenodd">
        <g id="Friends---Tab-1" transform="translate(-643.000000, -928.000000)" fill="#F33149">
            <g id="Invite-Friends" transform="translate(607.000000, 907.000000)">
                <g id="Invite" transform="translate(36.000000, 21.000000)">
                    <path d="M22.5,13 C20.0454545,13 18,14.987013 18,17.5 C18,20.012987 19.987013,22 22.5,22 C25.012987,22 27,20.012987 27,17.5 C27,14.987013 24.9545455,13 22.5,13 Z" id="Path"></path>
                    <path d="M22.5,0 C10.06875,0 0,9.845 0,22 C0,34.155 10.06875,44 22.5,44 C34.93125,44 45,34.155 45,22 C45,9.845 34.93125,0 22.5,0 Z M9.16875,18.975 L9.16875,17.875 L8.04375,17.875 C7.25625,17.875 6.6375,17.27 6.6375,16.5 C6.6375,15.73 7.25625,15.125 8.04375,15.125 L9.16875,15.125 L9.16875,14.025 C9.16875,13.255 9.7875,12.65 10.575,12.65 C11.3625,12.65 11.98125,13.255 11.98125,14.025 L11.98125,15.125 L13.10625,15.125 C13.89375,15.125 14.5125,15.73 14.5125,16.5 C14.5125,17.27 13.89375,17.875 13.10625,17.875 L11.98125,17.875 L11.98125,18.975 C11.98125,19.745 11.3625,20.35 10.575,20.35 C9.7875,20.35 9.16875,19.745 9.16875,18.975 Z M32.34375,33.495 C31.66875,33.495 31.10625,32.945 31.10625,32.285 C31.10625,27.665 27.225,23.87 22.5,23.87 C17.775,23.87 13.89375,27.665 13.89375,32.285 C13.89375,32.945 13.33125,33.495 12.65625,33.495 C11.98125,33.495 11.41875,32.945 11.41875,32.285 C11.41875,27.775 14.23125,23.925 18.225,22.275 C16.65,21.065 15.69375,19.195 15.69375,17.105 C15.69375,13.42 18.73125,10.45 22.5,10.45 C26.26875,10.45 29.30625,13.42 29.30625,17.105 C29.30625,19.195 28.29375,21.065 26.775,22.275 C30.76875,23.925 33.58125,27.775 33.58125,32.285 C33.58125,32.945 33.01875,33.495 32.34375,33.495 Z" id="Shape" fill-rule="nonzero"></path>
                </g>
            </g>
        </g>
    </g>
</svg>