<?xml version="1.0" encoding="UTF-8"?>
<svg width="159px" height="218px" viewBox="0 0 159 218" version="1.1" xmlns="http://www.w3.org/2000/svg" xmlns:xlink="http://www.w3.org/1999/xlink">
    <!-- Generator: sketchtool 52.4 (67378) - http://www.bohemiancoding.com/sketch -->
    <title>F777EF75-4508-480F-85F3-18349F03D567</title>
    <desc>Created with sketchtool.</desc>
    <g id="ðŸ©-Approved-Screens" stroke="none" stroke-width="1" fill="none" fill-rule="evenodd" fill-opacity="0.0716995018">
        <g id="Friends---Profile-not-friend---button-" transform="translate(-1121.000000, -235.000000)" fill="#FFFFFF" fill-rule="nonzero">
            <g id="Locker" transform="translate(1065.000000, 235.000000)">
                <g id="Locker-" transform="translate(56.000000, 0.000000)">
                    <path d="M151.739745,83.6910665 C145.589882,83.6052735 139.525434,82.7902401 133.71723,81.5462416 L133.71723,54.4356553 C133.71723,24.408107 109.416729,2.84217094e-14 79.521562,2.84217094e-14 C49.6263946,2.84217094e-14 25.3258942,24.408107 25.3258942,54.4356553 L25.3258942,81.4175521 C19.4322755,82.7473436 13.3678272,83.562377 7.26067161,83.6910665 C3.20347031,82.9189296 -0.0422907203,86.0932704 0.00041666171,89.6107832 C0.00041666171,89.6536797 0.00041666171,89.6965762 0.00041666171,89.7394726 C0.00041666171,89.7394726 0.00041666171,89.7394726 0.00041666171,89.7823691 C0.00041666171,89.7823691 0.00041666171,89.8252656 0.00041666171,89.8252656 C0.0858314258,140.22865 28.6143626,187.800866 76.3612158,217.099174 C78.4111701,218.300275 80.5038318,218.300275 82.6392009,217.099174 C130.428761,187.757969 159,140.142857 159,89.6536797 C159,85.6214089 155.455287,82.9189296 151.739745,83.6910665 Z M37,54.2177576 C37,30.948801 55.8510638,12 79,12 C102.148936,12 121,30.948801 121,54.2177576 L121,78 C99.0425532,70.8139987 82.787234,59.0084251 82.5744681,58.8373299 C80.4893617,57.2974725 77.6808511,57.2974725 75.5531915,58.7517822 C75.2978723,58.9228775 58.6595745,70.5573558 37,77.7433571 L37,54.2177576 Z M79.5214218,204 C38.9485877,178.058162 14.1421771,137.970116 12,95.2323265 C41.9047921,93.1809126 69.7530943,77.1115039 79.4357347,71 C88.9041574,77.2397172 116.109806,93.2663882 147,95.2750643 C144.900666,138.012853 120.094256,178.1009 79.5214218,204 Z" id="Shape"></path>
                    <path d="M96.5292108,136.205423 C99.4191457,132.523738 100.99161,127.900227 100.99161,123.148284 C100.99161,111.503885 91.5568229,102 79.9970835,102 C68.4373441,102 59.0025568,111.503885 59.0025568,123.148284 C59.0025568,127.900227 60.6175204,132.480928 63.4649562,136.205423 L59.0875549,161.934409 C58.4500692,165.701714 61.3825031,168.998107 64.9949217,168.998107 L94.9992453,168.998107 C98.0166773,169.083727 101.629096,166.258248 100.906612,161.934409 L96.5292108,136.205423 Z M84.1603774,135.328 L87.8537736,157 L72.1037736,157 L75.7971698,135.328 C76.1367925,133.307 75.4575472,131.2 73.9292453,129.824 C72.0613208,128.104 71,125.653 71,123.116 C71,118.085 75.0330189,114 80,114 C84.9669811,114 89,118.085 89,123.116 C89,125.653 87.9386792,128.104 86.0707547,129.824 C84.5,131.2 83.8207547,133.307 84.1603774,135.328 Z" id="Shape"></path>
                </g>
            </g>
        </g>
    </g>
</svg>