<?xml version="1.0" encoding="UTF-8"?>
<svg width="16px" height="22px" viewBox="0 0 16 22" version="1.1" xmlns="http://www.w3.org/2000/svg" xmlns:xlink="http://www.w3.org/1999/xlink">
    <!-- Generator: sketchtool 52.4 (67378) - http://www.bohemiancoding.com/sketch -->
    <title>35648160-03F9-445A-9DC7-F74C6F38FD55</title>
    <desc>Created with sketchtool.</desc>
    <g id="ðŸ©-Approved-Screens" stroke="none" stroke-width="1" fill="none" fill-rule="evenodd">
        <g id="Daily-Challenges-2---timer-" transform="translate(-926.000000, -317.000000)" fill="#FFFFFF" fill-rule="nonzero">
            <g id="Your-Challeges---BG" transform="translate(275.000000, 82.000000)">
                <g id="Challenge-2-" transform="translate(400.000000, 97.000000)">
                    <g id="button" transform="translate(211.000000, 131.000000)">
                        <path d="M55.5503093,16.1895777 L54.0888148,16.1895777 L54.0888148,9.29166667 C54.0888148,8.02666218 53.0770109,7 51.8358604,7 L44.1596382,7 C42.9185152,7 41.9111851,8.02666218 41.9111851,9.29166667 L41.9111851,16.1895777 L40.4496906,16.1895777 C40.197865,16.1895777 40,16.3958333 40,16.6479111 L40,26.7083333 C40,27.9733378 41.0073301,29 42.2484531,29 L53.7515469,29 C54.9881961,29 56,27.9733378 56,26.7083333 L56,16.6479111 C56,16.3958333 55.7976337,16.1895777 55.5503093,16.1895777 Z M45.0590195,10.6712545 C45.0590195,10.4145889 45.2613858,10.2083333 45.5087101,10.2083333 L50.4867886,10.2083333 C50.7341404,10.2083333 50.9364792,10.4145889 50.9364792,10.6712545 L50.9364792,16.1895777 L45.0590195,16.1895777 L45.0590195,10.6712545 Z M48.4482771,24.8969879 L48.4482771,26.2482096 C48.4482771,26.5013224 48.2471459,26.7065429 47.9985865,26.7065429 C47.750027,26.7065429 47.5488958,26.5013224 47.5488958,26.2482096 L47.5488958,24.8966522 C46.7737943,24.6908722 46.1967499,23.9774119 46.1967499,23.1241633 C46.1967499,22.1158244 47.0061876,21.29083 48.0000137,21.29083 C48.9893386,21.29083 49.7987762,22.1158244 49.7987762,23.1241633 C49.7987762,23.9778315 49.2212652,24.6916275 48.4482771,24.8969879 Z" id="Locker-Copy-2"></path>
                    </g>
                </g>
            </g>
        </g>
    </g>
</svg>