<?xml version="1.0" encoding="UTF-8"?>
<svg width="208px" height="33px" viewBox="0 0 208 33" version="1.1" xmlns="http://www.w3.org/2000/svg" xmlns:xlink="http://www.w3.org/1999/xlink">
    <!-- Generator: sketchtool 52.4 (67378) - http://www.bohemiancoding.com/sketch -->
    <title>5C164062-E824-4310-8D1E-106D7A83AB0B</title>
    <desc>Created with sketchtool.</desc>
    <g id="Page-1" stroke="none" stroke-width="1" fill="none" fill-rule="evenodd">
        <g id="Login" transform="translate(-182.000000, -76.000000)" fill="#FFFFFF">
            <g id="Logotype" transform="translate(102.000000, 67.000000)">
                <path d="M92.9705882,34.6571304 C89.3140994,34.6571304 86.2382478,33.4689684 83.7429412,31.0926087 C81.2476346,28.716249 80,25.622077 80,21.81 C80,17.997923 81.2476346,14.9099394 83.7429412,12.5459565 C86.2382478,10.1819737 89.3140994,9 92.9705882,9 C97.2200212,9 100.542929,10.7203596 102.939412,14.1611304 L99.3817647,16.1661739 C98.6899965,15.2007778 97.7820644,14.4086698 96.6579412,13.7898261 C95.5338179,13.1709824 94.3047126,12.8615652 92.9705882,12.8615652 C90.5246937,12.8615652 88.4926552,13.70318 86.8744118,15.3864348 C85.2561684,17.0696896 84.4470588,19.2108566 84.4470588,21.81 C84.4470588,24.4091434 85.2561684,26.5564988 86.8744118,28.2521304 C88.4926552,29.9477621 90.5246937,30.7955652 92.9705882,30.7955652 C94.1317705,30.7955652 95.2373477,30.5727848 96.2873529,30.1272174 C97.3373582,29.6816499 98.1835262,29.1618291 98.8258824,28.5677391 L98.8258824,24.7061739 L91.4511765,24.7061739 L91.4511765,20.8817391 L103.161765,20.8817391 L103.161765,30.1643478 C100.46881,33.1595512 97.0717852,34.6571304 92.9705882,34.6571304 Z M121.336471,34.1744348 L117.445294,34.1744348 L117.445294,32.2436522 C116.061758,33.827892 114.134718,34.62 111.664118,34.62 C110.033521,34.62 108.588242,34.0939908 107.328235,33.0419565 C106.068229,31.9899223 105.438235,30.5356615 105.438235,28.6791304 C105.438235,26.7730919 106.062053,25.3250194 107.309706,24.3348696 C108.557359,23.3447197 110.008815,22.8496522 111.664118,22.8496522 C114.208836,22.8496522 116.135876,23.6170068 117.445294,25.1517391 L117.445294,22.4783478 C117.445294,21.4386905 117.062357,20.6218291 116.296471,20.0277391 C115.530584,19.4336492 114.517653,19.1366087 113.257647,19.1366087 C111.256461,19.1366087 109.490008,19.8915867 107.958235,21.4015652 L106.364706,18.6910435 C108.390598,16.7602512 110.89822,15.7948696 113.887647,15.7948696 C116.086482,15.7948696 117.87764,16.3146905 119.261176,17.3543478 C120.644713,18.3940052 121.336471,20.0401047 121.336471,22.2926957 L121.336471,34.1744348 Z M113.183529,31.9466087 C115.135304,31.9466087 116.555878,31.3277743 117.445294,30.090087 L117.445294,27.3795652 C116.555878,26.1418779 115.135304,25.5230435 113.183529,25.5230435 C112.071759,25.5230435 111.157651,25.820084 110.441176,26.4141739 C109.724702,27.0082638 109.366471,27.7879952 109.366471,28.7533913 C109.366471,29.7187874 109.724702,30.4923304 110.441176,31.0740435 C111.157651,31.6557565 112.071759,31.9466087 113.183529,31.9466087 Z M151.147647,34.1744348 L147.256471,34.1744348 L147.256471,22.4783478 C147.256471,20.3247718 146.280598,19.248 144.328823,19.248 C143.513525,19.248 142.722945,19.4831571 141.957059,19.9534783 C141.191173,20.4237995 140.598237,20.9807504 140.178235,21.6243478 L140.178235,34.1744348 L136.287059,34.1744348 L136.287059,22.4783478 C136.287059,20.3247718 135.298833,19.248 133.322353,19.248 C132.531761,19.248 131.75971,19.4831571 131.006176,19.9534783 C130.252643,20.4237995 129.653532,20.9931271 129.208823,21.6614783 L129.208823,34.1744348 L125.317647,34.1744348 L125.317647,16.2404348 L129.208823,16.2404348 L129.208823,18.6910435 C129.653532,18.0226923 130.425583,17.3729162 131.525,16.7416957 C132.624417,16.1104751 133.791758,15.7948696 135.027059,15.7948696 C137.621189,15.7948696 139.251761,16.8963948 139.918823,19.0994783 C140.487062,18.2083434 141.327053,17.4348004 142.438823,16.7788261 C143.550594,16.1228518 144.736464,15.7948696 145.996471,15.7948696 C149.430605,15.7948696 151.147647,17.601866 151.147647,21.215913 L151.147647,34.1744348 Z M157.055882,14.0497391 C156.413526,14.0497391 155.851473,13.8145821 155.369706,13.3442609 C154.887939,12.8739397 154.647059,12.304612 154.647059,11.6362609 C154.647059,10.9679097 154.887939,10.3985821 155.369706,9.92826087 C155.851473,9.45793968 156.413526,9.22278261 157.055882,9.22278261 C157.722944,9.22278261 158.291174,9.45793968 158.760588,9.92826087 C159.230002,10.3985821 159.464706,10.9679097 159.464706,11.6362609 C159.464706,12.304612 159.230002,12.8739397 158.760588,13.3442609 C158.291174,13.8145821 157.722944,14.0497391 157.055882,14.0497391 Z M159.02,34.1744348 L155.128823,34.1744348 L155.128823,16.2404348 L159.02,16.2404348 L159.02,34.1744348 Z M178.973529,34.1744348 L175.082353,34.1744348 L175.082353,22.9610435 C175.082353,20.4856688 173.88413,19.248 171.487647,19.248 C170.548819,19.248 169.671769,19.4831571 168.856471,19.9534783 C168.041172,20.4237995 167.386473,20.9931271 166.892353,21.6614783 L166.892353,34.1744348 L163.001176,34.1744348 L163.001176,16.2404348 L166.892353,16.2404348 L166.892353,18.6910435 C167.559415,17.8989236 168.448818,17.2182057 169.560588,16.6488696 C170.672358,16.0795334 171.882935,15.7948696 173.192353,15.7948696 C175.094715,15.7948696 176.533819,16.2899371 177.509706,17.280087 C178.485593,18.2702368 178.973529,19.6935559 178.973529,21.550087 L178.973529,34.1744348 Z M190.218235,41.452 C187.179396,41.452 184.684127,40.5608785 182.732353,38.7786087 L184.548235,35.9566957 C185.88236,37.491428 187.772341,38.2587826 190.218235,38.2587826 C191.700596,38.2587826 192.954407,37.8689169 193.979706,37.0891739 C195.005005,36.3094309 195.517647,35.0779504 195.517647,33.3946957 L195.517647,31.2411304 C193.985875,33.2214302 192.071188,34.2115652 189.773529,34.2115652 C187.426459,34.2115652 185.517948,33.3947038 184.047941,31.7609565 C182.577934,30.1272092 181.842941,27.874652 181.842941,25.0032174 C181.842941,22.1565365 182.577934,19.9101677 184.047941,18.2640435 C185.517948,16.6179193 187.426459,15.7948696 189.773529,15.7948696 C192.1206,15.7948696 194.035287,16.7726279 195.517647,18.7281739 L195.517647,16.2404348 L199.408823,16.2404348 L199.408823,33.2461739 C199.408823,34.7809062 199.143238,36.1114002 198.612059,37.2376957 C198.08088,38.3639911 197.35824,39.2179826 196.444118,39.7996957 C195.529995,40.3814087 194.560299,40.8022161 193.535,41.0621304 C192.509701,41.3220448 191.404123,41.452 190.218235,41.452 Z M190.922353,30.7584348 C191.811769,30.7584348 192.688819,30.5232777 193.553529,30.0529565 C194.41824,29.5826353 195.072939,29.0133077 195.517647,28.3449565 L195.517647,21.6614783 C195.072939,20.9931271 194.41824,20.4237995 193.553529,19.9534783 C192.688819,19.4831571 191.811769,19.248 190.922353,19.248 C189.39058,19.248 188.167652,19.7740092 187.253529,20.8260435 C186.339407,21.8780777 185.882353,23.2704551 185.882353,25.0032174 C185.882353,26.7359797 186.339407,28.1283571 187.253529,29.1803913 C188.167652,30.2324255 189.39058,30.7584348 190.922353,30.7584348 Z M220.415882,34.62 C216.166449,34.62 212.818836,33.3080711 210.372941,30.6841739 L212.781765,27.3424348 C214.906481,29.6197795 217.512926,30.7584348 220.601176,30.7584348 C222.256479,30.7584348 223.497937,30.4242642 224.325588,29.755913 C225.153239,29.0875619 225.567059,28.2954539 225.567059,27.3795652 C225.567059,26.4389228 225.072946,25.6901332 224.084706,25.1331739 C223.096466,24.5762146 221.898242,24.1368422 220.49,23.8150435 C219.081758,23.4932448 217.66736,23.1095674 216.246765,22.664 C214.826169,22.2184326 213.62177,21.4634546 212.633529,20.3990435 C211.645289,19.3346324 211.151176,17.96082 211.151176,16.2775652 C211.151176,14.1982505 211.984992,12.4717025 213.652647,11.0978696 C215.320302,9.72403661 217.488222,9.03713043 220.15647,9.03713043 C223.961195,9.03713043 227.0494,10.1881624 229.421176,12.4902609 L226.938235,15.7206087 C225.060579,13.8393239 222.676485,12.8986957 219.785882,12.8986957 C218.50117,12.8986957 217.482062,13.1771711 216.728529,13.7341304 C215.974996,14.2910897 215.598235,15.0398794 215.598235,15.9805217 C215.598235,16.5993654 215.863821,17.1191863 216.395,17.54 C216.926179,17.9608137 217.61176,18.3011726 218.451765,18.561087 C219.291769,18.8210013 220.224407,19.0747234 221.249706,19.3222609 C222.275005,19.5697983 223.300289,19.8730272 224.325588,20.2319565 C225.350887,20.5908859 226.283525,21.0302583 227.123529,21.550087 C227.963534,22.0699156 228.649115,22.7877635 229.180294,23.7036522 C229.711473,24.6195408 229.977059,25.7086893 229.977059,26.9711304 C229.977059,29.1989677 229.174126,31.0307175 227.568235,32.4664348 C225.962345,33.9021521 223.578251,34.62 220.415882,34.62 Z M237.627059,34.62 C236.119992,34.62 234.977357,34.223946 234.199118,33.4318261 C233.420878,32.6397062 233.031765,31.5010509 233.031765,30.0158261 L233.031765,19.6564348 L230.067059,19.6564348 L230.067059,16.2404348 L233.031765,16.2404348 L233.031765,11.3392174 L236.922941,11.3392174 L236.922941,16.2404348 L240.554706,16.2404348 L240.554706,19.6564348 L236.922941,19.6564348 L236.922941,29.0504348 C236.922941,29.6940322 237.071175,30.2076647 237.367647,30.5913478 C237.664119,30.9750309 238.084115,31.1668696 238.627647,31.1668696 C239.418239,31.1668696 239.998822,30.9564659 240.369412,30.5356522 L241.295882,33.4689565 C240.480584,34.2363227 239.257655,34.62 237.627059,34.62 Z M257.84,34.1744348 L253.948823,34.1744348 L253.948823,32.2436522 C252.565287,33.827892 250.638248,34.62 248.167647,34.62 C246.537051,34.62 245.091771,34.0939908 243.831765,33.0419565 C242.571758,31.9899223 241.941765,30.5356615 241.941765,28.6791304 C241.941765,26.7730919 242.565582,25.3250194 243.813235,24.3348696 C245.060888,23.3447197 246.512345,22.8496522 248.167647,22.8496522 C250.712366,22.8496522 252.639405,23.6170068 253.948823,25.1517391 L253.948823,22.4783478 C253.948823,21.4386905 253.565886,20.6218291 252.8,20.0277391 C252.034114,19.4336492 251.021183,19.1366087 249.761176,19.1366087 C247.75999,19.1366087 245.993537,19.8915867 244.461765,21.4015652 L242.868235,18.6910435 C244.894128,16.7602512 247.40175,15.7948696 250.391176,15.7948696 C252.590011,15.7948696 254.381169,16.3146905 255.764706,17.3543478 C257.148242,18.3940052 257.84,20.0401047 257.84,22.2926957 L257.84,34.1744348 Z M249.687059,31.9466087 C251.638833,31.9466087 253.059407,31.3277743 253.948823,30.090087 L253.948823,27.3795652 C253.059407,26.1418779 251.638833,25.5230435 249.687059,25.5230435 C248.575288,25.5230435 247.66118,25.820084 246.944706,26.4141739 C246.228232,27.0082638 245.87,27.7879952 245.87,28.7533913 C245.87,29.7187874 246.228232,30.4923304 246.944706,31.0740435 C247.66118,31.6557565 248.575288,31.9466087 249.687059,31.9466087 Z M265.712353,34.1744348 L261.821176,34.1744348 L261.821176,16.2404348 L265.712353,16.2404348 L265.712353,18.8766957 C266.404121,17.9855608 267.268818,17.2553362 268.30647,16.686 C269.344123,16.1166638 270.418818,15.832 271.530588,15.832 L271.530588,19.6935652 C271.184704,19.619304 270.777061,19.5821739 270.307647,19.5821739 C269.492349,19.5821739 268.621475,19.8235193 267.695,20.3062174 C266.768525,20.7889155 266.107649,21.3396781 265.712353,21.9585217 L265.712353,34.1744348 Z M279.73647,34.62 C276.52469,34.62 273.967656,33.6917484 272.065294,31.8352174 L273.844117,29.0133043 C274.51118,29.7064093 275.412935,30.3004903 276.549412,30.7955652 C277.685888,31.2906402 278.809994,31.5381739 279.921765,31.5381739 C281.058241,31.5381739 281.929114,31.3153935 282.534412,30.8698261 C283.139709,30.4242586 283.442353,29.8425543 283.442353,29.1246957 C283.442353,28.4810982 283.071768,27.9798424 282.330588,27.620913 C281.589408,27.2619837 280.687652,26.9773199 279.625294,26.766913 C278.562936,26.5565062 277.500593,26.2965958 276.438235,25.9871739 C275.375877,25.6777521 274.474121,25.1269895 273.732941,24.3348696 C272.991761,23.5427497 272.621176,22.5154846 272.621176,21.2530435 C272.621176,19.7183112 273.25117,18.4249473 274.511176,17.372913 C275.771183,16.3208788 277.488224,15.7948696 279.662353,15.7948696 C282.404719,15.7948696 284.727049,16.6364843 286.629412,18.3197391 L284.998823,21.0673913 C284.430585,20.4237939 283.677063,19.903973 282.738235,19.507913 C281.799407,19.1118531 280.786476,18.9138261 279.699412,18.9138261 C278.686465,18.9138261 277.877356,19.1180414 277.272059,19.5264783 C276.666762,19.9349151 276.364117,20.4609243 276.364117,21.1045217 C276.364117,21.5995967 276.629703,22.001839 277.160882,22.3112609 C277.692061,22.6206827 278.359113,22.8496514 279.162059,22.9981739 C279.965004,23.1466964 280.835877,23.3509117 281.774706,23.6108261 C282.713534,23.8707404 283.584408,24.1739693 284.387353,24.5205217 C285.190298,24.8670742 285.85735,25.4302135 286.388529,26.2099565 C286.919708,26.9896996 287.185294,27.9365162 287.185294,29.0504348 C287.185294,30.6841821 286.530595,32.0208644 285.221176,33.0605217 C283.911758,34.1001791 282.083541,34.62 279.73647,34.62 Z" id="Gaming-Stars"></path>
            </g>
        </g>
    </g>
</svg>