<?xml version="1.0" encoding="UTF-8"?>
<svg width="22px" height="20px" viewBox="0 0 22 20" version="1.1" xmlns="http://www.w3.org/2000/svg" xmlns:xlink="http://www.w3.org/1999/xlink">
    <!-- Generator: sketchtool 52.4 (67378) - http://www.bohemiancoding.com/sketch -->
    <title>1004CA63-3B94-44A8-BB26-7AB0C573EE18</title>
    <desc>Created with sketchtool.</desc>
    <g id="Page-1" stroke="none" stroke-width="1" fill="none" fill-rule="evenodd">
        <g id="Main-Page" transform="translate(-40.000000, -381.000000)" fill="#FFFFFF">
            <g id="Menu">
                <g id="Menu-1-" transform="translate(40.000000, 69.000000)">
                    <g id="Wallet-" transform="translate(0.000000, 312.000000)">
                        <g id="wallet">
                            <g>
                                <path d="M16.1375512,15.4227358 C15.084427,15.4226887 14.2276253,14.5795283 14.2276253,13.5431132 L14.2276253,10.4216038 C14.2276253,9.38518868 15.084427,8.5420283 16.1375512,8.5420283 L21.1141525,8.5420283 C21.1443007,8.5420283 21.1742571,8.54292453 21.2040697,8.54424528 L21.2040697,5.43471698 C21.2040697,4.63429245 20.5447407,3.98542453 19.7314118,3.98542453 L1.47270588,3.98542453 C0.659328976,3.98537736 0,4.63424528 0,5.43466981 L0,18.53 C0,19.3304245 0.659328976,19.9793396 1.47270588,19.9793396 L19.7314118,19.9793396 C20.5447407,19.9793396 21.2040697,19.3304717 21.2040697,18.53 L21.2040697,15.4204717 C21.1742571,15.4218396 21.1443007,15.4227358 21.1141525,15.4227358 L16.1375512,15.4227358 Z" id="Path"></path>
                                <path d="M21.1141525,9.57193396 L16.1375512,9.57193396 C15.6607407,9.57193396 15.274183,9.95235849 15.274183,10.4216038 L15.274183,13.5431132 C15.274183,14.0123585 15.6607407,14.392783 16.1375512,14.392783 L21.1141525,14.392783 C21.590963,14.392783 21.9775207,14.0124057 21.9775207,13.5431132 L21.9775207,10.4216038 C21.9775207,9.95231132 21.590963,9.57193396 21.1141525,9.57193396 Z M17.8524009,13.2086792 C17.1641699,13.2086792 16.6062614,12.6596226 16.6062614,11.9823113 C16.6062614,11.305 17.1641699,10.7559434 17.8524009,10.7559434 C18.5406318,10.7559434 19.0985403,11.305 19.0985403,11.9823113 C19.0985403,12.6596226 18.5406318,13.2086792 17.8524009,13.2086792 Z" id="Shape" fill-rule="nonzero"></path>
                                <path d="M17.1671416,1.33061321 C16.8376688,0.349198113 15.7621612,-0.183537736 14.7649717,0.140707547 L7.28338998,2.57320755 L17.5842789,2.57320755 L17.1671416,1.33061321 Z" id="Path"></path>
                            </g>
                        </g>
                    </g>
                </g>
            </g>
        </g>
    </g>
</svg>