<?xml version="1.0" encoding="UTF-8"?>
<svg width="22px" height="19px" viewBox="0 0 22 19" version="1.1" xmlns="http://www.w3.org/2000/svg" xmlns:xlink="http://www.w3.org/1999/xlink">
    <!-- Generator: sketchtool 52.4 (67378) - http://www.bohemiancoding.com/sketch -->
    <title>9FFF6B68-76A8-4275-B0C6-25E5BFB8CC22</title>
    <desc>Created with sketchtool.</desc>
    <g id="Page-1" stroke="none" stroke-width="1" fill="none" fill-rule="evenodd">
        <g id="Main-Page" transform="translate(-40.000000, -320.000000)" fill="#FFFFFF" fill-rule="nonzero">
            <g id="Menu">
                <g id="Menu-1-" transform="translate(40.000000, 69.000000)">
                    <g id="Friends" transform="translate(0.000000, 251.000000)">
                        <g id="Shape">
                            <path d="M13.1334568,3.33114706 C14.1397531,3.98022059 14.8453827,5.07858824 14.9738519,6.35354412 C15.3842469,6.55080882 15.8397284,6.66425 16.322642,6.66425 C18.0856296,6.66425 19.5145432,5.19426471 19.5145432,3.38088235 C19.5145432,1.56722059 18.0856296,0.0972352941 16.322642,0.0972352941 C14.5764938,0.0977941176 13.1600741,1.54151471 13.1334568,3.33114706 Z M11.0423704,10.0543529 C12.805358,10.0543529 14.2342716,8.58408824 14.2342716,6.77070588 C14.2342716,4.95732353 12.8050864,3.48733824 11.0423704,3.48733824 C9.27965432,3.48733824 7.84992593,4.95760294 7.84992593,6.77098529 C7.84992593,8.58436765 9.27965432,10.0543529 11.0423704,10.0543529 Z M12.396321,10.2781618 L9.68787654,10.2781618 C7.43437037,10.2781618 5.60103704,12.1644706 5.60103704,14.48275 L5.60103704,17.8901765 L5.60945679,17.9435441 L5.83760494,18.0170294 C7.98817284,18.7082941 9.85654321,18.9388088 11.3943704,18.9388088 C14.3980494,18.9388088 16.139037,18.0578235 16.246321,18.0016618 L16.4595309,17.8907353 L16.4823457,17.8907353 L16.4823457,14.48275 C16.4831605,12.1644706 14.6498272,10.2781618 12.396321,10.2781618 Z M17.6771358,6.88833824 L14.9896049,6.88833824 C14.9605432,7.99452941 14.5015309,8.99063235 13.7755309,9.70704412 C15.7786173,10.3197941 17.2441975,12.2306912 17.2441975,14.4877794 L17.2441975,15.5378088 C19.8977778,15.4377794 21.4269136,14.6640882 21.527679,14.6121176 L21.7408889,14.5009118 L21.7637037,14.5009118 L21.7637037,11.0923676 C21.7637037,8.77436765 19.9303704,6.88833824 17.6771358,6.88833824 Z M5.44160494,6.66480882 C6.06602469,6.66480882 6.64698765,6.47732353 7.1391358,6.15795588 C7.29558025,5.10820588 7.84259259,4.19089706 8.624,3.56613235 C8.62725926,3.50466176 8.63296296,3.44375 8.63296296,3.38172059 C8.63296296,1.56805882 7.20377778,0.0980735294 5.44160494,0.0980735294 C3.67834568,0.0980735294 2.2497037,1.56805882 2.2497037,3.38172059 C2.2497037,5.19454412 3.67834568,6.66480882 5.44160494,6.66480882 Z M8.30812346,9.70704412 C7.58565432,8.99426471 7.1282716,8.00347059 7.0948642,6.90398529 C6.99518519,6.89644118 6.89659259,6.88833824 6.79501235,6.88833824 L4.08683951,6.88833824 C1.83333333,6.88833824 -7.10542736e-15,8.77436765 -7.10542736e-15,11.0923676 L-7.10542736e-15,14.5003529 L0.00841975309,14.5528824 L0.236567901,14.6269265 C1.96180247,15.181 3.50153086,15.4363824 4.83891358,15.5168529 L4.83891358,14.4877794 C4.83945679,12.2306912 6.30449383,10.3203529 8.30812346,9.70704412 Z"></path>
                        </g>
                    </g>
                </g>
            </g>
        </g>
    </g>
</svg>