<?xml version="1.0" encoding="UTF-8"?>
<svg width="18px" height="23px" viewBox="0 0 18 23" version="1.1" xmlns="http://www.w3.org/2000/svg" xmlns:xlink="http://www.w3.org/1999/xlink">
    <!-- Generator: sketchtool 52.4 (67378) - http://www.bohemiancoding.com/sketch -->
    <title>C5C12BBB-E857-4BC1-A544-C42A0B6F6F65</title>
    <desc>Created with sketchtool.</desc>
    <g id="Page-1" stroke="none" stroke-width="1" fill="none" fill-rule="evenodd">
        <g id="Main-Page" transform="translate(-42.000000, -443.000000)" fill="#FFFFFF">
            <g id="Menu">
                <g id="Menu-1-" transform="translate(40.000000, 69.000000)">
                    <g id="Leaderboard" transform="translate(2.000000, 0.000000)">
                        <g id="Leaderboard-" transform="translate(0.000000, 374.000000)">
                            <g>
                                <path d="M12.0831228,2.82001797 C12.2110027,2.69542372 12.2561445,2.51256409 12.2009857,2.34258007 C12.1456968,2.17259605 12.0016856,2.05125321 11.8247613,2.025502 L10.2516957,1.7969925 C10.1846986,1.78723825 10.1268079,1.74522996 10.0968869,1.68449351 L9.39361257,0.259593039 C9.31464707,0.0994933241 9.15437443,0 8.97575889,0 C8.79727345,0 8.6370008,0.0994933241 8.5580353,0.259593039 L7.85463093,1.68462357 C7.8247099,1.74536001 7.76668912,1.78736831 7.69969203,1.79712255 L6.12662643,2.02563206 C5.94983217,2.05125321 5.80569086,2.17272611 5.75040201,2.34271013 C5.69524324,2.51269415 5.74038497,2.69555377 5.86826484,2.82014803 L7.00643479,3.92927099 C7.05495889,3.97661161 7.07720453,4.04476128 7.06575648,4.11135028 L6.79724776,5.67749225 C6.77344103,5.81535228 6.80960645,5.94944067 6.89884917,6.05517671 C7.03752664,6.21995847 7.27962679,6.27016033 7.47320285,6.16845604 L8.8800116,5.42895402 C8.93881293,5.3981306 9.01283495,5.39839072 9.07150619,5.42895402 L10.478445,6.16845604 C10.5468731,6.20448173 10.6198544,6.22268966 10.6951774,6.22268966 C10.832684,6.22268966 10.9630356,6.16156304 11.0526686,6.05517671 C11.1420414,5.94944067 11.1780768,5.81509217 11.15427,5.67749225 L10.8856312,4.11135028 C10.8741832,4.04463122 10.8964288,3.97661161 10.9449529,3.92927099 L12.0831228,2.82001797 Z" id="Path"></path>
                                <rect id="Rectangle" fill-rule="nonzero" x="6.54545455" y="7.93103448" width="4.90909091" height="15.0689655" rx="2"></rect>
                                <rect id="Rectangle" fill-rule="nonzero" x="0" y="10.3103448" width="4.90909091" height="12.6896552" rx="2"></rect>
                                <rect id="Rectangle" fill-rule="nonzero" x="13.0909091" y="12.6896552" width="4.90909091" height="10.3103448" rx="2"></rect>
                            </g>
                        </g>
                    </g>
                </g>
            </g>
        </g>
    </g>
</svg>