<?xml version="1.0" encoding="UTF-8"?>
<svg width="23px" height="14px" viewBox="0 0 23 14" version="1.1" xmlns="http://www.w3.org/2000/svg" xmlns:xlink="http://www.w3.org/1999/xlink">
    <!-- Generator: sketchtool 52.4 (67378) - http://www.bohemiancoding.com/sketch -->
    <title>BEC0FCB6-AF9F-4988-BCF7-D4BD73D87D74</title>
    <desc>Created with sketchtool.</desc>
    <g id="Page-1" stroke="none" stroke-width="1" fill="none" fill-rule="evenodd">
        <g id="Main-Page" transform="translate(-40.000000, -137.000000)" fill="#FFFFFF">
            <g id="Menu">
                <g id="Menu-1-" transform="translate(40.000000, 69.000000)">
                    <g id="Game-Center" transform="translate(0.000000, 66.000000)">
                        <g id="Gamepad-menu" transform="translate(0.000000, 2.000000)">
                            <g id="Gamepad-">
                                <path d="M20.9436084,2.47587742 C17.9057379,-2.11067677 13.3294173,1.0802438 13.3294173,1.0802438 C13.0326212,1.28637664 12.4853499,1.45585488 12.113497,1.45664315 L10.8877122,1.45743142 C10.5158593,1.45782556 9.96858801,1.28834732 9.67222086,1.08221448 C9.67222086,1.08221448 5.09547136,-2.10949437 2.05717191,2.47705982 C-0.980269747,7.06203747 0.243799512,12.0553394 0.243799512,12.0553394 C0.458247525,13.2779476 1.16506818,14.093808 2.49893482,13.9913328 C3.82894139,13.8892517 6.71584055,10.6987252 6.71584055,10.6987252 C6.95430674,10.4358369 7.45397061,10.2210331 7.82496567,10.2210331 L15.1736702,10.2198507 C15.5450941,10.2198507 16.0443291,10.4346545 16.2823664,10.6975428 C16.2823664,10.6975428 19.1696945,13.8880693 20.5018455,13.9901503 C21.8339966,14.0926256 22.5425328,13.2759769 22.7556941,12.054157 C22.7552652,12.054157 23.981479,7.06164334 20.9436084,2.47587742 Z M8.5921091,6.16143488 L6.96848018,6.16143488 L6.96848018,7.55053248 C6.96848018,7.55053248 6.62466328,7.78355252 6.09258674,7.77766818 C5.56139404,7.77060697 5.32098736,7.52346449 5.32098736,7.52346449 L5.32098736,6.16182717 L3.78751095,6.16182717 C3.78751095,6.16182717 3.59615784,5.98765057 3.54489465,5.52906398 C3.49451531,5.0704774 3.75657627,4.69976369 3.75657627,4.69976369 L5.38064711,4.69976369 L5.38064711,3.25849157 C5.38064711,3.25849157 5.71474168,3.09961427 6.19511311,3.11177525 C6.67592647,3.12511309 7.02813993,3.28555955 7.02813993,3.28555955 L7.02151107,4.6993714 L8.55498748,4.6993714 C8.55498748,4.6993714 8.82279345,5.00457274 8.84488965,5.373325 C8.86698585,5.74246955 8.5921091,6.16143488 8.5921091,6.16143488 Z M15.4800847,7.77777778 C14.7457702,7.77777778 14.1538462,7.25582684 14.1538462,6.61111111 C14.1538462,5.96519181 14.7457702,5.44444444 15.4800847,5.44444444 C16.2112044,5.44444444 16.8076923,5.96519181 16.8076923,6.61111111 C16.8076923,7.25622803 16.2112044,7.77777778 15.4800847,7.77777778 Z M15.4800847,4.66666667 C14.7457702,4.66666667 14.1538462,4.14502723 14.1538462,3.50020063 C14.1538462,2.85417025 14.7457702,2.33333333 15.4800847,2.33333333 C16.2112044,2.33333333 16.8076923,2.85417025 16.8076923,3.50020063 C16.8076923,4.14542849 16.2112044,4.66666667 15.4800847,4.66666667 Z M19.0185462,6.22222222 C18.2842318,6.22222222 17.6923077,5.70067247 17.6923077,5.05555556 C17.6923077,4.41003744 18.2842318,3.88888889 19.0185462,3.88888889 C19.749666,3.88888889 20.3461538,4.41003744 20.3461538,5.05555556 C20.3461538,5.70067247 19.749666,6.22222222 19.0185462,6.22222222 Z" id="Shape" fill-rule="nonzero"></path>
                            </g>
                        </g>
                    </g>
                </g>
            </g>
        </g>
    </g>
</svg>