<?xml version="1.0" encoding="UTF-8"?>
<svg width="20px" height="20px" viewBox="0 0 20 20" version="1.1" xmlns="http://www.w3.org/2000/svg" xmlns:xlink="http://www.w3.org/1999/xlink">
    <!-- Generator: sketchtool 52.4 (67378) - http://www.bohemiancoding.com/sketch -->
    <title>9B01678B-18A8-42C1-912F-C97CD0859EFF</title>
    <desc>Created with sketchtool.</desc>
    <g id="Page-1" stroke="none" stroke-width="1" fill="none" fill-rule="evenodd">
        <g id="Main-Page" transform="translate(-52.000000, -918.000000)" fill="#FFFFFF" fill-rule="nonzero">
            <g id="Menu">
                <g id="Menu-1-" transform="translate(40.000000, 69.000000)">
                    <g id="Settings-" transform="translate(12.000000, 849.000000)">
                        <g id="Settings">
                            <path d="M8.04878052,0 L7.57621954,2.92151129 C6.57073174,3.23426939 5.66517077,3.74169026 4.88565857,4.38953205 L2.00458541,3.2776159 L0,6.46802018 L2.40092687,8.35029903 C2.27463419,8.88176408 2.20273175,9.4320896 2.20273175,10.0000012 C2.20273175,10.5679081 2.27463419,11.1182336 2.40092687,11.6496986 L0,13.5319775 L2.00458541,16.7223725 L4.88565857,15.6104656 C5.66514638,16.2583028 6.57073174,16.7657446 7.57621954,17.0784887 L8.04878052,20 L11.9512195,20 L12.4237805,17.0784887 C13.4292439,16.7657446 14.3348537,16.2583028 15.1143415,15.6104656 L17.9954146,16.7223725 L20,13.5319775 L17.5990732,11.6496986 C17.7253659,11.1182336 17.7972683,10.5679081 17.7972683,10.0000012 C17.7972683,9.43208728 17.7253659,8.88176176 17.5990732,8.3502967 L20,6.46801785 L17.9954146,3.2776159 L15.1143415,4.38952972 C14.3348537,3.74168794 13.4292439,3.23426707 12.4237805,2.92150896 L11.9512195,0 L8.04878052,0 Z M10,5.88235294 C12.2741307,5.88235294 14.1176471,7.72586826 14.1176471,10.0000023 C14.1176471,12.2741089 12.2741307,14.1176471 10,14.1176471 C7.72589216,14.1176471 5.88235294,12.2741089 5.88235294,10.0000023 C5.88235294,7.72586826 7.72589216,5.88235294 10,5.88235294 Z" id="Shape"></path>
                        </g>
                    </g>
                </g>
            </g>
        </g>
    </g>
</svg>