<?xml version="1.0" encoding="UTF-8"?>
<svg width="22px" height="21px" viewBox="0 0 22 21" version="1.1" xmlns="http://www.w3.org/2000/svg" xmlns:xlink="http://www.w3.org/1999/xlink">
    <!-- Generator: sketchtool 52.4 (67378) - http://www.bohemiancoding.com/sketch -->
    <title>82518179-F39D-4576-90AE-0999981B16AD</title>
    <desc>Created with sketchtool.</desc>
    <g id="Page-1" stroke="none" stroke-width="1" fill="none" fill-rule="evenodd">
        <g id="Main-Page" transform="translate(-41.000000, -257.000000)" fill="#FFFFFF" fill-rule="nonzero">
            <g id="Menu">
                <g id="Menu-1-" transform="translate(40.000000, 69.000000)">
                    <g id="Messages" transform="translate(1.000000, 188.000000)">
                        <path d="M11.0000148,0 C4.93462293,0 2.95642257e-05,4.46231579 2.95642257e-05,9.94736842 C2.95642257e-05,11.8646316 0.603562087,13.7218421 1.74829388,15.3277895 C1.53159417,17.7361579 0.950794953,19.5241053 0.107462753,20.3711053 C-0.00400376369,20.4831053 -0.0318703929,20.6544211 0.0385295125,20.7958947 C0.100862762,20.9222632 0.229195923,21 0.366695738,21 C0.383562382,21 0.400429026,20.9988947 0.417662336,20.9963158 C0.566162137,20.9753158 4.0157575,20.4764737 6.51092081,19.0293158 C7.92771891,19.6036842 9.43691688,19.8947368 11.0000148,19.8947368 C17.0654066,19.8947368 22,15.4324211 22,9.94736842 C22,4.46231579 17.0654066,0 11.0000148,0 Z M5.5,10.8888889 C4.63335714,10.8888889 3.92857143,10.1912222 3.92857143,9.33333333 C3.92857143,8.47544444 4.63335714,7.77777778 5.5,7.77777778 C6.36664286,7.77777778 7.07142857,8.47544444 7.07142857,9.33333333 C7.07142857,10.1912222 6.36664286,10.8888889 5.5,10.8888889 Z M11,10.8888889 C10.1333571,10.8888889 9.42857143,10.1912222 9.42857143,9.33333333 C9.42857143,8.47544444 10.1333571,7.77777778 11,7.77777778 C11.8666429,7.77777778 12.5714286,8.47544444 12.5714286,9.33333333 C12.5714286,10.1912222 11.8666429,10.8888889 11,10.8888889 Z M16.5,10.8888889 C15.6333571,10.8888889 14.9285714,10.1912222 14.9285714,9.33333333 C14.9285714,8.47544444 15.6333571,7.77777778 16.5,7.77777778 C17.3666429,7.77777778 18.0714286,8.47544444 18.0714286,9.33333333 C18.0714286,10.1912222 17.3666429,10.8888889 16.5,10.8888889 Z"></path>
                    </g>
                </g>
            </g>
        </g>
    </g>
</svg>