<?xml version="1.0" encoding="UTF-8"?>
<svg width="22px" height="23px" viewBox="0 0 22 23" version="1.1" xmlns="http://www.w3.org/2000/svg" xmlns:xlink="http://www.w3.org/1999/xlink">
    <!-- Generator: Sketch 52.4 (67378) - http://www.bohemiancoding.com/sketch -->
    <title>Challenges icon</title>
    <desc>Created with Sketch.</desc>
    <g id="Page-1" stroke="none" stroke-width="1" fill="none" fill-rule="evenodd">
        <g id="Main-Page" transform="translate(-40.000000, -194.000000)" fill="#FFFFFF">
            <g id="Menu">
                <g id="Menu-1-" transform="translate(40.000000, 69.000000)">
                    <g id="Challenges" transform="translate(0.000000, 124.000000)">
                        <g id="Path" transform="translate(0.000000, 1.000000)">
                            <path d="M3.33879963,17.4324631 C3.03801723,16.711631 2.82024889,15.9659143 2.68660092,15.2019978 L2.06074034,15.8363594 C1.9410486,15.9576769 1.87377785,16.1222081 1.87377785,16.2937691 C1.87377785,16.4653301 1.9410486,16.6299045 2.06074034,16.7511788 L2.57852519,17.2759967 L0.670903521,19.2094865 C0.307318056,19.5781399 0.107080116,20.0681539 0.107080116,20.5893491 C0.107080116,21.1105875 0.307360606,21.6005584 0.670946071,21.9690824 C1.03453154,22.3376496 1.51802149,22.5406074 2.03223218,22.5406074 C2.54644287,22.5406074 3.02993282,22.3376496 3.39351829,21.9690824 L5.08592459,20.2536882 C4.35705168,19.4127893 3.7703792,18.4667024 3.33879963,17.4324631 Z" fill-rule="evenodd"></path>
                            <path d="M21.7054183,0.648942549 C21.5175623,0.458534869 21.2330338,0.406005638 20.9910123,0.51697256 L19.2756292,1.3036172 C19.2055927,1.33574715 19.141811,1.38042719 19.0874328,1.43558719 L16.8286501,3.72505086 C16.8366494,3.72845793 16.8446913,3.73156311 16.8526906,3.73501331 C17.6799379,4.08960718 18.4499562,4.5476638 19.1539802,5.10189462 L20.9292729,3.30248814 C20.9836512,3.24737126 21.027775,3.18276634 21.0594744,3.11173544 L21.8356198,1.37305239 C21.9451422,1.12774347 21.8932744,0.83935023 21.7054183,0.648942549 Z" fill-rule="evenodd"></path>
                            <path d="M12.8388687,4.20700009 C7.84930178,4.20700009 3.80446134,8.3067815 3.80446134,13.3641216 C3.80446134,18.4214617 7.84930178,22.5212432 12.8388687,22.5212432 C17.8284357,22.5212432 21.8732761,18.4214617 21.8732761,13.3641216 C21.8732761,8.3067815 17.8284357,4.20700009 12.8388687,4.20700009 Z M12.8388687,18.8119377 C9.87044551,18.8119377 7.46401607,16.3728649 7.46401607,13.3640785 C7.46401607,10.3552921 9.87040296,7.91621933 12.8388687,7.91621933 C15.8073345,7.91621933 18.2137214,10.3552921 18.2137214,13.3640785 C18.2137214,16.3728649 15.8073345,18.8119377 12.8388687,18.8119377 Z" id="Shape" fill-rule="nonzero"></path>
                            <path d="M16.1972155,12.3987568 C16.1221582,12.1645317 15.9223883,11.9938332 15.6819837,11.9584687 L14.1129284,11.7273919 L13.4112446,10.2862451 C13.303722,10.0654325 13.0818264,9.92561336 12.8389113,9.92561336 C12.5959962,9.92561336 12.3741006,10.0654325 12.266578,10.2862451 L11.5648942,11.7273919 L9.99583888,11.9584687 C9.75543421,11.9938332 9.55566432,12.1645317 9.480607,12.3987137 C9.40550714,12.6329389 9.46814,12.8900216 9.64208235,13.0618845 L10.7774732,14.1836725 L10.5094539,15.7676143 C10.4683936,16.0103355 10.5668106,16.2556013 10.7633467,16.400337 C10.9599254,16.5451159 11.2204985,16.5641782 11.4355012,16.4496317 L12.8389113,15.7017587 L14.2423214,16.4496317 C14.3357175,16.4993577 14.4376661,16.5239403 14.5392743,16.5239403 C14.6716033,16.5239403 14.803294,16.4822792 14.9144758,16.4003802 C15.111012,16.2556876 15.2094715,16.0103787 15.1683687,15.7676574 L14.9003494,14.1837156 L16.0357402,13.0619276 C16.2096826,12.8900647 16.2723154,12.632982 16.1972155,12.3987568 Z" fill-rule="evenodd"></path>
                        </g>
                    </g>
                </g>
            </g>
        </g>
    </g>
</svg>