<?xml version="1.0" encoding="UTF-8"?>
<svg width="150px" height="65px" viewBox="0 0 150 65" version="1.1" xmlns="http://www.w3.org/2000/svg" xmlns:xlink="http://www.w3.org/1999/xlink">
    <!-- Generator: sketchtool 52.4 (67378) - http://www.bohemiancoding.com/sketch -->
    <title>1DFCA449-065F-42CE-B715-AD5152D4D15B</title>
    <desc>Created with sketchtool.</desc>
    <g id="Page-1" stroke="none" stroke-width="1" fill="none" fill-rule="evenodd">
        <g id="Enter-New-Password" transform="translate(-644.000000, -326.000000)" fill="#EC2E46">
            <g id="New-Password" transform="translate(644.000000, 326.000000)">
                <g id="Group">
                    <path d="M0.0209550901,0.644545043 L0.0209550901,64.9884746 L149.482708,64.9884746 L149.482708,0.644545043 L0.0209550901,0.644545043 Z M5.35887465,6.00647162 L144.144789,6.00647162 L144.144789,59.6263454 L5.35887465,59.6263454 L5.35887465,6.00647162 Z" id="Shape" fill-rule="nonzero"></path>
                    <polygon id="Path" points="138.804802 43.5377284 138.804802 48.9000603 112.11554 48.9000603 112.11554 43.5377284"></polygon>
                    <path d="M94.2769649,37.4579871 L94.2769649,46.2188944 C94.2769649,47.6996615 93.0819556,48.9000603 91.607837,48.9000603 C90.1337183,48.9000603 88.938709,47.6996615 88.938709,46.2188944 L88.938709,37.4579871 L81.3852585,41.8374274 C80.1114344,42.5515132 78.5028438,42.105978 77.773345,40.8370272 C77.0438462,39.5680764 77.463724,37.9458658 78.7161346,37.1945316 L86.2716026,32.8130647 L78.7161346,28.4336243 C77.440632,27.692595 77.0040201,26.0536119 77.7406341,24.7717251 C78.4772481,23.4898383 80.1084993,23.0498594 81.3852585,23.7887019 L88.938709,28.1701688 L88.938709,19.4092615 C88.938709,17.9284944 90.1337183,16.7280955 91.607837,16.7280955 C93.0819556,16.7280955 94.2769649,17.9284944 94.2769649,19.4092615 L94.2769649,28.1701688 L101.830421,23.7887019 C103.107181,23.0498594 104.738432,23.4898383 105.475046,24.7717251 C106.21166,26.0536119 105.775048,27.692595 104.499545,28.4336243 L96.9460969,32.8130647 L104.499545,37.1945316 C105.752557,37.945594 106.172866,39.5682378 105.443179,40.8375165 C104.713491,42.1067953 103.104311,42.5521716 101.830421,41.8374274 L94.2769649,37.4579871 Z" id="Path"></path>
                    <path d="M55.2245788,37.4579871 L55.2245788,46.2188944 C55.2609307,47.672889 56.4447751,48.8325822 57.892698,48.8325822 C59.3406208,48.8325822 60.5244652,47.672889 60.5608172,46.2188944 L60.5608172,37.4579871 L68.1162851,41.8374274 C69.3883811,42.5342714 70.9816131,42.0842905 71.7057992,40.8236309 C72.4299854,39.5629714 72.0205707,37.9521692 70.7833976,37.1945316 L63.2299491,32.8130647 L70.7833976,28.4336243 C72.0589925,27.6931951 72.4961213,26.0545971 71.7600333,24.7726595 C71.0239453,23.4907219 69.3930532,23.0503159 68.1162851,23.7887019 L60.5608172,28.1701688 L60.5608172,19.4092615 C60.5244652,17.9552669 59.3406208,16.7955737 57.892698,16.7955737 C56.4447751,16.7955737 55.2609307,17.9552669 55.2245788,19.4092615 L55.2245788,28.1701688 L47.6711303,23.7887019 C46.3943555,23.0496892 44.7629513,23.4896259 44.0262874,24.7715976 C43.2896236,26.0535693 43.7263462,27.6926648 45.0020024,28.4336243 L52.5554549,32.8130647 L45.0020024,37.1945316 C43.74955,37.945848 43.329643,39.5680896 44.059156,40.8370633 C44.788669,42.1060369 46.3973016,42.5515601 47.6711303,41.8374274 L55.2245788,37.4579871 Z" id="Path"></path>
                    <path d="M13.9549785,23.7887019 C12.6782037,23.0496892 11.0467995,23.4896259 10.3101357,24.7715976 C9.57347183,26.0535693 10.0101945,27.6926648 11.2858506,28.4336243 L18.8393031,32.8130647 L11.2858506,37.1945316 C10.0333982,37.945848 9.61349121,39.5680896 10.3430042,40.8370633 C11.0725173,42.1060369 12.6811498,42.5515601 13.9549785,41.8374274 L21.508431,37.4579871 L21.508431,46.2188944 C21.508431,47.6996615 22.7034403,48.9000603 24.177559,48.9000603 C25.6516776,48.9000603 26.8466869,47.6996615 26.8466869,46.2188944 L26.8466869,37.4579871 L34.4001374,41.8374274 C35.674032,42.5522197 37.2832549,42.1068557 38.0129568,40.8375535 C38.7426587,39.5682513 38.3223194,37.9455757 37.0692653,37.1945316 L29.5158149,32.8130647 L37.0692653,28.4336243 C38.3449215,27.6926648 38.7816441,26.0535693 38.0449803,24.7715976 C37.3083164,23.4896259 35.6769122,23.0496892 34.4001374,23.7887019 L26.8466869,28.1701688 L26.8466869,19.4092615 C26.8466868,17.9284945 25.6516776,16.7280957 24.177559,16.7280957 C22.7034404,16.7280957 21.5084311,17.9284945 21.508431,19.4092615 L21.508431,28.1701688 L13.9549785,23.7887019 Z" id="Path"></path>
                </g>
            </g>
        </g>
    </g>
</svg>