<?xml version="1.0" encoding="UTF-8"?>
<svg width="229px" height="218px" viewBox="0 0 229 218" version="1.1" xmlns="http://www.w3.org/2000/svg" xmlns:xlink="http://www.w3.org/1999/xlink">
    <!-- Generator: Sketch 52.4 (67378) - http://www.bohemiancoding.com/sketch -->
    <title>noun_message_850688</title>
    <desc>Created with Sketch.</desc>
    <g id="ðŸ©-Approved-Screens" stroke="none" stroke-width="1" fill="none" fill-rule="evenodd">
        <g id="Messages" transform="translate(-911.000000, -381.000000)" fill="#464C5F" fill-rule="nonzero">
            <g id="noun_message_850688" transform="translate(911.000000, 381.000000)">
                <path d="M15.0325341,125.329177 C16.549333,132.633912 20.8978473,139.034734 27.1209307,143.122764 C33.3440141,147.210795 40.9315943,148.650961 48.2135778,147.126269 L53.3543029,146.048133 L57.2098467,164.634255 C58.1401073,169.095615 61.6672207,172.550064 66.1360148,173.37653 C66.8296785,173.504533 67.533741,173.567306 68.2390387,173.564032 C72.0098612,173.556169 75.5232777,171.644366 77.5858116,168.478043 L98.4291151,136.579289 L153.224571,125.118238 C160.50724,123.596843 166.888726,119.235153 170.964407,112.993214 C175.040089,106.751275 176.475904,99.1407046 174.955818,91.836657 L160.515054,22.3906545 C158.998255,15.0859195 154.649741,8.68509806 148.426657,4.59706756 C142.203574,0.509037066 134.615994,-0.931128871 127.33401,0.593562986 L22.3230169,22.5781564 C15.040348,24.0995511 8.65886213,28.4612413 4.58318075,34.7031803 C0.507499368,40.9451194 -0.928316119,48.5556895 0.591769952,55.8597371 L15.0325341,125.329177 Z M24.706444,34.0860832 L129.740804,12.0780521 C138.580262,10.2302211 147.240495,15.9162937 149.088624,24.7813033 L163.576122,94.2273058 C164.452141,98.4917414 163.602242,102.93056 161.213614,106.566121 C158.824985,110.201683 155.093548,112.73579 150.841144,113.610311 L93.6622609,125.563555 C92.1455836,125.882724 90.8174933,126.793283 89.9702856,128.09483 L68.4493411,161.142033 L63.6123861,137.891802 C63.2990701,136.348025 62.3791637,134.995838 61.0602311,134.140344 C59.7412985,133.28485 58.1344708,132.998131 56.6023065,133.344882 L45.736683,135.688655 C36.9292397,137.478301 28.3317682,131.806033 26.4823308,122.985404 L12.0415667,53.4690883 C11.1499364,49.207758 11.983693,44.765693 14.3591917,41.1213106 C16.7346904,37.4769281 20.4570742,34.9291692 24.706444,34.0392078 L24.706444,34.0860832 Z M43.3999898,60.2660309 C43.0542866,58.7292241 43.3401392,57.1175279 44.193049,55.7945989 C45.0459587,54.47167 46.3940607,53.5489764 47.9331746,53.234711 L116.024415,38.9845694 C119.08489,38.544499 121.957237,40.572501 122.57668,43.6107534 C123.196122,46.6490057 121.348123,49.6452387 118.361108,50.4456208 L50.3633356,64.7660756 C48.8311712,65.1128262 47.2243435,64.8261075 45.9054109,63.9706134 C44.5864783,63.1151194 43.6665719,61.7629327 43.3532559,60.2191554 L43.3999898,60.2660309 Z M127.520946,65.5629585 C127.866649,67.0997652 127.580796,68.7114615 126.727886,70.0343904 C125.874977,71.3573194 124.526875,72.280013 122.987761,72.5942783 L54.9198873,86.7037935 C51.8594123,87.143864 48.9870652,85.115862 48.3676226,82.0776096 C47.7481799,79.0393572 49.5961799,76.0431242 52.5831941,75.2427422 L120.674435,60.9926006 C123.820848,60.3580878 126.888375,62.3883713 127.544313,65.5395207 L127.520946,65.5629585 Z M110.626654,91.9538457 C110.972357,93.4906525 110.686504,95.1023487 109.833595,96.4252776 C108.980685,97.7482066 107.632583,98.6709002 106.093469,98.9851655 L59.3596045,108.735262 C56.2991294,109.175333 53.4267823,107.147331 52.8073397,104.109078 C52.1878971,101.070826 54.035897,98.0745931 57.0229112,97.274211 L103.756776,87.5241142 C106.86632,86.8831363 109.917054,88.8502645 110.626654,91.9538457 Z M228.536194,129.454218 L217.834139,181.017231 C216.626455,186.823479 213.168263,191.910529 208.220595,195.158895 C203.272927,198.407261 197.241229,199.550749 191.452872,198.337715 L189.116179,197.845523 L186.569183,210.150333 C185.756037,214.053993 182.680138,217.082924 178.773959,217.826526 C174.86778,218.570128 170.899368,216.882192 168.716847,213.548804 L153.621809,190.251697 L113.594254,181.884427 C101.547565,179.350338 93.8213765,167.510964 96.3260912,155.423226 C96.634003,153.268854 98.1070275,151.463158 100.151436,150.733957 C102.195844,150.004756 104.474765,150.472205 106.069638,151.94789 C107.664511,153.423576 108.312538,155.664339 107.752521,157.767 C106.57215,163.518192 110.248981,169.144443 115.977681,170.353062 L158.365296,179.235963 C159.881974,179.555132 161.210064,180.465692 162.057271,181.767238 L176.077431,203.165888 L178.90483,189.525128 C179.218146,187.98135 180.138052,186.629164 181.456985,185.77367 C182.775917,184.918176 184.382745,184.631457 185.914909,184.978207 L193.976501,186.665724 C196.731212,187.240857 199.600878,186.69474 201.954128,185.147525 C204.307379,183.600311 205.951422,181.178757 206.524543,178.415642 L217.226598,126.85263 C217.799994,124.089572 217.255526,121.211211 215.712986,118.850831 C214.170446,116.49045 211.756207,114.841426 209.001438,114.266567 L191.85011,110.821221 C188.863096,110.020839 187.015096,107.024606 187.634539,103.986353 C188.253981,100.948101 191.126328,98.9200988 194.186803,99.3601693 L211.19793,102.922705 C223.26203,105.424298 231.022941,117.258304 228.536194,129.360467 L228.536194,129.454218 Z" id="Shape"></path>
            </g>
        </g>
    </g>
</svg>