<?xml version="1.0" encoding="UTF-8"?>
<svg width="64px" height="66px" viewBox="0 0 64 66" version="1.1" xmlns="http://www.w3.org/2000/svg" xmlns:xlink="http://www.w3.org/1999/xlink">
    <!-- Generator: sketchtool 52.4 (67378) - http://www.bohemiancoding.com/sketch -->
    <title>A4179909-088E-4470-B0F2-3185006EEF29</title>
    <desc>Created with sketchtool.</desc>
    <g id="Page-1" stroke="none" stroke-width="1" fill="none" fill-rule="evenodd">
        <g id="Notification-expired-" transform="translate(-810.000000, -249.000000)" fill="#F44A4A">
            <g id="Card" transform="translate(689.000000, 226.000000)">
                <g id="Notification-Expired-" transform="translate(121.000000, 23.000000)">
                    <g>
                        <path d="M62.6206897,33.1484767 C61.862069,33.1484767 61.1724138,33.7593521 61.1724138,34.5738527 C61.1724138,50.3887389 48.0689655,63.2849981 32,63.2849981 C15.9310345,63.2849981 2.82758621,50.3887389 2.82758621,34.5059776 C2.82758621,19.3698419 14.8275862,6.88083301 30,5.86270729 L28.7586207,6.81295796 C28.137931,7.2880833 28,8.17045893 28.4827586,8.78133436 C28.7586207,9.1207096 29.1724138,9.32433475 29.5862069,9.32433475 C29.862069,9.32433475 30.2068966,9.2564597 30.4137931,9.05283455 L35.1034483,5.52333205 C35.4482759,5.25183185 35.6551724,4.84458157 35.6551724,4.36945623 C35.6551724,3.89433089 35.3793103,3.4870806 35.0344828,3.28345546 L30.3448276,0.229078288 C29.7241379,-0.178172002 28.8275862,-0.0424219051 28.4137931,0.636328577 C28,1.24720401 28.137931,2.12957964 28.8275862,2.53682993 L29.7931034,3.14770536 C13.1724138,4.30158118 0,17.9444659 0,34.5059776 C0,51.88199 14.3448276,66 32,66 C49.6551724,66 64,51.88199 64,34.5059776 C64,33.7593521 63.3793103,33.1484767 62.6206897,33.1484767 Z" id="Path"></path>
                        <circle id="Oval" cx="61.5" cy="26.5" r="1.5"></circle>
                        <circle id="Oval" cx="58.5" cy="20.5" r="1.5"></circle>
                        <circle id="Oval" cx="54.5" cy="14.5" r="1.5"></circle>
                        <circle id="Oval" cx="49.5" cy="9.5" r="1.5"></circle>
                        <circle id="Oval" cx="42.5" cy="5.5" r="1.5"></circle>
                        <path d="M29.0731707,44 C29,44.1764706 29,44.4117647 29,44.5882353 C29,45.9411765 30.3170732,47 32,47 C33.6829268,47 35,45.9411765 35,44.5882353 C35,44.3529412 34.9268293,44.1764706 34.9268293,44 L29.0731707,44 Z" id="Path"></path>
                        <path d="M44,41.0909091 C44,40.8863636 43.8622754,40.6136364 43.7245509,40.4772727 C43.7245509,40.4772727 41.245509,37.8181818 41.245509,30.9318182 C41.245509,25.5454545 37.5958084,23.2954545 34.5658683,22.6136364 L34.5658683,21.0454545 C34.5658683,19.8863636 33.6017964,19 32.5,19 C31.3982036,19 30.4341317,19.9545455 30.4341317,21.0454545 L30.4341317,22.5454545 C27.4041916,23.2272727 23.754491,25.4772727 23.754491,30.8636364 C23.754491,37.8181818 21.2754491,40.4090909 21.2754491,40.4090909 C21.0688623,40.6136364 21,40.8181818 21,41.0227273 L21,43 L44,43 L44,41.0909091 Z" id="Path"></path>
                    </g>
                </g>
            </g>
        </g>
    </g>
</svg>