<?xml version="1.0" encoding="UTF-8"?>
<svg width="107px" height="108px" viewBox="0 0 107 108" version="1.1" xmlns="http://www.w3.org/2000/svg" xmlns:xlink="http://www.w3.org/1999/xlink">
    <!-- Generator: sketchtool 52.4 (67378) - http://www.bohemiancoding.com/sketch -->
    <title>C92FEA20-63CB-41D2-86C6-6DA79996E852</title>
    <desc>Created with sketchtool.</desc>
    <defs>
        <polygon id="path-1" points="0.00123563865 0.347013308 21.5891371 0.347013308 21.5891371 21.898642 0.00123563865 21.898642"></polygon>
        <polygon id="path-3" points="1.14325119 0.9154027 18.6866475 0.9154027 18.6866475 26.463346 1.14325119 26.463346"></polygon>
    </defs>
    <g id="ðŸ©-Approved-Screens" stroke="none" stroke-width="1" fill="none" fill-rule="evenodd">
        <g id="Lobby---Won/Lost---Screenshot-Copy-(1)-Copy-Copy-Copy" transform="translate(-750.000000, -306.000000)">
            <g id="Group-231" transform="translate(719.000000, 280.000000)">
                <g id="Sword2" transform="translate(31.000000, 26.000000)">
                    <g id="Group-230">
                        <path d="M9.7357235,92.8161546 L14.8762454,97.8666523 L37.5333148,74.3502724 L32.3990465,69.2934616 L9.7357235,92.8161546 Z M14.9262747,103.699977 C14.3196681,103.699977 13.7193152,103.472704 13.2502895,103.011846 L4.67649928,94.5964546 C4.22623458,94.1545361 3.96358018,93.5358501 3.9573265,92.8982248 C3.94481915,92.2542863 4.18871253,91.6356004 4.63272354,91.1747425 L30.6355095,64.198772 C31.0795205,63.7379141 31.6861271,63.4790761 32.3177485,63.4664499 C32.9118477,63.4411974 33.5684837,63.7063485 34.0187484,64.1482671 L42.5925386,72.576285 C43.5368437,73.4980008 43.5556047,75.0320894 42.642568,75.9853709 L16.639782,102.967654 C16.1707563,103.453765 15.5516423,103.699977 14.9262747,103.699977 Z" id="Fill-2" fill="#000000"></path>
                        <path d="M31.7824339,66.2631642 C31.3321692,65.8212457 30.6129964,65.8275588 30.1689853,66.2884167 L27.8238566,68.7126556 C27.3860993,69.1735135 27.3986066,69.8995225 27.8488713,70.3414411 L36.2538126,78.5990048 C36.710331,79.0409233 37.4295038,79.0282971 37.8735149,78.5737523 L40.2123899,76.1432003 C40.6501473,75.6949686 40.6376399,74.9626465 40.1873752,74.5207279 L31.7824339,66.2631642 Z" id="Fill-4" fill="#000000"></path>
                        <path d="M30.4141307,69.4935857 L37.0242668,75.9834755 L37.6183661,75.3711027 L31.00823,68.8748997 L30.4141307,69.4935857 Z M37.0492808,81.3433153 C36.1237368,81.3433153 35.2482221,80.9834673 34.5853324,80.3395289 L26.1741379,72.0819653 C24.7858218,70.6930785 24.7545534,68.4329808 26.1178548,67.0251546 L28.4504761,64.6009158 C29.7574944,63.2499077 32.1088766,63.212029 33.4471633,64.5377846 L41.8583578,72.7827219 C43.2591813,74.1589825 43.284196,76.4253932 41.9208946,77.8332194 L39.5882734,80.2574583 C38.9253837,80.9392755 37.9998396,81.3433153 37.0492808,81.3433153 Z" id="Fill-6" fill="#000000"></path>
                        <polygon id="Fill-8" fill="#000000" points="36.5702494 78.0200873 39.7346097 74.7309505 35.7697789 70.835754 32.599165 74.1248908"></polygon>
                        <path d="M36.5702503,80.4367509 C35.9386289,80.4367509 35.3445296,80.1905392 34.8942649,79.7549337 L30.9356876,75.8534241 C30.4729155,75.4115055 30.2165148,74.7928196 30.2040074,74.1551942 C30.1977538,73.5112557 30.4416472,72.8988828 30.8856582,72.4380249 L34.0562722,69.1488882 C34.9755627,68.1956067 36.4889525,68.1766673 37.4395113,69.1046963 L41.4043423,72.9935797 C42.3549011,73.9342349 42.3736622,75.4620105 41.448118,76.4089789 L38.277504,79.7044288 C37.8397466,80.1589736 37.2268863,80.4304378 36.6015186,80.4367509 L36.5702503,80.4367509 Z" id="Fill-10" fill="#000000"></path>
                        <polygon id="Fill-12" fill="#000000" points="36.570249 78.0200909 39.7346092 74.7309543 38.946646 73.9481271 35.7760321 77.2372638"></polygon>
                        <path d="M36.5702486,80.4367549 C35.9386272,80.4367549 35.344528,80.1905432 34.8942632,79.7549377 L34.1000463,78.9784237 C33.1619948,78.0377685 33.1369801,76.5099928 34.0625242,75.5567114 L37.2268846,72.2675746 C37.6708957,71.8130298 38.2775023,71.5478787 38.9153774,71.5415656 C39.503223,71.5163131 40.159859,71.7751511 40.6101237,72.2170697 L41.4043407,72.9998968 C42.3548995,73.9342389 42.3736606,75.4620145 41.4481164,76.4089829 L38.2775023,79.7044328 C37.839745,80.1589776 37.2268846,80.4304418 36.601517,80.4367549 L36.5702486,80.4367549 Z" id="Fill-14" fill="#000000"></path>
                        <path d="M27.3116812,70.8995177 C26.8614165,70.4575992 26.1422437,70.4702254 25.6982327,70.9247702 L23.353104,73.3553223 C22.9153466,73.8098671 22.927854,74.5358761 23.3781187,74.9777947 L31.78306,83.2353586 C32.2333247,83.6835903 32.9524975,83.670964 33.4027622,83.2164192 L35.7416373,80.7858672 C36.1793946,80.3250092 36.1668873,79.5990002 35.7166225,79.1570816 L27.3116812,70.8995177 Z" id="Fill-16" fill="#000000"></path>
                        <path d="M25.9440013,74.1299407 L32.560391,80.6261436 L33.1482366,80.0137707 L26.5443542,73.5112548 L25.9440013,74.1299407 Z M32.5791517,85.9796707 C31.647354,85.9796707 30.778093,85.6198227 30.1089496,84.9695712 L21.7040088,76.7120076 C21.0348654,76.0554429 20.6533912,75.1589795 20.6408838,74.2056981 C20.6221228,73.2461036 20.984836,72.3496402 21.6477257,71.6615099 L23.9803469,69.2435842 C25.3186336,67.8673236 27.6324938,67.8420711 28.9707805,69.1615136 L37.3882287,77.4190772 C38.7827985,78.7890247 38.8140669,81.0554355 37.4632729,82.4695749 L35.1181443,84.9001268 C34.4364936,85.5945703 33.5422179,85.9796707 32.5791517,85.9796707 Z" id="Fill-18" fill="#000000"></path>
                        <polygon id="Fill-20" fill="#000000" points="32.0938691 82.656446 35.264483 79.3673095 31.2996522 75.4784264 28.1290383 78.7612498"></polygon>
                        <path d="M32.093868,85.0787901 C31.4747541,85.0787901 30.8744011,84.8262652 30.4241364,84.3906598 L26.4655593,80.4891501 C25.5150005,79.5674343 25.4899858,78.0396587 26.4155299,77.073751 L29.5861438,73.7909273 C30.5054342,72.8376459 32.0188239,72.8187065 32.9693827,73.7404224 L36.9342135,77.6356188 C37.3907319,78.0901637 37.6533863,78.6962234 37.65964,79.3338488 C37.6658937,79.9714741 37.428254,80.5901601 36.9779893,81.051018 L33.8073754,84.3464679 C33.369618,84.8010127 32.7567577,85.0661638 32.1313901,85.0787901 L32.093868,85.0787901 Z" id="Fill-22" fill="#000000"></path>
                        <polygon id="Fill-24" fill="#000000" points="32.0938687 82.6564467 35.2644826 79.36731 34.4702657 78.590796 31.3059055 81.8799327"></polygon>
                        <path d="M32.0938673,85.0787893 C31.4747533,85.0787893 30.8744003,84.8262644 30.4241356,84.390659 L29.6361724,83.614145 C28.6918673,82.6798029 28.6668526,81.1583405 29.5923967,80.198746 L32.756757,76.9032963 C33.200768,76.4487515 33.8011209,76.1836004 34.4389959,76.1772872 C35.0643636,76.1836004 35.6897312,76.4108727 36.1399959,76.8591044 L36.9342128,77.6356184 C37.878518,78.5699605 37.9035327,80.097736 36.9779886,81.0510174 L33.8073746,84.3464671 C33.3696173,84.8010119 32.756757,85.066163 32.1313893,85.0787893 L32.0938673,85.0787893 Z" id="Fill-26" fill="#000000"></path>
                        <path d="M22.841553,75.5352422 C22.3912883,75.0996368 21.6721155,75.1059499 21.2281045,75.5604947 L18.8829758,77.9910467 C18.4514721,78.4455915 18.4577258,79.1779137 18.9079905,79.6198323 L27.3129318,87.8773961 C27.7631965,88.3193147 28.488623,88.3066885 28.9263803,87.8521437 L31.271509,85.4215916 C31.7092664,84.9670468 31.696759,84.2410377 31.2464943,83.7991192 L22.841553,75.5352422 Z" id="Fill-28" fill="#000000"></path>
                        <path d="M21.4732482,78.7719807 L28.0833843,85.2618705 L28.6774836,84.6494976 L22.0736012,78.1532947 L21.4732482,78.7719807 Z M28.1083994,90.6217114 C27.1891089,90.6217114 26.3073405,90.2618635 25.6507044,89.617925 L17.2332557,81.3540478 C15.8449395,79.9777871 15.8136711,77.7176893 17.1644652,76.309863 L19.5158477,73.8793108 C20.8166124,72.5283026 23.1617411,72.4904239 24.5000279,73.7972402 L32.9174767,82.0611175 C34.3120466,83.4373781 34.343315,85.7037891 32.9800135,87.1116154 L30.6473921,89.5421675 C29.9845024,90.2239847 29.0589582,90.6217114 28.1083994,90.6217114 Z" id="Fill-30" fill="#000000"></path>
                        <polygon id="Fill-32" fill="#000000" points="27.6293685 87.2984851 30.7937288 84.0093483 26.828898 80.1141518 23.6582841 83.4032886"></polygon>
                        <path d="M27.6293675,89.7151471 C27.0227609,89.7151471 26.422408,89.4878747 25.9533822,89.0270168 L21.994805,85.1381334 C21.0442462,84.2037913 21.0192315,82.6760157 21.9447756,81.7164212 L25.1153896,78.4272844 C25.553147,77.9727396 26.1660072,77.7075885 26.7976286,77.6949622 C27.4229962,77.682336 28.0421102,77.9348609 28.4986286,78.3830926 L32.4634594,82.278289 C33.4140183,83.206318 33.4327793,84.7340936 32.5134888,85.6936882 L29.3366212,88.9828249 C28.8738492,89.4689354 28.2547352,89.7151471 27.6293675,89.7151471" id="Fill-34" fill="#000000"></path>
                        <polygon id="Fill-36" fill="#000000" points="27.6293681 87.2984858 30.7937283 84.0093492 30.0057651 83.2328352 26.8351512 86.5156587"></polygon>
                        <path d="M27.6293676,89.7151479 C27.0039999,89.7151479 26.4099007,89.4689362 25.9533823,89.0270176 L25.1591654,88.2505036 C24.2211139,87.3224747 24.1960992,85.788386 25.1216433,84.8351046 L28.2860036,81.545968 C28.7300146,81.0851101 29.3366212,80.8262721 29.9744962,80.8136459 C30.656147,80.8136459 31.2189778,81.0535445 31.6692425,81.5017762 L32.4634594,82.2782902 C33.4140183,83.2063191 33.4327793,84.7340947 32.5134889,85.6936892 L29.3366212,88.9828258 C28.8988639,89.4436837 28.2922573,89.7025217 27.6543823,89.7151479 L27.6293676,89.7151479 Z" id="Fill-38" fill="#000000"></path>
                        <path d="M18.3707996,80.1779153 C17.9205349,79.7423099 17.2013621,79.7423099 16.7573511,80.2031678 L14.4184761,82.6337198 C13.9744651,83.0819515 13.9869724,83.8205868 14.4372371,84.2625053 L22.8421783,92.5200691 C23.292443,92.9556746 24.0178695,92.9430483 24.4618805,92.4885035 L26.8007556,90.0579515 C27.2385129,89.6034067 27.2260056,88.8773976 26.7757408,88.4354791 L18.3707996,80.1779153 Z" id="Fill-40" fill="#000000"></path>
                        <path d="M17.0031208,83.408342 L23.6195105,89.8982319 L24.2073561,89.2858591 L17.6034738,82.7959691 L17.0031208,83.408342 Z M23.6445246,95.2580717 C22.7127268,95.2580717 21.8372122,94.8982237 21.1743225,94.2479722 L12.7693816,85.9904087 C12.0939846,85.3275309 11.7125103,84.4373807 11.700003,83.4777861 C11.6874956,82.5245047 12.0439552,81.6280414 12.7068448,80.9399111 L15.0457198,78.5219854 C16.3339771,77.1709773 18.6978667,77.1267854 20.0424071,78.4462279 L28.447348,86.6974783 C29.122745,87.3729824 29.5042192,88.2631326 29.5167266,89.216414 C29.5292339,90.1696954 29.1665207,91.0724718 28.5098847,91.754289 L26.1772635,94.1785278 C25.5081201,94.8666581 24.5888297,95.2580717 23.6445246,95.2580717 Z" id="Fill-42" fill="#000000"></path>
                        <polygon id="Fill-44" fill="#000000" points="23.1586143 91.9348437 26.3229745 88.6457073 22.3581437 84.7568242 19.1875298 88.0396476"></polygon>
                        <path d="M23.1586155,94.3515026 C22.5332478,94.3515026 21.9391485,94.1052908 21.4826301,93.6696854 L17.5240528,89.7744891 C17.0612808,89.3262574 16.80488,88.7138846 16.7923727,88.0762592 C16.786119,87.4323208 17.0362661,86.8199479 17.4740234,86.3527769 L20.6446375,83.0699534 C21.0886485,82.6154086 21.6952551,82.3502575 22.3268765,82.3439444 C22.9147221,82.3439444 23.5713581,82.5775299 24.0278765,83.0194484 L27.9927075,86.9146448 C28.9370127,87.8426737 28.9620274,89.3704493 28.0364832,90.3300438 L24.8658692,93.6191804 C24.4281118,94.0800383 23.8215052,94.3388763 23.1898839,94.3515026 L23.1586155,94.3515026 Z" id="Fill-46" fill="#000000"></path>
                        <polygon id="Fill-48" fill="#000000" points="23.1586154 91.9348445 26.3229757 88.6457078 25.5350125 87.8691938 22.3643985 91.1583305"></polygon>
                        <path d="M23.1586149,94.3515042 C22.5520083,94.3515042 21.957909,94.1242318 21.4826296,93.669687 L20.6946664,92.8994861 C20.238148,92.4512545 19.9817473,91.8388816 19.9692399,91.1949432 C19.9629863,90.5510048 20.200626,89.9386319 20.6508907,89.477774 L23.8152509,86.1823244 C24.2592619,85.7277796 24.8658685,85.4626285 25.5037435,85.4500022 C26.1040965,85.437376 26.7482251,85.6899008 27.2047435,86.1381325 L27.9927067,86.9146465 C28.9370119,87.8489886 28.9620266,89.3704509 28.0364825,90.3300455 L24.8658685,93.619182 C24.4030965,94.1052924 23.7839825,94.3515042 23.1586149,94.3515042" id="Fill-50" fill="#000000"></path>
                        <path d="M13.9006722,84.8199534 C13.4504075,84.3780348 12.7312347,84.384348 12.2872237,84.8452059 L9.94834867,87.2757579 C9.50433764,87.7239895 9.51684499,88.4563117 9.9671097,88.8982303 L18.3720509,97.1557939 C18.8285693,97.5977125 19.5477421,97.5850862 19.9917531,97.1305414 L22.3306281,94.6999894 C22.7683855,94.2454447 22.7558781,93.5194356 22.3056134,93.0712039 L13.9006722,84.8199534 Z" id="Fill-52" fill="#000000"></path>
                        <path d="M12.5323682,88.0510074 L19.1487579,94.5408972 L19.7366035,93.9285243 L13.1327211,87.4323214 L12.5323682,88.0510074 Z M19.173772,99.9007377 C18.2482279,99.9007377 17.3727132,99.5408898 16.7098236,98.8969513 L8.29862896,90.6330744 C7.62323192,89.9765097 7.24175766,89.0800463 7.22925031,88.1267649 C7.21674296,87.1671703 7.57320251,86.2643938 8.23609219,85.5762635 L10.5687134,83.1583377 C11.8757318,81.8010165 14.2271141,81.7631377 15.5716545,83.0952065 L23.9765954,91.3401441 C25.3774189,92.7164047 25.4086873,94.9828155 24.0453858,96.3843287 L21.7065109,98.8148807 C21.0436212,99.503011 20.1180771,99.9007377 19.173772,99.9007377 Z" id="Fill-54" fill="#000000"></path>
                        <polygon id="Fill-56" fill="#000000" points="18.688486 96.571196 21.8528463 93.2820595 17.8880155 89.3931764 14.7174016 92.6823129"></polygon>
                        <path d="M18.6884871,98.9878612 C18.0631194,98.9878612 17.4690201,98.7416495 17.0125017,98.3123572 L13.0539244,94.4108477 C12.1033655,93.4828188 12.0846045,91.9550432 13.0101487,90.9954487 L16.174509,87.7126252 C16.6122664,87.2517673 17.2251267,86.9929293 17.8567481,86.980303 L17.8880165,86.980303 C18.5133841,86.980303 19.1012297,87.2202017 19.5577481,87.6558071 L23.5225791,91.5510034 C23.9790975,91.9992351 24.241752,92.6116079 24.2480056,93.2555464 C24.2542593,93.8931717 24.0166196,94.5118577 23.5663549,94.9727156 L20.3957408,98.2618522 C19.9579834,98.716397 19.3513768,98.9815481 18.7197555,98.9878612 L18.6884871,98.9878612 Z" id="Fill-58" fill="#000000"></path>
                        <polygon id="Fill-60" fill="#000000" points="18.6884872 96.5712003 21.8528475 93.2820636 21.0648842 92.5118627 17.8942703 95.7946862"></polygon>
                        <path d="M18.6884863,98.9878636 C18.0631187,98.9878636 17.4690194,98.7416518 17.012501,98.3060464 L16.218284,97.5295324 C15.2802325,96.5951902 15.2552178,95.0674146 16.1870157,94.1141332 L19.3451224,90.8249964 C19.7891334,90.3704516 20.3957401,90.1053005 21.0336151,90.0989873 C21.6527291,90.080048 22.2780968,90.3325729 22.7283615,90.7744914 L23.5225784,91.5510055 C24.4668836,92.4853476 24.4918983,94.0194363 23.5663542,94.9727178 L20.3957401,98.2618545 C19.9579827,98.7163994 19.3513761,98.9815505 18.7197547,98.9878636 L18.6884863,98.9878636 Z" id="Fill-62" fill="#000000"></path>
                        <path d="M7.9096499,88.5750001 C7.32805801,88.000506 6.39626025,88.0131322 5.82717571,88.6002526 L2.81290376,91.7378744 C2.23756555,92.3186817 2.25632658,93.2656501 2.83791847,93.8338311 L13.6817931,104.490382 C14.2696386,105.058563 15.1951827,105.039623 15.7705209,104.458816 L18.7847929,101.327507 C19.3476238,100.740387 19.3351164,99.7934187 18.7535245,99.2252377 L7.9096499,88.5750001 Z" id="Fill-64" fill="#000000"></path>
                        <g id="Group-68" transform="translate(0.000000, 85.424436)">
                            <mask id="mask-2" fill="white">
                                <use xlink:href="#path-1"></use>
                            </mask>
                            <g id="Clip-67"></g>
                            <path d="M5.16741281,7.33048163 L14.6917619,16.6802153 L16.4302839,14.8809755 L6.89968116,5.53124186 L5.16741281,7.33048163 Z M14.704269,21.9011672 C13.6974271,21.9011672 12.7406146,21.5097536 12.0151882,20.8026839 L1.17131356,10.1398209 C0.427126088,9.420125 0.0143834554,8.44790421 0.00187610289,7.39992596 C-0.0168849258,6.35194771 0.377096678,5.36078756 1.1087768,4.61583917 L4.1105414,1.49084378 C5.55514061,-0.00536613166 8.10038684,-0.0369317416 9.57625443,1.41508632 L20.420129,12.0653231 C21.9522797,13.5678461 21.9772944,16.04259 20.5014268,17.5829917 L17.4809012,20.7143002 C16.7492211,21.478188 15.7611402,21.9011672 14.704269,21.9011672 Z" id="Fill-66" fill="#000000" mask="url(#mask-2)"></path>
                        </g>
                        <polygon id="Fill-69" fill="#000000" points="14.0839047 103.741013 18.1675555 99.4985948 13.0583017 94.4733494 8.97465098 98.7157676"></polygon>
                        <path d="M12.3553886,98.6671548 L14.0376275,100.321193 L14.7880687,99.5446788 L13.0995761,97.8906408 L12.3553886,98.6671548 Z M14.0814031,106.154518 C13.4622891,106.154518 12.8619362,105.901993 12.4179252,105.472701 L7.30241784,100.447456 C6.35185902,99.5194265 6.33309799,97.9916509 7.2586421,97.0320563 L11.3360391,92.789638 C11.7800502,92.3287801 12.3866568,92.0699421 13.0182781,92.0573158 C13.6436458,92.0573158 14.2690134,92.2972145 14.7255318,92.7454462 L19.8347854,97.7580654 C20.2975575,98.2126102 20.5602119,98.8186699 20.5602119,99.4626084 C20.5664656,100.106547 20.3288259,100.71892 19.8848149,101.179778 L15.8011641,105.422196 C15.3508994,105.883054 14.7505465,106.154518 14.1126715,106.154518 L14.0814031,106.154518 Z" id="Fill-71" fill="#000000"></path>
                        <polygon id="Fill-73" fill="#000000" points="14.0839048 103.741009 18.1675555 99.4985913 17.1482062 98.4948049 13.0645555 102.737223"></polygon>
                        <path d="M14.0839051,106.151362 C13.4772984,106.151362 12.8831992,105.930403 12.4141734,105.475858 L11.3948241,104.465759 C10.4442653,103.544043 10.4255043,102.009954 11.3510484,101.05036 L15.4346992,96.8142547 C16.3539897,95.8546601 17.8611257,95.8357208 18.8179382,96.7637497 L19.8372875,97.761223 C20.2875522,98.2094546 20.5564603,98.8218275 20.562714,99.4531396 C20.5689677,100.103391 20.331328,100.722077 19.8873169,101.182935 L15.7974125,105.425353 C15.3283867,105.90515 14.7092727,106.151362 14.0839051,106.151362" id="Fill-75" fill="#000000"></path>
                        <polygon id="Fill-77" fill="#000000" points="103.857931 3.39077777 82.4766116 7.24809551 35.2113254 55.6444913 37.0186379 62.9172083 41.0647665 67.0017984 53.4407921 72.2290637 82.9206226 42.6962774 84.7279351 37.9235569 87.4295233 37.6962845 101.156343 24.0599403"></polygon>
                        <path d="M42.4205622,64.9557117 L52.8892165,69.374897 L80.8681648,41.3446356 L82.487867,37.064339 C82.8193118,36.186815 83.6135287,35.5933816 84.5265655,35.511311 L86.3651463,35.359796 L98.8850065,22.9229458 L101.055032,6.35100076 L83.6447971,9.49493548 L37.8616321,56.376179 L39.1686505,61.6728883 L42.4205622,64.9557117 Z M53.4457934,74.6463572 C53.1331096,74.6463572 52.8204257,74.583226 52.5202493,74.4569636 L40.1442237,69.2360115 C39.8565546,69.109749 39.5939002,68.9329816 39.3750215,68.7120223 L35.3226392,64.614806 C35.0099554,64.3117761 34.7973304,63.9203626 34.6910179,63.5036965 L32.8962128,56.2246666 C32.6835878,55.4102738 32.9212275,54.5516892 33.5090731,53.9456294 L80.7743591,5.55554752 C81.1183113,5.19569955 81.568576,4.95580091 82.0563628,4.8674172 L103.431429,1.01009951 C104.188124,0.877523947 104.957326,1.10479635 105.507649,1.64141174 C106.064226,2.171714 106.333135,2.94191492 106.226822,3.70580271 L103.525234,24.3749649 C103.462697,24.9115803 103.218804,25.4040038 102.831076,25.7827912 L89.1042561,39.4191352 C88.7040208,39.8168619 88.1849657,40.0567605 87.6283885,40.1009524 L86.4276826,40.2019623 L85.16444,43.5542302 C85.0393664,43.8698864 84.8517561,44.1666031 84.6141164,44.4065017 L55.134286,73.9456007 C54.6715139,74.4001455 54.0649073,74.6463572 53.4457934,74.6463572 Z" id="Fill-79" fill="#000000"></path>
                        <polygon id="Fill-81" fill="#000000" points="103.846048 3.38446477 74.9728241 30.991747 67.6247544 38.0119386 39.22681 65.1457367 37.0067549 62.9108915 35.2119498 55.6318619 52.9598833 37.462697 67.4121294 22.6773654 69.1068757 20.9349438 76.0859785 13.7948028 82.4772358 7.2480954"></polygon>
                        <path d="M39.1717793,61.6760496 L39.2718382,61.7770596 L96.3866629,7.18748944 L83.6416708,9.49177914 L37.864761,56.3667136 L39.1717793,61.6760496 Z M39.2280625,67.5598795 C38.6089485,67.5598795 38.0023419,67.326294 37.5333161,66.8528098 L35.3195146,64.6179645 C35.0068307,64.3086215 34.7879521,63.9172079 34.6878932,63.4942287 L32.893088,56.2215116 C32.6867167,55.4071189 32.9243564,54.535908 33.512202,53.9424745 L80.7712364,5.55239116 C81.1151886,5.19885631 81.5654534,4.96527078 82.0532401,4.87057394 L103.428307,1.00694303 C104.460164,0.817549354 105.504528,1.34153851 105.986061,2.30113312 C106.46134,3.24810148 106.267476,4.40340288 105.49202,5.14203821 L40.8665258,66.9033148 C40.4037537,67.3389202 39.8159081,67.5598795 39.2280625,67.5598795 Z" id="Fill-83" fill="#000000"></path>
                        <polygon id="Fill-85" fill="#000000" points="103.846048 3.39077777 82.4772358 7.2480954 35.2119498 55.6444897 35.2119498 55.7265603 82.8149343 7.92991259"></polygon>
                        <path d="M35.214453,58.1432252 C34.9017692,58.1432252 34.5890853,58.0800939 34.3014162,57.9601446 C33.4071405,57.5813573 32.8192949,56.7038333 32.8192949,55.7252993 L32.8192949,55.6432287 C32.8192949,55.0056034 33.0631883,54.3995436 33.513453,53.9449988 L80.7724854,5.55491626 C81.1226913,5.19506829 81.5667023,4.95516964 82.0544891,4.87309905 L103.417048,1.00946819 C104.711559,0.775882667 105.949787,1.6344673 106.19368,2.92234425 C106.450081,4.21653433 105.624595,5.47284567 104.348845,5.75062305 L83.9993824,10.1445562 L36.9029456,57.4424686 C36.4464272,57.9033265 35.8398206,58.1432252 35.214453,58.1432252" id="Fill-87" fill="#000000"></path>
                        <polygon id="Fill-89" fill="#000000" points="103.846049 3.39077785 101.106938 24.0410009 91.0822949 16.0549012 103.577141 3.32764663"></polygon>
                        <g id="Group-93" transform="translate(87.551474, 0.000000)">
                            <mask id="mask-4" fill="white">
                                <use xlink:href="#path-3"></use>
                            </mask>
                            <g id="Clip-92"></g>
                            <path d="M7.12168689,15.8320472 L11.7369001,19.5189104 L13.0189037,9.82195515 L7.12168689,15.8320472 Z M13.550466,26.4633452 C13.0189035,26.4633452 12.4935947,26.2802647 12.0683447,25.9456692 L2.04995512,17.9532566 C1.51839263,17.5302774 1.18694778,16.886339 1.14942572,16.2045218 C1.09939631,15.5100784 1.35579704,14.8472006 1.83107645,14.354777 L14.3196682,1.63383603 C14.9012601,1.04040255 15.732999,0.794190792 16.5397233,0.97095821 L16.8086314,1.02777631 C18.0155909,1.29924056 18.8285689,2.46716814 18.6659733,3.7108532 L15.926863,24.3673887 C15.8080432,25.2259733 15.2452123,25.9582954 14.4509954,26.2802647 C14.1570726,26.4065271 13.8568961,26.4633452 13.550466,26.4633452 Z" id="Fill-91" fill="#000000" mask="url(#mask-4)"></path>
                        </g>
                        <polyline id="Fill-94" fill="#000000" points="84.8405039 37.2373188 82.9206253 42.6918564 74.5469527 31.7007106 77.8363864 28.9734417 85.0906509 37.0668645"></polyline>
                        <path d="M80.4860689,35.5359338 L82.1432931,37.7013347 L82.2183373,37.4677491 L80.4860689,35.5359338 Z M82.9250031,45.1129404 C82.1870692,45.1129404 81.4804038,44.7657186 81.0301391,44.165972 L72.6502123,33.174826 C71.8559954,32.1394739 72.0248447,30.6622032 73.0316866,29.8351842 L76.3148669,27.1079153 C77.3029478,26.2872094 78.7538008,26.4008456 79.6105545,27.3541271 L86.8710731,35.44755 C87.6965584,36.375579 87.684051,37.7770922 86.8710731,38.6861818 L85.1825804,43.5030942 C84.8886576,44.3427394 84.1694848,44.9424861 83.3002237,45.0813748 C83.1814038,45.1003141 83.0500766,45.1129404 82.9250031,45.1129404 Z" id="Fill-96" fill="#000000"></path>
                        <polyline id="Fill-98" fill="#000000" points="83.4052849 8.69253783 90.828399 15.8579315 102.979293 3.58522198 83.5178511 8.35794235"></polyline>
                        <path d="M87.967337,9.75314235 L90.7939987,12.4804111 L95.2591236,7.96652877 L87.967337,9.75314235 Z M90.8315214,18.2758573 C90.2374221,18.2758573 89.6433228,18.0485849 89.1742971,17.6003533 L81.751183,10.4412727 C81.0195028,9.73420304 80.8256388,8.66097227 81.2008594,7.77082205 C81.4072307,6.9311768 82.0576131,6.22410711 82.9518889,6.00946096 L102.419584,1.2367406 C103.470202,0.977902589 104.545834,1.45769987 105.071143,2.4046682 C105.596452,3.3453234 105.433856,4.53219037 104.677161,5.29607815 L92.5262678,17.5624745 C92.057242,18.0359587 91.4506354,18.2758573 90.8315214,18.2758573 Z" id="Fill-100" fill="#000000"></path>
                        <polygon id="Fill-102" fill="#000000" points="87.4301514 37.6937585 79.187806 27.6937727 76.5737693 29.7392243 84.5847287 37.7505766"></polygon>
                        <path d="M84.5841011,40.1659776 C83.9524798,40.1659776 83.3521268,39.9197658 82.9018621,39.4715342 L74.884649,31.4601817 C74.3968622,30.9677582 74.1404615,30.292254 74.1779835,29.5978106 C74.228013,28.9033671 74.5532041,28.2531155 75.1035277,27.8301363 L77.7175644,25.7846846 C78.7369136,24.9955443 80.2002739,25.1533723 81.0257592,26.1508457 L89.2681047,36.1508317 C89.8559503,36.8705277 89.9872775,37.8553748 89.6058032,38.7013332 C89.224329,39.5409785 88.39259,40.0902202 87.4795532,40.1091595 L84.6341305,40.1659776 L84.5841011,40.1659776 Z" id="Fill-104" fill="#000000"></path>
                        <polyline id="Fill-106" fill="#000000" points="103.797272 3.78534788 39.2093017 64.7890498 40.3349635 66.4935928 103.578394 3.89898408"></polyline>
                        <path d="M40.3318342,68.9077258 C40.2505364,68.9077258 40.1754923,68.9014127 40.0879408,68.8950995 C39.3812754,68.8193421 38.7434004,68.4342416 38.343165,67.8344951 L37.2175033,66.1362653 C36.5671209,65.138792 36.7172091,63.8319758 37.5739628,63.0238962 L99.7167473,4.33080171 L101.905534,2.17171402 C102.111905,1.963381 102.362052,1.7929267 102.624707,1.67929051 C103.562758,1.14898827 104.775972,1.30681632 105.551428,2.13383529 C106.445703,3.11236918 106.395674,4.64014469 105.432608,5.54923424 L103.024942,7.82195813 L42.0140732,68.2195955 C41.5575548,68.661514 40.9572019,68.9077258 40.3318342,68.9077258" id="Fill-108" fill="#000000"></path>
                        <path d="M42.8970932,63.1375318 C43.2347917,63.3963698 54.034891,72.3420636 53.6971924,72.2536799 C53.3657476,72.1716093 40.5269498,66.6350013 40.5269498,66.6350013 L42.8970932,63.1375318 Z" id="Fill-110" fill="#000000"></path>
                        <path d="M53.7065736,74.6722439 C53.506456,74.6722439 53.3063384,74.6469914 53.1124744,74.5964864 C52.8873421,74.5396683 52.5934193,74.470224 39.5920264,68.851545 C38.9353904,68.5674545 38.4350963,67.9992735 38.228725,67.3111431 C38.034861,66.6166997 38.1474272,65.8654381 38.5539161,65.2656915 L40.9178057,61.7745347 C41.2867726,61.2316062 41.8558572,60.859132 42.5062395,60.7518089 C43.1503682,60.650799 43.8070042,60.8149401 44.3260593,61.2063537 C44.58246,61.3957474 47.5842246,63.8831176 49.9668753,65.8717512 C56.5269816,71.3578546 56.5269816,71.3578546 55.9766581,73.0182058 C55.651467,74.0093661 54.7321765,74.6722439 53.7065736,74.6722439" id="Fill-112" fill="#000000"></path>
                        <polyline id="Fill-114" fill="#000000" points="35.2144507 55.7265608 61.7988296 43.0308726 42.1935537 62.1217533 36.852914 62.7404392 35.2144507 55.9790857"></polyline>
                        <path d="M37.9504347,57.0952463 L38.6696075,60.1002924 L41.1147951,59.8098888 L49.6385563,51.5144465 L37.9504347,57.0952463 Z M36.8435338,65.1571029 C35.7491404,65.1571029 34.7860743,64.3995282 34.5171662,63.3136712 L32.8912103,56.5586306 C32.8349272,56.318732 32.8099125,56.0914596 32.8224199,55.8578741 C32.7723905,54.9045926 33.2851919,53.9765637 34.191975,53.5409583 L60.7763533,40.8515829 C61.8394783,40.3465331 63.1027209,40.6874417 63.7718643,41.6659756 C64.434754,42.6318833 64.3096805,43.9513258 63.4654342,44.7720317 L43.8476513,63.8565997 C43.4724308,64.2290739 42.9908977,64.4563463 42.4718425,64.5194775 L37.1186956,65.1381635 C37.0311441,65.1507897 36.9373389,65.1571029 36.8435338,65.1571029 Z" id="Fill-116" fill="#000000"></path>
                        <polygon id="Fill-118" fill="#000000" points="36.8510381 62.7429661 42.1916779 62.117967 43.3736227 63.3679652 41.0660161 67.0043235"></polygon>
                        <path d="M41.0647655,69.4197259 C40.4331442,69.4197259 39.8265376,69.167201 39.3700192,68.7126562 L35.1550414,64.4512986 C34.504659,63.7947339 34.2857804,62.8225131 34.5859568,61.9449891 C34.8861333,61.0737782 35.6553355,60.4550923 36.5683722,60.3477692 L41.9215192,59.7164569 C42.6719603,59.6280732 43.4036404,59.8995375 43.9226956,60.4550923 L45.1046404,61.6987773 C45.8675889,62.5005439 45.9864088,63.7379158 45.3860558,64.6722579 L43.0784493,68.3086164 C42.6907213,68.9273023 42.040339,69.325029 41.3211662,69.4070996 C41.2336148,69.4134128 41.152317,69.4197259 41.0647655,69.4197259" id="Fill-120" fill="#000000"></path>
                        <polyline id="Fill-122" fill="#000000" points="78.4830143 12.6445525 78.4767606 12.8718249 78.3641944 24.6836764 69.0274558 21.7354484"></polyline>
                        <path d="M78.3673224,27.1022336 C78.1296827,27.1022336 77.892043,27.0643548 77.6544033,26.9885974 L68.3176641,24.0403693 C67.0544214,23.6363295 66.347756,22.2853213 66.7479913,21.0100707 C67.1419729,19.7411331 68.4865134,19.0340634 69.7435024,19.4317901 L76.0096863,21.4077973 L76.0909841,12.6199313 C76.1034915,11.2941756 77.1728702,10.2272579 78.4861422,10.2272579 L78.5049033,10.2272579 C79.8306827,10.2461973 80.8875541,11.3383675 80.8750467,12.6767494 L80.7624805,24.7095603 C80.7562269,25.473448 80.3935136,26.1868308 79.7806533,26.6413756 C79.3679106,26.9444055 78.8676165,27.1022336 78.3673224,27.1022336" id="Fill-124" fill="#000000"></path>
                        <polygon id="Fill-126" fill="#000000" points="54.2625252 89.1356031 17.766069 52.2922212 24.0072382 45.9917251 45.7950472 61.1558449 60.5036944 82.835107"></polygon>
                        <path d="M21.1555626,52.2928547 L54.2625255,85.720838 L57.4081247,82.5453374 L44.0752866,62.8989003 L24.2949081,49.1299803 L21.1555626,52.2928547 Z M54.2625267,91.5541602 C53.6434127,91.5541602 53.036806,91.3205747 52.5677803,90.8407774 L16.0775771,54.0037105 C15.1395256,53.0567422 15.1395256,51.5289666 16.0775771,50.5819983 L22.3187464,44.2815026 C23.1317244,43.4671098 24.4137281,43.3408474 25.3705406,44.0100383 L47.15835,59.1678443 C47.3959897,59.3319854 47.6086147,59.5403185 47.7712103,59.7928434 L62.4736041,81.4721044 C63.1302401,82.4253858 63.0051666,83.7258889 62.1921886,84.5402817 L55.9510194,90.8407774 C55.4882473,91.3205747 54.875387,91.5541602 54.2625267,91.5541602 Z" id="Fill-128" fill="#000000"></path>
                        <polygon id="Fill-130" fill="#000000" points="54.2625252 89.1356031 17.766069 52.2922212 24.0072382 45.9917251 45.7950472 61.1558449 60.5036944 82.835107"></polygon>
                        <path d="M21.1555626,52.2928547 L54.2625255,85.720838 L57.4081247,82.5453374 L44.0752866,62.8989003 L24.2949081,49.1299803 L21.1555626,52.2928547 Z M54.2625267,91.5541602 C53.6434127,91.5541602 53.036806,91.3205747 52.5677803,90.8407774 L16.0775771,54.0037105 C15.1395256,53.0567422 15.1395256,51.5289666 16.0775771,50.5819983 L22.3187464,44.2815026 C23.1317244,43.4671098 24.4137281,43.3408474 25.3705406,44.0100383 L47.15835,59.1678443 C47.3959897,59.3319854 47.6086147,59.5403185 47.7712103,59.7928434 L62.4736041,81.4721044 C63.1302401,82.4253858 63.0051666,83.7258889 62.1921886,84.5402817 L55.9510194,90.8407774 C55.4882473,91.3205747 54.875387,91.5541602 54.2625267,91.5541602 Z" id="Fill-132" fill="#000000"></path>
                        <path d="M44.937042,62.021372 C44.937042,62.021372 36.707204,70.1274208 37.0198878,70.4557032 C37.3388253,70.7713593 54.3675858,87.9619908 54.3675858,87.9619908 L58.9515306,82.6842207 L44.937042,62.021372 Z" id="Fill-134" fill="#000000"></path>
                        <path d="M40.2223974,70.2644182 C43.4117724,73.4904236 50.822379,80.9651601 54.2556474,84.4310641 L55.9316327,82.5055619 L44.5812099,65.7694753 C42.8989709,67.461392 41.273015,69.1280562 40.2223974,70.2644182 Z M54.3682139,90.3843397 C53.7303389,90.3843397 53.1237323,90.1255017 52.6734675,89.6709568 L35.3257688,72.1583553 C34.8755041,71.7038105 34.6191033,71.0535589 34.6191033,70.4033073 C34.625357,69.2669453 34.625357,68.7997742 43.2616843,60.2959983 C43.7744858,59.8035748 44.4748976,59.557363 45.1690557,59.6204942 C45.8757211,59.6899386 46.5135961,60.075039 46.9075778,60.6621594 L60.9283206,81.325009 C61.5474346,82.2340987 61.4723905,83.4525313 60.7532177,84.2858634 L56.1630191,89.5573206 C55.7252617,90.0623704 55.1061477,90.3590872 54.4370043,90.3843397 L54.3682139,90.3843397 Z" id="Fill-136" fill="#000000"></path>
                        <polygon id="Fill-138" fill="#000000" points="58.3355444 82.5699545 53.6828091 75.5245101 48.8674783 82.0901572 54.3144304 87.1659074"></polygon>
                        <path d="M52.0699864,81.7871271 L54.1399533,83.7126293 L55.3218982,82.3616212 L53.5771225,79.7290492 L52.0699864,81.7871271 Z M54.3150566,89.5712069 C53.7209573,89.5712069 53.1331117,89.3502476 52.6953543,88.9398946 L47.2484019,83.8641444 C46.3478724,83.0244991 46.2165452,81.6482385 46.9419717,80.6507651 L51.7510491,74.0788049 C52.2138212,73.4538058 52.9767698,73.0750185 53.7397184,73.1065841 C54.521428,73.1255234 55.2406008,73.5232501 55.6721045,74.1798148 L60.32484,81.2252593 C60.925193,82.1469751 60.8438952,83.3464683 60.130976,84.1671742 L56.1098619,88.7568141 C55.6783582,89.2492376 55.0717515,89.5459544 54.4401302,89.5712069 L54.3150566,89.5712069 Z" id="Fill-140" fill="#000000"></path>
                        <polygon id="Fill-142" fill="#000000" points="18.688486 52.4652021 24.1479457 46.8086449 44.7913322 61.6002894 24.5919568 49.5232873"></polygon>
                        <path d="M44.7900833,64.0188481 C44.3773406,64.0188481 43.9520906,63.9052119 43.5706163,63.6779395 L24.4906487,52.2701274 L19.7503617,54.6375483 C18.6997441,55.1552243 17.4365014,54.8395682 16.7485969,53.8925998 C16.0606925,52.9330052 16.1607513,51.6261889 16.9737293,50.7802305 L22.433189,45.1173598 C23.2586744,44.2650883 24.5719465,44.1451389 25.5350127,44.8332693 L46.1846532,59.6375412 C47.2227635,60.3824896 47.504179,61.8281946 46.7975135,62.9203648 C46.3409951,63.6274345 45.5717929,64.0188481 44.7900833,64.0188481" id="Fill-144" fill="#000000"></path>
                        <polygon id="Fill-146" fill="#000000" points="76.0828535 13.7973291 74.969699 30.9942744 74.932177 31.4740717 67.6028681 38.2733045 67.6216291 38.0144665 69.1100041 20.9374705"></polygon>
                        <path d="M71.4169844,22.0157504 L70.5227087,32.2808868 L72.6114366,30.3427583 L73.2743263,20.1091875 L71.4169844,22.0157504 Z M67.6022418,40.6899673 C67.2395286,40.6899673 66.8705616,40.6078967 66.5453705,40.4437555 C65.6510947,40.001837 65.1257859,39.0548686 65.2133374,38.0637084 L66.7204734,20.7278742 C66.7767565,20.1660063 67.0143962,19.6420171 67.4021242,19.2506035 L74.3812272,12.1041489 C75.081639,11.3781398 76.1510177,11.1824331 77.0640545,11.592786 C77.9770913,12.0094521 78.5399222,12.9437942 78.4773854,13.9602069 L77.3204552,31.6558891 C77.2766795,32.268262 77.0015177,32.836443 76.5575067,33.2531091 L69.2156904,40.0523419 C68.7654257,40.4753211 68.1838337,40.6899673 67.6022418,40.6899673 Z" id="Fill-148" fill="#000000"></path>
                        <polygon id="Fill-150" fill="#000000" points="67.4108788 22.6754727 66.3289928 39.1716611 51.6641221 52.9973987 52.9586331 37.4671181"></polygon>
                        <path d="M55.2762473,38.5447681 L54.5758355,46.947534 L64.0063794,38.0586576 L64.594225,28.999327 L55.2762473,38.5447681 Z M51.6678759,55.4071168 C51.3114163,55.4071168 50.9612104,55.3250463 50.6297656,55.1672182 C49.7354899,54.7252997 49.1976737,53.7846445 49.2852252,52.7871712 L50.5797362,37.2632038 C50.6235119,36.7013359 50.8611516,36.1710337 51.2551332,35.773307 L65.7011253,20.9816618 C66.4077908,20.2619659 67.4771694,20.059946 68.3902061,20.4829251 C69.3032429,20.886965 69.85982,21.8339333 69.7910296,22.8377197 L68.7153973,39.3275947 C68.6778752,39.9462807 68.4089672,40.5144617 67.9587025,40.9374409 L53.306339,54.7568653 C52.8498207,55.1861576 52.2682288,55.4071168 51.6678759,55.4071168 Z" id="Fill-152" fill="#000000"></path>
                        <polygon id="Fill-154" fill="#361801" points="32.3565229 65.880584 40.9178062 74.3022888 14.9275261 101.278259 6.3537354 92.8565545"></polygon>
                        <path d="M31.7824339,66.2631642 C31.3321692,65.8212457 30.6129964,65.8275588 30.1689853,66.2884167 L27.8238566,68.7126556 C27.3860993,69.1735135 27.3986066,69.8995225 27.8488713,70.3414411 L36.2538126,78.5990048 C36.710331,79.0409233 37.4295038,79.0282971 37.8735149,78.5737523 L40.2123899,76.1432003 C40.6501473,75.6949686 40.6376399,74.9626465 40.1873752,74.5207279 L31.7824339,66.2631642 Z" id="Fill-156" fill="#7D1204"></path>
                        <polygon id="Fill-158" fill="#EE4F14" points="36.5702494 78.0200873 39.7346097 74.7309505 35.7697789 70.835754 32.599165 74.1248908"></polygon>
                        <polygon id="Fill-160" fill="#FFFFFF" points="36.570249 78.0200909 39.7346092 74.7309543 38.946646 73.9481271 35.7760321 77.2372638"></polygon>
                        <path d="M27.3116812,70.8995177 C26.8614165,70.4575992 26.1422437,70.4702254 25.6982327,70.9247702 L23.353104,73.3553223 C22.9153466,73.8098671 22.927854,74.5358761 23.3781187,74.9777947 L31.78306,83.2353586 C32.2333247,83.6835903 32.9524975,83.670964 33.4027622,83.2164192 L35.7416373,80.7858672 C36.1793946,80.3250092 36.1668873,79.5990002 35.7166225,79.1570816 L27.3116812,70.8995177 Z" id="Fill-162" fill="#7D1204"></path>
                        <polygon id="Fill-164" fill="#EE4F14" points="32.0938691 82.656446 35.264483 79.3673095 31.2996522 75.4784264 28.1290383 78.7612498"></polygon>
                        <polygon id="Fill-166" fill="#FFFFFF" points="32.0938687 82.6564467 35.2644826 79.36731 34.4702657 78.590796 31.3059055 81.8799327"></polygon>
                        <path d="M22.841553,75.5352422 C22.3912883,75.0996368 21.6721155,75.1059499 21.2281045,75.5604947 L18.8829758,77.9910467 C18.4514721,78.4455915 18.4577258,79.1779137 18.9079905,79.6198323 L27.3129318,87.8773961 C27.7631965,88.3193147 28.488623,88.3066885 28.9263803,87.8521437 L31.271509,85.4215916 C31.7092664,84.9670468 31.696759,84.2410377 31.2464943,83.7991192 L22.841553,75.5352422 Z" id="Fill-168" fill="#7D1204"></path>
                        <polygon id="Fill-170" fill="#EE4F14" points="27.6293685 87.2984851 30.7937288 84.0093483 26.828898 80.1141518 23.6582841 83.4032886"></polygon>
                        <polygon id="Fill-172" fill="#FFFFFF" points="27.6293681 87.2984858 30.7937283 84.0093492 30.0057651 83.2328352 26.8351512 86.5156587"></polygon>
                        <path d="M18.3707996,80.1779153 C17.9205349,79.7423099 17.2013621,79.7423099 16.7573511,80.2031678 L14.4184761,82.6337198 C13.9744651,83.0819515 13.9869724,83.8205868 14.4372371,84.2625053 L22.8421783,92.5200691 C23.292443,92.9556746 24.0178695,92.9430483 24.4618805,92.4885035 L26.8007556,90.0579515 C27.2385129,89.6034067 27.2260056,88.8773976 26.7757408,88.4354791 L18.3707996,80.1779153 Z" id="Fill-174" fill="#7D1204"></path>
                        <polygon id="Fill-176" fill="#EE4F14" points="23.1586143 91.9348437 26.3229745 88.6457073 22.3581437 84.7568242 19.1875298 88.0396476"></polygon>
                        <polygon id="Fill-178" fill="#FFFFFF" points="23.1586154 91.9348445 26.3229757 88.6457078 25.5350125 87.8691938 22.3643985 91.1583305"></polygon>
                        <path d="M13.9006722,84.8199534 C13.4504075,84.3780348 12.7312347,84.384348 12.2872237,84.8452059 L9.94834867,87.2757579 C9.50433764,87.7239895 9.51684499,88.4563117 9.9671097,88.8982303 L18.3720509,97.1557939 C18.8285693,97.5977125 19.5477421,97.5850862 19.9917531,97.1305414 L22.3306281,94.6999894 C22.7683855,94.2454447 22.7558781,93.5194356 22.3056134,93.0712039 L13.9006722,84.8199534 Z" id="Fill-180" fill="#7D1204"></path>
                        <polygon id="Fill-182" fill="#EE4F14" points="18.688486 96.571196 21.8528463 93.2820595 17.8880155 89.3931764 14.7174016 92.6823129"></polygon>
                        <polygon id="Fill-184" fill="#FFFFFF" points="18.6884872 96.5712003 21.8528475 93.2820636 21.0648842 92.5118627 17.8942703 95.7946862"></polygon>
                        <path d="M7.9096499,88.5750001 C7.32805801,88.000506 6.39626025,88.0131322 5.82717571,88.6002526 L2.81290376,91.7378744 C2.23756555,92.3186817 2.25632658,93.2656501 2.83791847,93.8338311 L13.6817931,104.490382 C14.2696386,105.058563 15.1951827,105.039623 15.7705209,104.458816 L18.7847929,101.327507 C19.3476238,100.740387 19.3351164,99.7934187 18.7535245,99.2252377 L7.9096499,88.5750001 Z" id="Fill-186" fill="#FFE400"></path>
                        <polygon id="Fill-188" fill="#FFFF00" points="14.0839047 103.741013 18.1675555 99.4985948 13.0583017 94.4733494 8.97465098 98.7157676"></polygon>
                        <polygon id="Fill-190" fill="#FFFFDF" points="14.0839048 103.741009 18.1675555 99.4985913 17.1482062 98.4948049 13.0645555 102.737223"></polygon>
                        <polygon id="Fill-192" fill="#A5F8FF" points="103.857931 3.39077777 82.4766116 7.24809551 35.2113254 55.6444913 37.0186379 62.9172083 41.0647665 67.0017984 53.4407921 72.2290637 82.9206226 42.6962774 84.7279351 37.9235569 87.4295233 37.6962845 101.156343 24.0599403"></polygon>
                        <polygon id="Fill-194" fill="#00B6EE" points="103.846048 3.38446477 74.9728241 30.991747 67.6247544 38.0119386 39.22681 65.1457367 37.0067549 62.9108915 35.2119498 55.6318619 52.9598833 37.462697 67.4121294 22.6773654 69.1068757 20.9349438 76.0859785 13.7948028 82.4772358 7.2480954"></polygon>
                        <polygon id="Fill-196" fill="#FFFFFF" points="103.846048 3.39077777 82.4772358 7.2480954 35.2119498 55.6444897 35.2119498 55.7265603 82.8149343 7.92991259"></polygon>
                        <polygon id="Fill-198" fill="#FFFFFF" points="103.846049 3.39077785 101.106938 24.0410009 91.0822949 16.0549012 103.577141 3.32764663"></polygon>
                        <polyline id="Fill-200" fill="#C9FFFF" points="84.8405039 37.2373188 82.9206253 42.6918564 74.5469527 31.7007106 77.8363864 28.9734417 85.0906509 37.0668645"></polyline>
                        <polyline id="Fill-202" fill="#000000" points="83.4052849 8.69253783 90.828399 15.8579315 102.979293 3.58522198 83.5178511 8.35794235"></polyline>
                        <polygon id="Fill-204" fill="#74F8FF" points="87.4301514 37.6937585 79.187806 27.6937727 76.5737693 29.7392243 84.5847287 37.7505766"></polygon>
                        <polyline id="Fill-206" fill="#C9FFFF" points="103.797272 3.78534788 39.2093017 64.7890498 40.3349635 66.4935928 103.578394 3.89898408"></polyline>
                        <path d="M42.8970932,63.1375318 C43.2347917,63.3963698 54.034891,72.3420636 53.6971924,72.2536799 C53.3657476,72.1716093 40.5269498,66.6350013 40.5269498,66.6350013 L42.8970932,63.1375318 Z" id="Fill-208" fill="#74F8FF"></path>
                        <polyline id="Fill-210" fill="#000000" points="35.2144507 55.7265608 61.7988296 43.0308726 42.1935537 62.1217533 36.852914 62.7404392 35.2144507 55.9790857"></polyline>
                        <polygon id="Fill-212" fill="#FFFFFF" points="36.8510381 62.7429661 42.1916779 62.117967 43.3736227 63.3679652 41.0660161 67.0043235"></polygon>
                        <polyline id="Fill-214" fill="#000000" points="78.4830143 12.6445525 78.4767606 12.8718249 78.3641944 24.6836764 69.0274558 21.7354484"></polyline>
                        <polygon id="Fill-216" fill="#5D1204" points="54.2625252 89.1356031 17.766069 52.2922212 24.0072382 45.9917251 45.7950472 61.1558449 60.5036944 82.835107"></polygon>
                        <polygon id="Fill-218" fill="#FFE400" points="54.2625252 89.1356031 17.766069 52.2922212 24.0072382 45.9917251 45.7950472 61.1558449 60.5036944 82.835107"></polygon>
                        <path d="M44.937042,62.021372 C44.937042,62.021372 36.707204,70.1274208 37.0198878,70.4557032 C37.3388253,70.7713593 54.3675858,87.9619908 54.3675858,87.9619908 L58.9515306,82.6842207 L44.937042,62.021372 Z" id="Fill-220" fill="#FFFF00"></path>
                        <polygon id="Fill-222" fill="#FFFFDF" points="58.3355444 82.5699545 53.6828091 75.5245101 48.8674783 82.0901572 54.3144304 87.1659074"></polygon>
                        <polygon id="Fill-224" fill="#FFC800" points="18.688486 52.4652021 24.1479457 46.8086449 44.7913322 61.6002894 24.5919568 49.5232873"></polygon>
                        <polygon id="Fill-226" fill="#FFFFFF" points="76.0828535 13.7973291 74.969699 30.9942744 74.932177 31.4740717 67.6028681 38.2733045 67.6216291 38.0144665 69.1100041 20.9374705"></polygon>
                        <polygon id="Fill-228" fill="#FFFFFF" points="67.4108788 22.6754727 66.3289928 39.1716611 51.6641221 52.9973987 52.9586331 37.4671181"></polygon>
                    </g>
                </g>
            </g>
        </g>
    </g>
</svg>