<?xml version="1.0" encoding="UTF-8"?>
<svg width="98px" height="75px" viewBox="0 0 98 75" version="1.1" xmlns="http://www.w3.org/2000/svg" xmlns:xlink="http://www.w3.org/1999/xlink">
    <!-- Generator: sketchtool 52.4 (67378) - http://www.bohemiancoding.com/sketch -->
    <title>AA8D3A53-7CC3-4567-8E37-3BF2930A8664</title>
    <desc>Created with sketchtool.</desc>
    <g id="ðŸ©-Approved-Screens" stroke="none" stroke-width="1" fill="none" fill-rule="evenodd">
        <g id="Failed-payment-screen---Paypal" transform="translate(-671.000000, -264.000000)" fill="#F44949" fill-rule="nonzero">
            <path d="M767.709546,327.599578 L725.848103,267.008445 C722.932381,262.997185 717.100936,262.997185 714.185213,267.008445 L672.32377,327.599578 C668.991516,332.455313 672.32377,339 678.155215,339 L761.878102,339 C767.50128,338.788881 771.041801,332.244194 767.709546,327.599578 Z M720.016658,329.07741 C717.517468,329.07741 715.434809,326.966221 715.434809,324.432794 C715.434809,321.899367 717.517468,319.788177 720.016658,319.788177 C722.515849,319.788177 724.598508,321.899367 724.598508,324.432794 C724.598508,326.966221 722.515849,329.07741 720.016658,329.07741 Z M724.181976,313.24349 C724.181976,313.876847 723.765444,314.299085 723.140647,314.299085 L717.100936,314.299085 C716.476138,314.299085 716.059606,313.876847 716.059606,313.24349 L714.185213,282.209008 C714.185213,281.575651 714.601745,280.942294 715.226543,280.942294 L725.223305,280.942294 C725.848103,280.942294 726.264635,281.575651 726.264635,282.209008 L724.181976,313.24349 Z" id="Error"></path>
        </g>
    </g>
</svg>