<?xml version="1.0" encoding="UTF-8"?>
<svg width="96px" height="87px" viewBox="0 0 96 87" version="1.1" xmlns="http://www.w3.org/2000/svg" xmlns:xlink="http://www.w3.org/1999/xlink">
    <!-- Generator: sketchtool 52.4 (67378) - http://www.bohemiancoding.com/sketch -->
    <title>309699E9-4807-43B8-9BE5-001514960CF9</title>
    <desc>Created with sketchtool.</desc>
    <g id="ðŸ©-Approved-Screens" stroke="none" stroke-width="1" fill="none" fill-rule="evenodd">
        <g id="successful-payment-screen---Paypal-" transform="translate(-672.000000, -262.000000)" fill="#2FC272">
            <g id="Group" transform="translate(514.000000, 214.000000)">
                <g id="Successful" transform="translate(158.000000, 48.000000)">
                    <polygon id="Path" points="31.2483221 25.0877193 24 31.8421053 47.6778523 55 96 6.75438596 89.2348993 0 47.6778523 41.4912281"></polygon>
                    <path d="M75.9666667,39.15 C76.4444444,40.6 76.4444444,42.05 76.4444444,43.5 C76.4444444,62.35 61.6333333,77.3333333 43,77.3333333 C24.3666667,77.3333333 9.55555556,62.35 9.55555556,43.5 C9.55555556,24.65 24.3666667,9.66666667 43,9.66666667 C48.7333333,9.66666667 54.4666667,11.1166667 59.7222222,14.0166667 L64.5,5.8 C57.8111111,1.93333333 50.6444444,0 43,0 C19.1111111,0 0,19.3333333 0,43.5 C0,67.6666667 19.1111111,87 43,87 C66.8888889,87 86,67.6666667 86,43.5 C86,41.5666667 86,40.1166667 85.5222222,38.1833333 L75.9666667,39.15 Z" id="Path"></path>
                </g>
            </g>
        </g>
    </g>
</svg>