<?xml version="1.0" encoding="UTF-8"?>
<svg width="72px" height="72px" viewBox="0 0 72 72" version="1.1" xmlns="http://www.w3.org/2000/svg" xmlns:xlink="http://www.w3.org/1999/xlink">
    <!-- Generator: Sketch 52.4 (67378) - http://www.bohemiancoding.com/sketch -->
    <title>Group 5</title>
    <desc>Created with Sketch.</desc>
    <defs>
        <linearGradient x1="89.9488729%" y1="16.2910841%" x2="11.5601977%" y2="61.1399191%" id="linearGradient-1">
            <stop stop-color="#FF344D" offset="0%"></stop>
            <stop stop-color="#D2273C" offset="100%"></stop>
        </linearGradient>
    </defs>
    <g id="ðŸ©-Approved-Screens" stroke="none" stroke-width="1" fill="none" fill-rule="evenodd">
        <g id="Before-Start-2-" transform="translate(-683.000000, -437.000000)">
            <g id="Play-Button" transform="translate(683.000000, 437.000000)">
                <g id="Group-5">
                    <circle id="Oval" fill="url(#linearGradient-1)" fill-rule="nonzero" cx="36" cy="36" r="36"></circle>
                    <g id="noun_Refresh_509613" transform="translate(18.000000, 12.000000)" fill="#FFFFFF">
                        <path d="M17.5040988,43.9922112 C8.10618144,43.7923398 0.307909591,35.6975497 0.00797605799,26.1037244 C-0.291957475,15.7104136 7.90622576,7.11594512 18.003988,7.11594512 L18.003988,0.91993294 C18.003988,0.120447497 18.9037886,-0.279295224 19.5036557,0.220383178 L28.7016174,8.11530193 C29.4014623,8.71491601 29.4014623,9.71427281 28.7016174,10.3138869 L19.5036557,18.2088056 C18.9037886,18.708484 18.003988,18.3087413 18.003988,17.5092559 L18.003988,11.3132437 C10.2057162,11.3132437 3.90711199,17.8090629 4.00708983,25.903853 C4.10706767,33.4989647 10.4056719,39.8948483 17.8040323,39.994784 C25.6023042,39.994784 32.0008862,33.5989004 32.0008862,25.604046 C32.0008862,23.5053967 31.500997,21.5066831 30.7011743,19.7078409 C30.3012629,18.9083554 30.6011964,17.9089986 31.3010413,17.3093845 C32.3008198,16.4099634 33.9004653,16.8097061 34.4003545,18.0089343 C35.4001329,20.3074549 36,22.9057826 36,25.604046 C36,35.8974211 27.7018389,44.2920182 17.5040988,43.9922112 Z" id="Path"></path>
                    </g>
                </g>
            </g>
        </g>
    </g>
</svg>