<?xml version="1.0" encoding="UTF-8"?>
<svg width="10px" height="12px" viewBox="0 0 10 12" version="1.1" xmlns="http://www.w3.org/2000/svg" xmlns:xlink="http://www.w3.org/1999/xlink">
    <!-- Generator: sketchtool 52.4 (67378) - http://www.bohemiancoding.com/sketch -->
    <title>5411731D-2A06-40AD-90C5-DB4EBAA14FFA</title>
    <desc>Created with sketchtool.</desc>
    <g id="Page-1" stroke="none" stroke-width="1" fill="none" fill-rule="evenodd">
        <g id="Profile/with-2-console-" transform="translate(-1061.000000, -265.000000)" fill="#FFFFFF" fill-rule="nonzero">
            <g id="Profile-" transform="translate(495.000000, 80.000000)">
                <g id="Stats-" transform="translate(37.000000, 161.000000)">
                    <g id="Stake-Range" transform="translate(483.000000, 0.000000)">
                        <path d="M49.5454976,27.0194381 L55.787865,27.0194381 C55.9091101,27.0194381 56,26.926072 56,26.8016139 L56,24.2179143 C56,24.0933661 55.9091101,24 55.787865,24 L46.212135,24 C46.0909777,24 46,24.0933661 46,24.2179143 L46,32.4046615 C46,32.4669357 46.0303551,32.5292098 46.0909777,32.5914839 L50.8788426,35.9532944 C50.9393775,36.0155685 51.0606225,36.0155685 51.1212451,35.9532944 L55.9091101,32.5914839 C55.9696449,32.5603018 56,32.4980276 56,32.4046615 L56,28.0466455 C56,27.9221874 55.9091101,27.8287312 55.787865,27.8287312 L50.3333275,27.8287312 C50.2121701,27.8287312 50.1211924,27.9221874 50.1211924,28.0466455 L50.1211924,30.2256986 C50.1211924,30.3501567 50.2121701,30.4436129 50.3333275,30.4436129 L52.4545901,30.4436129 C52.5757475,30.4436129 52.6666374,30.536979 52.6666374,30.6615272 L52.6666374,31.0349916 C52.6666374,31.1595399 52.5757475,31.252906 52.4545901,31.252906 L49.5454976,31.252906 C49.4242525,31.252906 49.3333626,31.1595399 49.3333626,31.0349916 L49.3333626,27.2373524 C49.3333626,27.1128944 49.4242525,27.0194381 49.5454976,27.0194381" id="G---Coin"></path>
                    </g>
                </g>
            </g>
        </g>
    </g>
</svg>