<?xml version="1.0" encoding="UTF-8"?>
<svg width="28px" height="28px" viewBox="0 0 28 28" version="1.1" xmlns="http://www.w3.org/2000/svg" xmlns:xlink="http://www.w3.org/1999/xlink">
    <!-- Generator: sketchtool 52.4 (67378) - http://www.bohemiancoding.com/sketch -->
    <title>4CC068ED-CD17-4323-90F4-4D0A583BA353</title>
    <desc>Created with sketchtool.</desc>
    <g id="ðŸ©-Approved-Screens" stroke="none" stroke-width="1" fill="none" fill-rule="evenodd">
        <g id="Wallet-" transform="translate(-418.000000, -589.000000)" fill-rule="nonzero">
            <g id="Table-" transform="translate(275.000000, 345.000000)">
                <g transform="translate(42.000000, 126.000000)" id="Transaction-7-">
                    <g transform="translate(0.000000, 118.000000)">
                        <g id="Wallet-Icon" transform="translate(101.000000, 0.000000)">
                            <g id="noun_sale_2146087">
                                <circle id="Oval" fill="#2FC272" cx="14" cy="14" r="14"></circle>
                                <path d="M16.9750873,17.0989361 L13.0464026,21.0329443 C12.4228861,21.6556852 11.4127885,21.6556852 10.7892721,21.0329443 L6.96705574,17.2107279 C6.34431475,16.5872115 6.34431475,15.5771139 6.96705574,14.9535974 L10.9010639,11.0249127 L16.9750873,17.0989361 Z M21.4999952,8.09703112 L21.4999952,11.913924 C21.5010372,12.3391834 21.3324272,12.7472964 21.0315341,13.0478127 L17.7256897,16.3483337 L11.6516663,10.2743103 L14.9521873,6.96846585 C15.2527036,6.6675728 15.6608166,6.49896275 16.086076,6.5000048 L19.9029689,6.5000048 C20.7849822,6.5000048 21.4999952,7.21501784 21.4999952,8.09703112 Z M20.435311,8.62937322 C20.435311,8.04136437 19.9586356,7.56468901 19.3706268,7.56468901 C18.7826179,7.56468901 18.3059426,8.04136437 18.3059426,8.62937322 C18.3059426,9.21738207 18.7826179,9.69405743 19.3706268,9.69405743 C19.9586356,9.69405743 20.435311,9.21738207 20.435311,8.62937322 Z" id="Promocode-" fill="#FFFFFF"></path>
                            </g>
                        </g>
                    </g>
                </g>
            </g>
        </g>
    </g>
</svg>