<?xml version="1.0" encoding="UTF-8"?>
<svg width="18px" height="18px" viewBox="0 0 18 18" version="1.1" xmlns="http://www.w3.org/2000/svg" xmlns:xlink="http://www.w3.org/1999/xlink">
    <!-- Generator: Sketch 52.5 (67469) - http://www.bohemiancoding.com/sketch -->
    <title>PSN - BG - Small</title>
    <desc>Created with Sketch.</desc>
    <defs>
        <linearGradient x1="50%" y1="0%" x2="50%" y2="100%" id="linearGradient-1">
            <stop stop-color="#0090D0" offset="0%"></stop>
            <stop stop-color="#0057A3" offset="100%"></stop>
        </linearGradient>
        <polygon id="path-2" points="0 0.0477349398 9.64962962 0.0477349398 9.64962962 6.99493976 0 6.99493976"></polygon>
    </defs>
    <g stroke="none" stroke-width="1" fill="none" fill-rule="evenodd">
        <g transform="translate(-101.000000, -195.000000)">
            <g transform="translate(101.000000, 195.000000)">
                <circle fill="url(#linearGradient-1)" fill-rule="nonzero" cx="9" cy="9" r="9"></circle>
                <g transform="translate(4.000000, 6.000000)">
                    <g>
                        <mask id="mask-3" fill="white">
                            <use xlink:href="#path-2"></use>
                        </mask>
                        <g></g>
                        <path d="M1.58387238,5.66645783 C1.81691434,5.73763855 2.23837704,5.71756627 2.52543415,5.62125301 L3.30314394,5.3576988 L3.30314394,6.12095181 C3.25355478,6.12862651 3.199088,6.13706024 3.14850524,6.14473494 C2.37034382,6.26339759 1.54096737,6.21406024 0.724688228,5.96256627 C-0.0366724942,5.76260241 -0.163761655,5.34614458 0.183362471,5.10553012 C0.504562937,4.88338554 1.04977273,4.71698795 1.04977273,4.71698795 L3.30314394,3.96916867 L3.30314394,4.82139759 L1.68160548,5.36360241 C1.39454837,5.45940964 1.35128205,5.59578313 1.58387238,5.66645783" fill="#FFFFFF" mask="url(#mask-3)"></path>
                        <path d="M9.56375291,5.36857831 C9.37497086,5.59072289 8.91367424,5.74936145 8.91367424,5.74936145 L5.47802156,6.90149398 L5.47802156,6.05213253 L8.00625583,5.21036145 C8.29331294,5.11455422 8.33757284,4.97885542 8.10453089,4.90775904 C7.8713986,4.83657831 7.45011655,4.85690361 7.16296911,4.95271084 L5.47802156,5.50714458 L5.47802156,4.62573494 L5.57467075,4.59512048 C5.57467075,4.59512048 6.062162,4.43386747 6.74602273,4.36268675 C7.43078671,4.29336145 8.2691958,4.3723012 8.92713287,4.60557831 C9.66871212,4.82443373 9.75208333,5.14693976 9.56375291,5.36857831" fill="#FFFFFF" mask="url(#mask-3)"></path>
                        <path d="M5.80500291,3.92210843 L5.80500291,1.74940964 C5.80500291,1.49496386 5.75487179,1.26059036 5.49816434,1.19396386 C5.30170455,1.13416867 5.18039627,1.30512048 5.18039627,1.55956627 L5.18039627,7 L3.60799534,6.53412048 L3.60799534,0.0477349398 C4.27686189,0.163445783 5.25021853,0.437289157 5.77402098,0.601325301 C7.10479895,1.02857831 7.55597902,1.55956627 7.55597902,2.75563855 C7.55597902,3.92168675 6.78504371,4.36403614 5.80500291,3.92210843" fill="#FFFFFF" mask="url(#mask-3)"></path>
                    </g>
                </g>
            </g>
        </g>
    </g>
</svg>