<?xml version="1.0" encoding="UTF-8"?>
<svg width="31px" height="23px" viewBox="0 0 31 23" version="1.1" xmlns="http://www.w3.org/2000/svg" xmlns:xlink="http://www.w3.org/1999/xlink">
    <!-- Generator: Sketch 52.5 (67469) - http://www.bohemiancoding.com/sketch -->
    <title>Play Station Logo only</title>
    <desc>Created with Sketch.</desc>
    <defs>
        <polygon id="path-1" points="0 0.156843373 30.8788148 0.156843373 30.8788148 22.9833735 0 22.9833735"></polygon>
    </defs>
    <g stroke="none" stroke-width="1" fill="none" fill-rule="evenodd">
        <g transform="translate(-186.000000, -53.000000)">
            <g transform="translate(186.000000, 53.000000)">
                <g>
                    <mask id="mask-2" fill="white">
                        <use xlink:href="#path-1"></use>
                    </mask>
                    <g></g>
                    <path d="M5.06839161,18.6183614 C5.81412587,18.852241 7.16280653,18.7862892 8.08138928,18.4698313 L10.5700606,17.6038675 L10.5700606,20.1116988 C10.4113753,20.1369157 10.2370816,20.1646265 10.0752168,20.1898434 C7.58510023,20.5797349 4.93109557,20.4176265 2.31900233,19.5912892 C-0.117351981,18.9342651 -0.524037296,17.5659036 0.586759907,16.7753133 C1.6146014,16.0454096 3.35927273,15.4986747 3.35927273,15.4986747 L10.5700606,13.0415542 L10.5700606,15.8417349 L5.38113753,17.6232651 C4.46255478,17.9380602 4.32410256,18.3861446 5.06839161,18.6183614" fill="#FFFFFF" mask="url(#mask-2)"></path>
                    <path d="M30.6040093,17.6396145 C29.9999068,18.3695181 28.5237576,18.890759 28.5237576,18.890759 L17.529669,22.6763373 L17.529669,19.8855783 L25.6200186,17.119759 C26.5386014,16.8049639 26.6802331,16.3590964 25.9344988,16.125494 C25.1884755,15.8916145 23.840373,15.9583976 22.9215012,16.2731928 L17.529669,18.0949036 L17.529669,15.1988434 L17.8389464,15.098253 C17.8389464,15.098253 19.3989184,14.5684217 21.5872727,14.3345422 C23.7785175,14.106759 26.4614266,14.3661325 28.5668252,15.1326145 C30.9398788,15.8517108 31.2066667,16.9113735 30.6040093,17.6396145" fill="#FFFFFF" mask="url(#mask-2)"></path>
                    <path d="M18.5760093,12.8869277 L18.5760093,5.74806024 C18.5760093,4.9120241 18.4155897,4.14193976 17.5941259,3.9230241 C16.9654545,3.72655422 16.5772681,4.28825301 16.5772681,5.12428916 L16.5772681,23 L11.5455851,21.469253 L11.5455851,0.156843373 C13.685958,0.537036145 16.8006993,1.43680723 18.4768671,1.97578313 C22.7353566,3.37961446 24.1791329,5.12428916 24.1791329,9.05424096 C24.1791329,12.8855422 21.7121399,14.3389759 18.5760093,12.8869277" fill="#FFFFFF" mask="url(#mask-2)"></path>
                </g>
            </g>
        </g>
    </g>
</svg>