<?xml version="1.0" encoding="UTF-8"?>
<svg width="20px" height="20px" viewBox="0 0 20 20" version="1.1" xmlns="http://www.w3.org/2000/svg" xmlns:xlink="http://www.w3.org/1999/xlink">
    <!-- Generator: Sketch 52.4 (67378) - http://www.bohemiancoding.com/sketch -->
    <title>question</title>
    <desc>Created with Sketch.</desc>
    <g id="ðŸ©-Approved-Screens" stroke="none" stroke-width="1" fill="none" fill-rule="evenodd">
        <g id="Wallet-" transform="translate(-828.000000, -150.000000)">
            <g id="Balance-" transform="translate(275.000000, 121.000000)">
                <g id="1" transform="translate(554.000000, 30.000000)">
                    <g id="question">
                        <path d="M6.9,7.29453125 C6.9260418,6.76718486 7.11565579,6.31959819 7.46884766,5.95175781 C7.82203953,5.58391743 8.34205386,5.4 9.02890625,5.4 C9.6441437,5.4 10.1429994,5.56845535 10.5254883,5.90537109 C10.9079772,6.24228684 11.0992187,6.66301831 11.0992187,7.16757812 C11.0992187,7.55169463 11.00726,7.88128118 10.8233398,8.15634766 C10.6394197,8.43141414 10.3912125,8.66334541 10.0787109,8.85214844 C9.7694646,9.03444102 9.55950576,9.20777913 9.44882812,9.37216797 C9.33815049,9.53655681 9.2828125,9.74732944 9.2828125,10.0044922 L9.2828125,10.321875 L8.42832031,10.321875 L8.42832031,9.87265625 C8.42506509,9.55038901 8.50318931,9.27207148 8.66269531,9.03769531 C8.82220132,8.80331914 9.06959468,8.58684995 9.40488281,8.38828125 C9.68808735,8.21575435 9.88990825,8.04160244 10.0103516,7.86582031 C10.1307949,7.69003818 10.1910156,7.47194141 10.1910156,7.21152344 C10.1910156,6.90878755 10.082781,6.65813901 9.86630859,6.45957031 C9.64983616,6.26100161 9.35931172,6.16171875 8.99472656,6.16171875 C8.62688618,6.16171875 8.33147898,6.26344299 8.10849609,6.46689453 C7.88551321,6.67034607 7.76100273,6.94622222 7.73496094,7.29453125 L6.9,7.29453125 Z M8.92148437,12.5875 C8.72291567,12.5875 8.56015688,12.5240241 8.43320312,12.3970703 C8.30624937,12.2701166 8.24277344,12.1073578 8.24277344,11.9087891 C8.24277344,11.7069651 8.30624937,11.5425788 8.43320312,11.415625 C8.56015688,11.2886712 8.72291567,11.2251953 8.92148437,11.2251953 C9.12005308,11.2251953 9.28199807,11.2886712 9.40732422,11.415625 C9.53265037,11.5425788 9.5953125,11.7069651 9.5953125,11.9087891 C9.5953125,12.1073578 9.53265037,12.2701166 9.40732422,12.3970703 C9.28199807,12.5240241 9.12005308,12.5875 8.92148437,12.5875 Z" id="?" fill="#FFFFFF"></path>
                        <circle id="Oval" stroke="#FFFFFF" fill-rule="nonzero" cx="9" cy="9" r="9"></circle>
                    </g>
                </g>
            </g>
        </g>
    </g>
</svg>