<?xml version="1.0" encoding="UTF-8"?>
<svg width="139px" height="83px" viewBox="0 0 139 83" version="1.1" xmlns="http://www.w3.org/2000/svg" xmlns:xlink="http://www.w3.org/1999/xlink">
    <!-- Generator: sketchtool 52.4 (67378) - http://www.bohemiancoding.com/sketch -->
    <title>1E95D2A5-D459-4704-84C8-71002736A9B7</title>
    <desc>Created with sketchtool.</desc>
    <defs>
        <linearGradient x1="89.9488729%" y1="16.2910841%" x2="11.5601977%" y2="61.1399191%" id="linearGradient-1">
            <stop stop-color="#FF344D" offset="0%"></stop>
            <stop stop-color="#D2273C" offset="100%"></stop>
        </linearGradient>
    </defs>
    <g id="Page-1" stroke="none" stroke-width="1" fill="none" fill-rule="evenodd">
        <g id="Email-Pop-up" transform="translate(-653.000000, -373.000000)" fill="url(#linearGradient-1)" fill-rule="nonzero">
            <g id="Pop-up" transform="translate(443.000000, 319.000000)">
                <path d="M264.792133,67.9576092 C258.470871,67.9576092 253.292133,73.1265273 253.292133,79.4358676 L253.292133,122.479351 C253.292133,128.788663 258.470871,133.957609 264.792133,133.957609 L333.792133,133.957609 C340.113396,133.957609 345.292133,128.788663 345.292133,122.479351 L345.292133,79.4358676 C345.292133,73.1265273 340.113396,67.9576092 333.792133,67.9576092 L264.792133,67.9576092 Z M265.006419,72.9576092 L333.577847,72.9576092 C336.79299,72.9576092 339.292133,75.4896349 339.292133,78.7470814 L339.292133,122.168137 C339.292133,125.425584 336.79299,127.957609 333.577847,127.957609 L265.006419,127.957609 C261.791276,127.957609 259.292133,125.425584 259.292133,122.168137 L259.292133,78.7470814 C259.292133,75.4896349 261.791276,72.9576092 265.006419,72.9576092 Z M216.125467,79.9576092 C214.560617,79.9576092 213.292133,81.3007092 213.292133,82.9576092 C213.292133,84.6145092 214.560617,85.9576092 216.125467,85.9576092 L244.4588,85.9576092 C246.02365,85.9576092 247.292133,84.6145092 247.292133,82.9576092 C247.292133,81.3007092 246.02365,79.9576092 244.4588,79.9576092 L216.125467,79.9576092 Z M271.869395,81.9766371 C270.758708,82.0843758 269.812963,82.8272089 269.448613,83.8780339 C269.084264,84.928859 269.368168,86.0948497 270.17531,86.8625687 L284.531518,101.076273 L270.264338,114.001712 C269.094698,115.05659 269.004888,116.856359 270.063741,118.021608 C271.122594,119.186856 272.929145,119.276329 274.098785,118.221451 L288.588819,105.073853 L292.913486,109.337939 C296.411228,112.795118 302.121239,112.787016 305.620265,109.337939 L309.945075,105.073853 L324.479622,118.221451 C325.649262,119.276329 327.455813,119.186856 328.514666,118.021608 C329.57352,116.856359 329.48371,115.05659 328.31407,114.001712 L314.002233,101.031784 L328.403097,86.8625687 C329.152602,86.1537204 329.458859,85.0965655 329.20374,84.0988599 C328.948622,83.1011543 328.171999,82.3188223 327.173423,82.0536176 C326.174847,81.7884129 325.110379,82.0817826 324.390595,82.8205707 L301.563107,105.29587 C300.51076,106.33318 297.972914,106.330764 296.926273,105.29587 L274.187812,82.8205707 C273.583411,82.2036229 272.730666,81.8932125 271.869395,81.9766371 Z M222.192133,97.9576092 C220.590463,97.9576092 219.292133,99.3007092 219.292133,100.957609 C219.292133,102.614509 220.590463,103.957609 222.192133,103.957609 L245.392133,103.957609 C246.993803,103.957609 248.292133,102.614509 248.292133,100.957609 C248.292133,99.3007092 246.993803,97.9576092 245.392133,97.9576092 L222.192133,97.9576092 Z M227.167133,114.957609 C225.579271,114.957609 224.292133,116.300709 224.292133,117.957609 C224.292133,119.614509 225.579271,120.957609 227.167133,120.957609 L244.417133,120.957609 C246.004996,120.957609 247.292133,119.614509 247.292133,117.957609 C247.292133,116.300709 246.004996,114.957609 244.417133,114.957609 L227.167133,114.957609 Z" id="Shape" transform="translate(279.292133, 100.957609) rotate(-15.000000) translate(-279.292133, -100.957609) "></path>
            </g>
        </g>
    </g>
</svg>