<?xml version="1.0" encoding="UTF-8"?>
<svg width="83px" height="83px" viewBox="0 0 83 83" version="1.1" xmlns="http://www.w3.org/2000/svg" xmlns:xlink="http://www.w3.org/1999/xlink">
    <!-- Generator: Sketch 52.5 (67469) - http://www.bohemiancoding.com/sketch -->
    <title>Search Opponent</title>
    <desc>Created with Sketch.</desc>
    <g stroke="none" stroke-width="1" fill="none" fill-rule="evenodd">
        <g transform="translate(-760.000000, -365.000000)" fill="#F33149" fill-rule="nonzero">
            <g transform="translate(596.000000, 288.000000)">
                <path d="M212.96653,77 C194.20047,77 178.93306,92.2674104 178.93306,111.03347 C178.93306,119.252289 181.86116,126.79924 186.728874,132.687103 L164,155.415977 L168.584023,160 L191.312897,137.271126 C197.20076,142.13884 204.747711,145.06694 212.96653,145.06694 C231.73259,145.06694 247,129.79953 247,111.03347 C247,92.2674104 231.73259,77 212.96653,77 Z M212.5,138 C197.336697,138 185,125.663303 185,110.5 C185,95.3366968 197.336697,83 212.5,83 C227.663303,83 240,95.3366968 240,110.5 C240,125.663303 227.663303,138 212.5,138 Z M221.210995,111.046982 C222.580745,109.256944 223.399719,107.010024 223.399719,104.5712 C223.399719,98.7422979 218.734693,94 213,94 C207.265307,94 202.599656,98.7422979 202.599656,104.5712 C202.599656,107.010024 203.41863,109.256944 204.789005,111.046982 C200.127105,113.892487 197,119.0815 197,125 L203.399875,125 C203.399875,119.619719 207.706678,115.242165 213,115.242165 C218.293322,115.242165 222.600125,119.619719 222.600125,125 L229,125 C229,119.082136 225.872895,113.892487 221.210995,111.046982 Z M213,100 C215.205689,100 217,101.794311 217,104 C217,106.205689 215.205689,108 213,108 C210.794311,108 209,106.205689 209,104 C209,101.794311 210.794311,100 213,100 Z"></path>
            </g>
        </g>
    </g>
</svg>