<?xml version="1.0" encoding="UTF-8"?>
<svg width="68px" height="15px" viewBox="0 0 68 15" version="1.1" xmlns="http://www.w3.org/2000/svg" xmlns:xlink="http://www.w3.org/1999/xlink">
    <!-- Generator: Sketch 52.4 (67378) - http://www.bohemiancoding.com/sketch -->
    <title>Playstation Logo</title>
    <desc>Created with Sketch.</desc>
    <defs>
        <polygon id="path-1" points="0 0.102289157 18.3446722 0.102289157 18.3446722 14.9891566 0 14.9891566"></polygon>
    </defs>
    <g id="ðŸ©-Approved-Screens" stroke="none" stroke-width="1" fill="none" fill-rule="evenodd">
        <g id="Start-Game-2" transform="translate(-801.000000, -536.000000)">
            <g id="PSN" transform="translate(597.000000, 504.000000)">
                <g id="User-" transform="translate(191.000000, 17.000000)">
                    <g id="Dropdown">
                        <g id="Playstation-Logo" transform="translate(13.000000, 15.000000)">
                            <g id="playstation-4-seeklogo.com">
                                <path d="M17.6275375,14.2205296 C17.5896129,14.2410458 17.5379932,14.2516348 17.4703081,14.2516348 L17.1392573,14.2516348 L17.1392573,13.9679375 L17.4913774,13.9679375 C17.53931,13.9679375 17.5769713,13.9736732 17.6067316,13.9858064 C17.655981,14.0067638 17.6794206,14.045149 17.6794206,14.105374 C17.6794206,14.161187 17.6628286,14.1984691 17.6275375,14.2205296 Z M17.9167132,14.7488772 C17.9030182,14.745127 17.8903766,14.7299052 17.8803687,14.7054182 C17.8790519,14.6886522 17.874838,14.6639445 17.871941,14.6288684 L17.8648301,14.5009178 C17.8621965,14.4395898 17.8511351,14.3970131 17.8226916,14.3674521 C17.8045194,14.349142 17.7808164,14.33017 17.7526363,14.3186985 C17.7892441,14.2970793 17.8200579,14.2747983 17.8427074,14.2454579 C17.874838,14.2053078 17.8903766,14.1547894 17.8903766,14.092579 C17.8903766,13.9736732 17.8298025,13.8913877 17.7133948,13.847708 C17.653084,13.8232209 17.5769713,13.8137349 17.4871636,13.8137349 L16.9325152,13.8137349 L16.9325152,14.8137349 L17.1392573,14.8137349 L17.1392573,14.40319 L17.4647775,14.40319 C17.5224546,14.40319 17.568807,14.4102494 17.5940901,14.4181911 C17.634385,14.4371631 17.6586147,14.4702538 17.6599315,14.5265079 L17.6696761,14.6857844 C17.6738899,14.7230665 17.6754701,14.7488772 17.6781038,14.7640989 C17.6810008,14.7793206 17.6867948,14.7914539 17.6923255,14.8013811 L17.7007532,14.8137349 L17.9325152,14.8137349 L17.9325152,14.7561572 L17.9167132,14.7488772 Z" id="Fill-1" fill="#FFFFFF"></path>
                                <g id="Group-7">
                                    <mask id="mask-2" fill="white">
                                        <use xlink:href="#path-1"></use>
                                    </mask>
                                    <g id="Clip-3"></g>
                                    <path d="M17.230101,14.8498193 C17.074697,14.8498193 16.9270202,14.786747 16.8190101,14.6703614 C16.7084242,14.5556024 16.6490101,14.4007229 16.6490101,14.2368072 C16.6490101,14.0741566 16.7084242,13.9205422 16.8190101,13.8050602 C16.9270202,13.6875904 17.074697,13.6250602 17.230101,13.6250602 C17.3856768,13.6250602 17.5314646,13.6875904 17.6403333,13.8050602 C17.7519495,13.9205422 17.8106768,14.0741566 17.8106768,14.2368072 C17.8106768,14.576747 17.5496667,14.8498193 17.230101,14.8498193 Z M17.7253333,13.7181325 C17.5936263,13.5768072 17.4169293,13.5007229 17.230101,13.5007229 C16.8437374,13.5007229 16.5315556,13.8321687 16.5315556,14.2368072 C16.5315556,14.4343373 16.6040202,14.6195783 16.7357273,14.7578313 C16.8676061,14.8977108 17.0424141,14.9739759 17.230101,14.9739759 C17.4169293,14.9739759 17.5936263,14.8977108 17.7253333,14.7578313 C17.8563535,14.6195783 17.9286465,14.4343373 17.9286465,14.2368072 C17.9286465,14.0421687 17.8563535,13.858012 17.7253333,13.7181325 Z" id="Fill-2" fill="#FFFFFF" mask="url(#mask-2)"></path>
                                    <path d="M3.01106061,12.1424096 C3.45409091,12.2949398 4.25532323,12.2519277 4.8010404,12.0455422 L6.27952525,11.4807831 L6.27952525,13.1163253 C6.18525253,13.1327711 6.08170707,13.1508434 5.98554545,13.1672892 C4.50620202,13.4215663 2.92949495,13.3158434 1.37768687,12.7769277 C-0.0697171717,12.3484337 -0.311323232,11.4560241 0.348585859,10.9404217 C0.959212121,10.4643976 1.99569697,10.1078313 1.99569697,10.1078313 L6.27952525,8.50536145 L6.27952525,10.3315663 L3.19685859,11.4934337 C2.65114141,11.6987349 2.56888889,11.9909639 3.01106061,12.1424096" id="Fill-4" fill="#FFFFFF" mask="url(#mask-2)"></path>
                                    <path d="M18.1814141,11.5040964 C17.8225253,11.9801205 16.9455657,12.3200602 16.9455657,12.3200602 L10.4141313,14.7889157 L10.4141313,12.9688554 L15.2204949,11.1650602 C15.7662121,10.959759 15.8503535,10.6689759 15.4073232,10.5166265 C14.9641212,10.3640964 14.1632323,10.4076506 13.6173434,10.6129518 L10.4141313,11.8010241 L10.4141313,9.91228916 L10.5978687,9.84668675 C10.5978687,9.84668675 11.5246263,9.50114458 12.824697,9.34861446 C14.1264848,9.20006024 15.7203636,9.36921687 16.9711515,9.86909639 C18.3809495,10.3380723 18.5394444,11.0291566 18.1814141,11.5040964" id="Fill-5" fill="#FFFFFF" mask="url(#mask-2)"></path>
                                    <path d="M11.0357475,8.40451807 L11.0357475,3.74873494 C11.0357475,3.20349398 10.9404444,2.70126506 10.4524242,2.55849398 C10.0789394,2.43036145 9.84832323,2.79668675 9.84832323,3.34192771 L9.84832323,15 L6.85907071,14.0016867 L6.85907071,0.102289157 C8.13063636,0.350240964 9.98106061,0.937048193 10.9768485,1.28855422 C13.5067576,2.20409639 14.3644848,3.34192771 14.3644848,5.90493976 C14.3644848,8.40361446 12.8988788,9.35150602 11.0357475,8.40451807" id="Fill-6" fill="#FFFFFF" mask="url(#mask-2)"></path>
                                </g>
                                <path d="M61.5180202,10.7815663 C61.5180202,10.8191566 61.4896869,10.8478916 61.4565455,10.8478916 L53.270101,10.8478916 C53.203303,10.8478916 53.1684444,10.8309036 53.159,10.8048795 C53.1492121,10.7638554 53.1710202,10.7342169 53.2189293,10.6996988 L61.3667374,5.42042169 C61.4237475,5.38373494 61.5180202,5.38933735 61.5180202,5.50716867 L61.5180202,10.7815663 Z M65.2059899,10.8511446 L63.3938586,10.8496988 L63.4568788,10.8496988 C63.4225354,10.8496988 63.3938586,10.8200602 63.3938586,10.7855422 L63.3938586,4.60716867 C63.3938586,3.65783133 62.7694949,3.34662651 61.8933939,3.91608434 L51.3776061,10.7128916 C50.9639394,10.98 50.8253636,11.2816265 50.925303,11.505 C51.0115051,11.6971084 51.2385152,11.8308434 51.6935657,11.8308434 L61.4603232,11.831747 C61.4876263,11.8337349 61.5097778,11.8536145 61.516303,11.88 L61.516303,12.7471084 C61.516303,12.7837952 61.5437778,12.8134337 61.5765758,12.8134337 L63.3327273,12.8134337 C63.3655253,12.8134337 63.3938586,12.7837952 63.3938586,12.7471084 L63.3938586,11.8980723 C63.3938586,11.8613855 63.4225354,11.831747 63.4553333,11.831747 L65.2059899,11.831747 C65.2405051,11.831747 65.2691818,11.8019277 65.2691818,11.7659639 L65.2691818,10.9143976 C65.2691818,10.8807831 65.2405051,10.8511446 65.2059899,10.8511446 Z" id="Fill-8" fill="#FFFFFF"></path>
                                <path d="M34.8165152,8.56807229 L27.4620404,8.56807229 C26.782899,8.56807229 26.3084444,9.17240964 26.3084444,10.0373494 L26.3084444,12.7489157 C26.3084444,12.7846988 26.2811414,12.8134337 26.2471414,12.8134337 L24.4985455,12.8134337 C24.4647172,12.8134337 24.4370707,12.7854217 24.4370707,12.7489157 L24.4362121,10.0373494 C24.4362121,8.63963855 25.3336061,7.58656627 26.5246364,7.58656627 L34.1967879,7.58656627 C35.0191414,7.58656627 35.4089394,6.96379518 35.4089394,6.09939759 C35.4089394,5.23445783 35.0177677,4.61186747 34.1967879,4.61186747 L24.4985455,4.61186747 C24.4636869,4.61186747 24.4362121,4.58295181 24.4362121,4.54753012 L24.4362121,3.6946988 C24.4362121,3.65981928 24.4636869,3.63108434 24.4975152,3.63108434 L34.8165152,3.63108434 C36.4710101,3.63108434 37.2801414,4.70421687 37.2801414,6.10138554 C37.2801414,7.4976506 36.4710101,8.56807229 34.8165152,8.56807229" id="Fill-9" fill="#FFFFFF"></path>
                                <path d="M51.6660909,4.61006024 L46.5818889,4.61006024 C45.7609091,4.61006024 45.370596,5.23228916 45.370596,6.09777108 L45.370596,10.3458434 C45.370596,11.7431928 44.559404,12.8134337 42.9054242,12.8134337 L36.925202,12.8134337 C36.8910303,12.8134337 36.8637273,12.7846988 36.8637273,12.7489157 L36.8637273,11.8962651 C36.8637273,11.859759 36.8910303,11.831747 36.9238283,11.831747 L42.2863838,11.831747 C43.1082222,11.831747 43.4985354,11.2095181 43.4985354,10.3449398 L43.4985354,6.09939759 C43.4985354,4.7036747 44.3081818,3.63 45.9621616,3.63 L51.6660909,3.62909639 C51.6988889,3.62909639 51.7263636,3.65783133 51.7263636,3.69361446 L51.7263636,4.54644578 C51.7263636,4.58114458 51.6997475,4.61006024 51.6660909,4.61006024" id="Fill-10" fill="#FFFFFF"></path>
                                <polyline id="Fill-11" fill="#FFFFFF" points="67.8717273 12.8101807 67.8717273 11.9727108 67.6043636 12.8101807 67.4766061 12.8101807 67.208899 11.9727108 67.208899 12.8101807 67.0809697 12.8101807 67.0809697 11.7791566 67.2593838 11.7791566 67.5404848 12.6556627 67.8224444 11.7791566 68 11.7791566 68 12.8101807 67.8717273 12.8101807"></polyline>
                                <polyline id="Fill-12" fill="#FFFFFF" points="66.6358788 11.8955422 66.6358788 12.8101807 66.5112121 12.8101807 66.5112121 11.8955422 66.1873535 11.8955422 66.1873535 11.7791566 66.956303 11.7791566 66.956303 11.8955422 66.6358788 11.8955422"></polyline>
                            </g>
                        </g>
                    </g>
                </g>
            </g>
        </g>
    </g>
</svg>