<?xml version="1.0" encoding="UTF-8"?>
<svg width="66px" height="20px" viewBox="0 0 66 20" version="1.1" xmlns="http://www.w3.org/2000/svg" xmlns:xlink="http://www.w3.org/1999/xlink">
    <!-- Generator: Sketch 52.4 (67378) - http://www.bohemiancoding.com/sketch -->
    <title>Xbox </title>
    <desc>Created with Sketch.</desc>
    <g id="ðŸ©-Approved-Screens" stroke="none" stroke-width="1" fill="none" fill-rule="evenodd">
        <g id="Start-Game-2" transform="translate(-804.000000, -578.000000)" fill="#FFFFFF">
            <g id="PSN" transform="translate(597.000000, 504.000000)">
                <g id="User-" transform="translate(191.000000, 17.000000)">
                    <g id="Dropdown">
                        <g id="Xbox-" transform="translate(16.000000, 57.000000)">
                            <g id="Shape">
                                <path d="M64.3852875,16.1248408 L60.5448745,10.9342694 L56.7084872,16.1248408 L55.1264303,16.1248408 L59.7437821,9.85206531 L55.5249637,4.15245714 L57.1070206,4.15245714 L60.5448745,8.80192653 L63.9827284,4.15245714 L65.5607598,4.15245714 L61.345967,9.85206531 L65.9633188,16.1248408 L64.3852875,16.1248408 Z M34.4509998,16.1208327 L29.8296224,9.85206531 L34.0484407,4.15245714 L32.4663839,4.15245714 L29.0285299,8.80192653 L25.5947016,4.15245714 L24.0166703,4.15245714 L28.2314631,9.85206531 L23.6100857,16.1208327 L25.1921426,16.1208327 L29.0285299,10.9302612 L32.8689429,16.1208327 L34.4509998,16.1208327 Z" fill-rule="nonzero"></path>
                                <path d="M43.2428884,10.3049878 C43.0053786,10.1045796 42.7396897,9.93623673 42.4538728,9.80396735 C43.3435282,9.33100408 43.8990596,8.40912653 43.8990596,7.40708571 C43.8990596,6.64152653 43.6172683,4.14844898 39.9902117,4.14844898 L35.1071709,4.14844898 L35.1071709,9.31096327 L33.4808325,9.31096327 C33.2715019,9.58351837 32.7924566,10.2408571 32.6072795,10.5134122 L35.1071709,10.5134122 L35.1071709,16.1208327 L39.9902117,16.1208327 C42.6350243,16.1208327 44.2774651,14.7821061 44.2774651,12.6257143 C44.2814907,11.6837959 43.9232132,10.8861714 43.2428884,10.3049878 Z M36.4597692,5.39899592 L39.9942373,5.39899592 C40.9483021,5.39899592 42.550487,5.63547755 42.550487,7.30287347 C42.550487,8.56143673 41.6165501,9.31096327 39.9942373,9.31096327 L36.4597692,9.31096327 L36.4597692,5.39899592 Z M39.9902117,14.8742939 L36.4557436,14.8742939 L36.4557436,10.5174204 L39.9902117,10.5174204 C41.3307332,10.5174204 42.932918,10.8861714 42.932918,12.6016653 C42.932918,14.5776898 41.0891978,14.8742939 39.9902117,14.8742939 Z M50.6338718,3.87589388 C47.2564017,3.87589388 44.8933804,6.44913469 44.8933804,10.1326367 C44.8933804,13.8201469 47.2523761,16.3893796 50.6338718,16.3893796 C54.0073163,16.3893796 56.3622865,13.8201469 56.3622865,10.1326367 C56.3622865,6.44913469 54.0073163,3.87589388 50.6338718,3.87589388 Z M50.6338718,15.1228 C48.0615198,15.1228 46.2580554,13.0706204 46.2580554,10.1326367 C46.2580554,7.19465306 48.0615198,5.14247347 50.6338718,5.14247347 C53.2021983,5.14247347 54.9976114,7.19465306 54.9976114,10.1326367 C54.9976114,13.0706204 53.2021983,15.1228 50.6338718,15.1228 Z M2.99503901,2.8698449 L2.98698783,2.87786122 C1.07483255,4.75368163 2.87790625e-15,7.3108898 0.00402559006,9.98032653 C2.87790625e-15,12.1647755 0.720580621,14.289102 2.05305093,16.0246367 C2.0651277,16.0406694 2.08928124,16.0526939 2.1053836,16.0406694 C2.12148596,16.0286449 2.12551155,16.0086041 2.11746037,15.9885633 C1.35259826,13.6357714 5.25742062,7.9321551 7.27826683,5.5432898 C7.28631801,5.53527347 7.29436919,5.52725714 7.29436919,5.51523265 C7.29436919,5.50320816 7.28631801,5.49118367 7.27424124,5.48316735 C3.87664323,2.12031837 2.97088547,2.88988571 2.98296224,2.87786122 L2.99503901,2.8698449 Z M17.0604507,2.8698449 L17.0685019,2.87786122 C18.9806571,4.74967347 20.0514641,7.3108898 20.0474385,9.98032653 C20.0514641,12.1647755 19.3308835,14.289102 17.9984132,16.0246367 C17.9863364,16.0406694 17.9621829,16.0526939 17.9460805,16.0406694 C17.9299781,16.0286449 17.9299781,16.0086041 17.9340037,15.9885633 C18.6988658,13.6357714 14.7940435,7.92814694 12.7772229,5.53928163 C12.7691717,5.53126531 12.7611205,5.52324898 12.7611205,5.51122449 C12.7611205,5.49519184 12.7691717,5.48717551 12.7812484,5.47915918 C16.1788465,2.1163102 17.0805786,2.88988571 17.0685019,2.87786122 L17.0604507,2.8698449 Z M10.0277448,-4.47641924e-13 C12.0485911,-4.47641924e-13 13.7151853,0.553126531 15.2489352,1.45897143 C15.2690631,1.46698776 15.2730887,1.49103673 15.2650375,1.50706939 C15.2569863,1.52310204 15.2368584,1.5271102 15.2167304,1.52310204 C13.276396,1.10625306 10.3256385,2.77364898 10.0478728,2.94199184 C10.0398216,2.946 10.035796,2.95000816 10.0277448,2.95000816 C10.0196937,2.95000816 10.0116425,2.946 10.0076169,2.94199184 C9.26690832,2.51712653 6.54158385,1.09422857 4.82265689,1.53512653 C4.80252894,1.53913469 4.78240099,1.53512653 4.77434981,1.51909388 C4.76629863,1.49905306 4.77434981,1.47901224 4.79045217,1.47099592 C6.32420199,0.553126531 8.01092422,-4.47641924e-13 10.0277448,-4.47641924e-13 Z M10.0277448,8.00430204 C10.0398216,8.00430204 10.0518984,8.01231837 10.0599496,8.02033469 C13.0590142,10.2929633 18.1916415,15.9043918 16.625687,17.4916245 L16.6297125,17.4876163 L16.6297125,17.4916245 L16.625687,17.4916245 C14.7980691,19.0868735 12.4511501,19.9646612 10.0237193,19.9606531 C7.59628845,19.9646612 5.24936944,19.0868735 3.42577714,17.4916245 L3.42175155,17.4876163 L3.42577714,17.4916245 C1.85982261,15.9043918 6.99244994,10.2889551 9.99151453,8.02033469 C9.99956571,8.01231837 10.0156681,8.00430204 10.0277448,8.00430204 Z" fill-rule="nonzero"></path>
                            </g>
                        </g>
                    </g>
                </g>
            </g>
        </g>
    </g>
</svg>