<?xml version="1.0" encoding="UTF-8"?>
<svg width="67px" height="21px" viewBox="0 0 67 21" version="1.1" xmlns="http://www.w3.org/2000/svg" xmlns:xlink="http://www.w3.org/1999/xlink">
    <!-- Generator: Sketch 52.4 (67378) - http://www.bohemiancoding.com/sketch -->
    <title>Steam logo</title>
    <desc>Created with Sketch.</desc>
    <g id="ðŸ©-Approved-Screens" stroke="none" stroke-width="1" fill="none" fill-rule="evenodd">
        <g id="Start-Game-3" transform="translate(-803.000000, -533.000000)" fill="#FFFFFF">
            <g id="PSN" transform="translate(597.000000, 504.000000)">
                <g id="User-" transform="translate(191.000000, 17.000000)">
                    <g id="Dropdown">
                        <g id="Steam-logo" transform="translate(15.000000, 12.000000)">
                            <g id="steam-seeklogo.com" transform="translate(0.000000, 0.000000)">
                                <path d="M10.2551799,0.00889380174 C4.84952574,0.00889380174 0.420910963,4.25701615 0,9.65567676 L5.51562992,11.9795411 C5.98288492,11.6540771 6.54753543,11.4634957 7.15491823,11.4634957 C7.20909449,11.4634957 7.26335191,11.4650531 7.31728468,11.468045 L9.77031254,7.84482495 C9.77031254,7.82748819 9.76982556,7.81084817 9.76982556,7.79351141 C9.76982556,5.61268565 11.5107299,3.83818776 13.6506717,3.83818776 C15.7906541,3.83818776 17.531599,5.61268565 17.531599,7.79351141 C17.531599,9.97446013 15.7906541,11.7491629 13.6506717,11.7491629 C13.6212096,11.7491629 13.5918692,11.7481383 13.5627317,11.7475645 L10.0645687,14.2915197 C10.0663137,14.3382019 10.0676124,14.385089 10.0676124,14.4320581 C10.0676124,16.0692554 8.76097032,17.4010715 7.15491823,17.4010715 C5.74507753,17.4010715 4.56610478,16.3752104 4.29887583,15.0167949 L0.354235615,13.3549245 C1.57569715,17.7571514 5.54423985,20.9844539 10.2551799,20.9844539 C15.9386548,20.9844539 20.5457874,16.2886085 20.5457874,10.4969402 C20.5457874,4.70445225 15.9386548,0.00889380174 10.2551799,0.00889380174" id="Fill-1"></path>
                                <path d="M6.44884131,15.9225692 L5.1846069,15.3904165 C5.40877892,15.8655587 5.79633192,16.2634846 6.31098607,16.4824688 C7.42332405,16.95466 8.70569836,16.4166875 9.16950394,15.2822974 C9.3937977,14.7332178 9.39533979,14.1274967 9.17279104,13.5775154 C8.95064809,13.0274932 8.53131981,12.5982136 7.99231678,12.369106 C7.45749364,12.1423755 6.88468625,12.1506136 6.38111084,12.3442279 L7.68694125,12.894537 C8.50741732,13.2432806 8.89537614,14.2032784 8.55355845,15.0393778 C8.21194367,15.8759689 7.26915506,16.2712308 6.44884131,15.9225692" id="Fill-3"></path>
                                <path d="M16.236685,7.79367535 C16.236685,6.34046093 15.0763798,5.15799515 13.6506717,5.15799515 C12.2247202,5.15799515 11.064699,6.34046093 11.064699,7.79367535 C11.064699,9.24668484 12.2247202,10.4286998 13.6506717,10.4286998 C15.0763798,10.4286998 16.236685,9.24668484 16.236685,7.79367535 M11.7123792,7.78896204 C11.7123792,6.69535231 12.5824052,5.8094149 13.6548922,5.8094149 C14.7281908,5.8094149 15.5976893,6.69535231 15.5976893,7.78896204 C15.5976893,8.88228488 14.7281908,9.76855017 13.6548922,9.76855017 C12.5824052,9.76855017 11.7123792,8.88228488 11.7123792,7.78896204" id="Fill-4"></path>
                                <path d="M31.3531187,7.28176943 L30.6842144,8.48009651 C30.1690733,8.11299152 29.4711127,7.8922449 28.8614979,7.8922449 C28.164917,7.8922449 27.7340636,8.18602726 27.7340636,8.71244195 C27.7340636,9.35226287 28.4997547,9.50091641 29.6375778,9.91736766 C30.8607438,10.3580822 31.5639394,10.8766277 31.5639394,12.0180672 C31.5639394,13.5802205 30.3581829,14.4576329 28.6260442,14.4576329 C27.7816251,14.4576329 26.7630709,14.2354109 25.979808,13.7502683 L26.4678813,12.4213622 C27.1039146,12.7641629 27.8648982,12.966958 28.5431769,12.966958 C29.4574367,12.966958 29.8920236,12.6233376 29.8920236,12.1149154 C29.8920236,11.5335805 29.2293689,11.3584504 28.1594385,10.9976572 C26.9405336,10.5828044 26.0956275,10.0382742 26.0956275,8.77453463 C26.0956275,7.34980497 27.2155136,6.53120634 28.8268819,6.53120634 C29.9495681,6.53120634 30.8524246,6.89400787 31.3531187,7.28176943" id="Fill-5"></path>
                                <polyline id="Fill-6" points="36.5813507 8.03893115 36.5813507 14.3262342 35.0068304 14.3262342 35.0068304 8.03893115 32.7205924 8.03893115 32.7205924 6.66248213 38.8602435 6.66248213 38.8602435 8.03893115 36.5813507 8.03893115"></polyline>
                                <polyline id="Fill-7" points="42.1799697 8.03483263 42.1799697 9.76170563 45.1939552 9.76170563 45.1939552 11.1381547 42.1799697 11.1381547 42.1799697 12.9373257 45.6768746 12.9373257 45.6768746 14.3262342 40.6058147 14.3262342 40.6058147 6.66248213 45.6768746 6.66248213 45.6768746 8.03483263 42.1799697 8.03483263"></polyline>
                                <path d="M49.1916354,12.8383872 L48.6937008,14.3262342 L47.0432526,14.3262342 L49.8628528,6.66240016 L51.4475591,6.66240016 L54.3471048,14.3262342 L52.6402483,14.3262342 L52.1317626,12.8383872 L49.1916354,12.8383872 Z M50.6460751,8.49075268 L49.6197698,11.5591553 L51.6947002,11.5591553 L50.6460751,8.49075268 Z" id="Fill-8"></path>
                                <polyline id="Fill-9" points="62.4289037 9.62477387 60.3714234 14.1027826 59.4826893 14.1027826 57.45808 9.66469352 57.45808 14.3262342 55.9500727 14.3262342 55.9500727 6.66248213 57.4544276 6.66248213 59.9822471 12.1945088 62.4191641 6.66248213 63.936911 6.66248213 63.936911 14.3262342 62.4293095 14.3262342 62.4289037 9.62477387"></polyline>
                                <path d="M66.9817383,7.62936544 C66.9817383,8.28791662 66.4971956,8.69838401 65.9416354,8.69838401 C65.384046,8.69838401 64.8982859,8.28791662 64.8982859,7.62936544 C64.8982859,6.97085524 65.384046,6.5630109 65.9416354,6.5630109 C66.4971956,6.5630109 66.9817383,6.97085524 66.9817383,7.62936544 Z M65.073192,7.62936544 C65.073192,8.1803303 65.4627741,8.52624591 65.9416354,8.52624591 C66.4188734,8.52624591 66.8064264,8.1803303 66.8064264,7.62936544 C66.8064264,7.07672017 66.4188734,6.73584575 65.9416354,6.73584575 C65.4635857,6.73584575 65.073192,7.0808187 65.073192,7.62936544 Z M65.9562447,7.08446638 C66.2257056,7.08446638 66.3162023,7.22992308 66.3162023,7.38706057 C66.3162023,7.53087785 66.2326045,7.6275211 66.130745,7.67666243 L66.3722047,8.13815647 L66.174573,8.13815647 L65.970854,7.72900061 L65.7602362,7.72900061 L65.7602362,8.13815647 L65.5958813,8.13815647 L65.5958813,7.08446638 L65.9562447,7.08446638 Z M65.7622653,7.57465011 L65.9460993,7.57465011 C66.065003,7.57465011 66.135209,7.49862245 66.135209,7.40279891 C66.135209,7.3066065 66.0848879,7.24434989 65.9456935,7.24434989 L65.7622653,7.24434989 L65.7622653,7.57465011 Z" id="Fill-10"></path>
                            </g>
                        </g>
                    </g>
                </g>
            </g>
        </g>
    </g>
</svg>