<?xml version="1.0" encoding="UTF-8"?>
<svg width="23px" height="21px" viewBox="0 0 23 21" version="1.1" xmlns="http://www.w3.org/2000/svg" xmlns:xlink="http://www.w3.org/1999/xlink">
    <!-- Generator: sketchtool 52.4 (67378) - http://www.bohemiancoding.com/sketch -->
    <title>59EA39A9-C283-41EC-B524-4A1140A28C92</title>
    <desc>Created with sketchtool.</desc>
    <defs>
        <path d="M406.882898,567.084173 C406.780515,566.995583 406.634814,566.97503 406.511323,567.031535 L384.198941,577.25885 C384.078819,577.31393 384.001464,577.432163 384.000021,577.56281 C383.998577,577.693456 384.073387,577.813317 384.19234,577.870907 L390.50671,580.928004 C390.6225,580.984102 390.760569,580.971417 390.863983,580.895173 L397.003291,576.368406 L392.183679,581.259165 C392.11492,581.328965 392.079853,581.424542 392.087417,581.521543 L392.567287,587.686815 C392.577945,587.823431 392.67077,587.940239 392.802719,587.983042 C392.837993,587.994438 392.874229,588 392.910052,588 C393.008309,588 393.103885,587.958418 393.170375,587.882445 L396.521839,584.051103 L400.664929,586.004014 C400.754866,586.04641 400.858967,586.048174 400.950348,586.008966 C401.041729,585.969691 401.111314,585.893311 401.141155,585.799566 L406.98418,567.440771 C407.025023,567.312567 406.985211,567.172763 406.882898,567.084173 Z" id="path-1"></path>
    </defs>
    <g id="ðŸ©-Approved-Screens" stroke="none" stroke-width="1" fill="none" fill-rule="evenodd">
        <g id="Start-Game---PSN-Copy-16" transform="translate(-1352.000000, -968.000000)">
            <g id="Group-5" transform="translate(364.000000, 401.000000)">
                <g id="Group" transform="translate(604.000000, 0.000000)">
                    <mask id="mask-2" fill="white">
                        <use xlink:href="#path-1"></use>
                    </mask>
                    <use id="Send" fill="#FFFFFF" fill-rule="nonzero" xlink:href="#path-1"></use>
                </g>
            </g>
        </g>
    </g>
</svg>