<?xml version="1.0" encoding="UTF-8"?>
<svg width="139px" height="83px" viewBox="0 0 139 83" version="1.1" xmlns="http://www.w3.org/2000/svg" xmlns:xlink="http://www.w3.org/1999/xlink">
    <!-- Generator: sketchtool 52.4 (67378) - http://www.bohemiancoding.com/sketch -->
    <title>99D7B9B6-0692-4059-9C34-9A77B22249A8</title>
    <desc>Created with sketchtool.</desc>
    <defs>
        <linearGradient x1="89.9488729%" y1="16.2910841%" x2="11.5601977%" y2="61.1399191%" id="linearGradient-1">
            <stop stop-color="#FF344D" offset="0%"></stop>
            <stop stop-color="#D2273C" offset="100%"></stop>
        </linearGradient>
    </defs>
    <g id="Page-1" stroke="none" stroke-width="1" fill="none" fill-rule="evenodd">
        <g id="Code-after-register" transform="translate(-653.000000, -315.000000)" fill="url(#linearGradient-1)" fill-rule="nonzero">
            <path d="M707.792133,328.957609 C701.470871,328.957609 696.292133,334.126527 696.292133,340.435868 L696.292133,383.479351 C696.292133,389.788663 701.470871,394.957609 707.792133,394.957609 L776.792133,394.957609 C783.113396,394.957609 788.292133,389.788663 788.292133,383.479351 L788.292133,340.435868 C788.292133,334.126527 783.113396,328.957609 776.792133,328.957609 L707.792133,328.957609 Z M708.006419,333.957609 L776.577847,333.957609 C779.79299,333.957609 782.292133,336.489635 782.292133,339.747081 L782.292133,383.168137 C782.292133,386.425584 779.79299,388.957609 776.577847,388.957609 L708.006419,388.957609 C704.791276,388.957609 702.292133,386.425584 702.292133,383.168137 L702.292133,339.747081 C702.292133,336.489635 704.791276,333.957609 708.006419,333.957609 Z M659.125467,340.957609 C657.560617,340.957609 656.292133,342.300709 656.292133,343.957609 C656.292133,345.614509 657.560617,346.957609 659.125467,346.957609 L687.4588,346.957609 C689.02365,346.957609 690.292133,345.614509 690.292133,343.957609 C690.292133,342.300709 689.02365,340.957609 687.4588,340.957609 L659.125467,340.957609 Z M714.869395,342.976637 C713.758708,343.084376 712.812963,343.827209 712.448613,344.878034 C712.084264,345.928859 712.368168,347.09485 713.17531,347.862569 L727.531518,362.076273 L713.264338,375.001712 C712.094698,376.05659 712.004888,377.856359 713.063741,379.021608 C714.122594,380.186856 715.929145,380.276329 717.098785,379.221451 L731.588819,366.073853 L735.913486,370.337939 C739.411228,373.795118 745.121239,373.787016 748.620265,370.337939 L752.945075,366.073853 L767.479622,379.221451 C768.649262,380.276329 770.455813,380.186856 771.514666,379.021608 C772.57352,377.856359 772.48371,376.05659 771.31407,375.001712 L757.002233,362.031784 L771.403097,347.862569 C772.152602,347.15372 772.458859,346.096565 772.20374,345.09886 C771.948622,344.101154 771.171999,343.318822 770.173423,343.053618 C769.174847,342.788413 768.110379,343.081783 767.390595,343.820571 L744.563107,366.29587 C743.51076,367.33318 740.972914,367.330764 739.926273,366.29587 L717.187812,343.820571 C716.583411,343.203623 715.730666,342.893212 714.869395,342.976637 Z M665.192133,358.957609 C663.590463,358.957609 662.292133,360.300709 662.292133,361.957609 C662.292133,363.614509 663.590463,364.957609 665.192133,364.957609 L688.392133,364.957609 C689.993803,364.957609 691.292133,363.614509 691.292133,361.957609 C691.292133,360.300709 689.993803,358.957609 688.392133,358.957609 L665.192133,358.957609 Z M670.167133,375.957609 C668.579271,375.957609 667.292133,377.300709 667.292133,378.957609 C667.292133,380.614509 668.579271,381.957609 670.167133,381.957609 L687.417133,381.957609 C689.004996,381.957609 690.292133,380.614509 690.292133,378.957609 C690.292133,377.300709 689.004996,375.957609 687.417133,375.957609 L670.167133,375.957609 Z" id="Shape" transform="translate(722.292133, 361.957609) rotate(-15.000000) translate(-722.292133, -361.957609) "></path>
        </g>
    </g>
</svg>