<?xml version="1.0" encoding="UTF-8"?>
<svg width="58px" height="92px" viewBox="0 0 58 92" version="1.1" xmlns="http://www.w3.org/2000/svg" xmlns:xlink="http://www.w3.org/1999/xlink">
    <!-- Generator: Sketch 52.4 (67378) - http://www.bohemiancoding.com/sketch -->
    <title>noun_password_1492472</title>
    <desc>Created with Sketch.</desc>
    <defs>
        <linearGradient x1="89.9488729%" y1="16.2910841%" x2="11.5601977%" y2="61.1399191%" id="linearGradient-1">
            <stop stop-color="#FF344D" offset="0%"></stop>
            <stop stop-color="#D2273C" offset="100%"></stop>
        </linearGradient>
    </defs>
    <g id="First-Sprint-" stroke="none" stroke-width="1" fill="none" fill-rule="evenodd">
        <g id="Settings/Password-Settings" transform="translate(-743.000000, -212.000000)" fill="url(#linearGradient-1)" fill-rule="nonzero">
            <g id="noun_password_1492472" transform="translate(743.000000, 212.000000)">
                <path d="M29,0.769 C13.164,0.769 0.33,13.602 0.33,29.44 L0.33,86.247 C0.33,89 2.562,91.232 5.315,91.232 L52.676,91.232 C55.429,91.232 57.661,89 57.661,86.247 L57.671,29.44 C57.671,13.602 44.835,0.769 29,0.769 Z M32.428,62.672 L32.428,71.651 C32.428,73.542 30.892,75.078 29,75.078 C27.106,75.078 25.572,73.542 25.572,71.651 L25.572,62.672 C24.13,61.613 23.183,59.919 23.183,57.994 C23.183,54.783 25.787,52.178 29,52.178 C32.212,52.178 34.816,54.783 34.816,57.994 C34.815,59.919 33.868,61.613 32.428,62.672 Z M50.127,33.826 L7.873,33.826 L7.873,29.439 C7.873,17.791 17.351,8.312 28.999,8.312 C40.648,8.312 50.127,17.791 50.127,29.439 L50.127,33.826 Z" id="Shape"></path>
            </g>
        </g>
    </g>
</svg>