<?xml version="1.0" encoding="UTF-8"?>
<svg width="6px" height="11px" viewBox="0 0 6 11" version="1.1" xmlns="http://www.w3.org/2000/svg" xmlns:xlink="http://www.w3.org/1999/xlink">
    <!-- Generator: sketchtool 52.4 (67378) - http://www.bohemiancoding.com/sketch -->
    <title>8165CAE5-7378-4844-A2C8-CA4DD3A06ED0</title>
    <desc>Created with sketchtool.</desc>
    <g id="Page-1" stroke="none" stroke-width="1" fill="none" fill-rule="evenodd">
        <g id="Friends/Profile-from-search" transform="translate(-319.000000, -130.000000)" fill="#A0A6D0">
            <g id="Profile" transform="translate(275.000000, 87.000000)">
                <g id="Back-to-All-Friends-" transform="translate(44.000000, 39.000000)">
                    <path d="M1.78987785,9.48888142 L5.80350828,13.665295 C6.09594402,13.9695913 6.09594402,14.450498 5.80350828,14.7547942 C5.52564719,15.0439247 5.06600973,15.0530603 4.77687926,14.7751992 C4.76994309,14.7685334 4.76314008,14.7617304 4.75647425,14.7547942 L0.219326809,10.033631 C-0.0731089364,9.72933479 -0.0731089364,9.24842806 0.219326809,8.94413182 L4.75647425,4.22296861 C5.03433534,3.93383815 5.49397281,3.92470251 5.78310327,4.2025636 C5.79003944,4.20922942 5.79684245,4.21603244 5.80350828,4.22296861 C6.09594402,4.52726484 6.09594402,5.00817158 5.80350828,5.31246781 L1.78987785,9.48888142 Z" id="Combined-Shape" transform="translate(3.011418, 9.488881) rotate(-360.000000) translate(-3.011418, -9.488881) "></path>
                </g>
            </g>
        </g>
    </g>
</svg>