<?xml version="1.0" encoding="UTF-8"?>
<svg width="20px" height="20px" viewBox="0 0 20 20" version="1.1" xmlns="http://www.w3.org/2000/svg" xmlns:xlink="http://www.w3.org/1999/xlink">
    <!-- Generator: sketchtool 52.4 (67378) - http://www.bohemiancoding.com/sketch -->
    <title>846A4B0D-A3E7-46E0-9BA0-02797CFEEB13</title>
    <desc>Created with sketchtool.</desc>
    <g id="ðŸ©-Approved-Screens" stroke="none" stroke-width="1" fill="none" fill-rule="evenodd">
        <g id="Start-Game---PSN-Copy-15" transform="translate(-1302.000000, -969.000000)" fill="#F44A4A" fill-rule="nonzero">
            <g id="Group-5" transform="translate(364.000000, 401.000000)">
                <g id="Group" transform="translate(604.000000, 0.000000)">
                    <path d="M344,568 C338.5,568 334,572.5 334,578 C334,583.5 338.5,588 344,588 C349.5,588 354,583.5 354,578 C354,572.5 349.5,568 344,568 Z M347.5,574 C348.3,574 349,574.7 349,575.5 C349,576.3 348.3,577 347.5,577 C346.7,577 346,576.3 346,575.5 C346,574.7 346.7,574 347.5,574 Z M340.5,574 C341.3,574 342,574.7 342,575.5 C342,576.3 341.3,577 340.5,577 C339.7,577 339,576.3 339,575.5 C339,574.7 339.7,574 340.5,574 Z M343.5,584 C340.946429,584 338.785714,582.3 338,580 L349,580 C348.214286,582.3 346.053571,584 343.5,584 Z" id="Smiles"></path>
                </g>
            </g>
        </g>
    </g>
</svg>