<?xml version="1.0" encoding="UTF-8"?>
<svg width="18px" height="18px" viewBox="0 0 18 18" version="1.1" xmlns="http://www.w3.org/2000/svg" xmlns:xlink="http://www.w3.org/1999/xlink">
    <!-- Generator: Sketch 52.5 (67469) - http://www.bohemiancoding.com/sketch -->
    <title>Steam  - BG - Small</title>
    <desc>Created with Sketch.</desc>
    <defs>
        <linearGradient x1="0%" y1="0%" x2="100%" y2="100%" id="linearGradient-1">
            <stop stop-color="#4F4F4F" offset="0%"></stop>
            <stop stop-color="#212121" offset="100%"></stop>
        </linearGradient>
        <circle id="path-2" cx="9" cy="9" r="9"></circle>
        <filter x="-208.3%" y="-125.0%" width="516.7%" height="516.7%" filterUnits="objectBoundingBox" id="filter-3">
            <feOffset dx="0" dy="15" in="SourceAlpha" result="shadowOffsetOuter1"></feOffset>
            <feGaussianBlur stdDeviation="10" in="shadowOffsetOuter1" result="shadowBlurOuter1"></feGaussianBlur>
            <feColorMatrix values="0 0 0 0 0   0 0 0 0 0   0 0 0 0 0  0 0 0 0 0" type="matrix" in="shadowBlurOuter1"></feColorMatrix>
        </filter>
    </defs>
    <g stroke="none" stroke-width="1" fill="none" fill-rule="evenodd">
        <g transform="translate(-154.000000, -195.000000)">
            <g transform="translate(154.000000, 195.000000)">
                <g fill-rule="nonzero">
                    <use fill="black" fill-opacity="1" filter="url(#filter-3)" xlink:href="#path-2"></use>
                    <use fill="url(#linearGradient-1)" xlink:href="#path-2"></use>
                </g>
                <g transform="translate(4.000000, 4.000000)" fill="#FFFFFF">
                    <g>
                        <path d="M4.91075156,0.00423514368 C2.32222315,0.00423514368 0.201555623,2.02715055 -7.81597009e-14,4.59794132 L2.64119094,5.70454337 C2.86493867,5.54956054 3.1353248,5.45880746 3.42617353,5.45880746 C3.45211614,5.45880746 3.47809762,5.45954909 3.50392363,5.46097382 L4.67857006,3.73563093 C4.67857006,3.72737533 4.67833687,3.71945151 4.67833687,3.71119591 C4.67833687,2.67270745 5.51197885,1.82770846 6.53670225,1.82770846 C7.56144508,1.82770846 8.3951065,2.67270745 8.3951065,3.71119591 C8.3951065,4.74974292 7.56144508,5.59483949 6.53670225,5.59483949 C6.52259413,5.59483949 6.50854432,5.59435157 6.49459166,5.59407834 L4.81947633,6.80548556 C4.82031193,6.82771519 4.82093378,6.8500424 4.82093378,6.87240864 C4.82093378,7.65202638 4.19524076,8.28622451 3.42617353,8.28622451 C2.75106324,8.28622451 2.1865054,7.79771923 2.05854129,7.1508547 L0.169627751,6.35948785 C0.754531597,8.45578639 2.65489098,9.99259708 4.91075156,9.99259708 C7.63231602,9.99259708 9.83846785,7.75648025 9.83846785,4.99854297 C9.83846785,2.24021536 7.63231602,0.00423514368 4.91075156,0.00423514368"></path>
                        <path d="M3.08806456,7.58217579 L2.48267868,7.32876977 C2.59002473,7.55502793 2.7756067,7.74451645 3.02205179,7.84879467 C3.55470119,8.07364762 4.16877347,7.81747022 4.39086942,7.27728447 C4.49827377,7.01581802 4.49901221,6.72737937 4.39244347,6.46548355 C4.28606905,6.20356821 4.0852713,5.99914934 3.82716662,5.89005047 C3.5710635,5.78208359 3.2967714,5.78600646 3.05563144,5.87820378 L3.6809358,6.14025574 C4.07382546,6.30632411 4.25960176,6.76346591 4.0959204,7.16160845 C3.93233621,7.55998519 3.48087649,7.74820513 3.08806456,7.58217579"></path>
                        <path d="M7.77502953,3.71127398 C7.77502953,3.01926711 7.21941071,2.45618817 6.53670225,2.45618817 C5.8538772,2.45618817 5.29839441,3.01926711 5.29839441,3.71127398 C5.29839441,4.40318326 5.8538772,4.96604751 6.53670225,4.96604751 C7.21941071,4.96604751 7.77502953,4.40318326 7.77502953,3.71127398 M5.60853977,3.70902954 C5.60853977,3.18826301 6.02515672,2.76638805 6.53872325,2.76638805 C7.05267843,2.76638805 7.46904275,3.18826301 7.46904275,3.70902954 C7.46904275,4.22965947 7.05267843,4.65169056 6.53872325,4.65169056 C6.02515672,4.65169056 5.60853977,4.22965947 5.60853977,3.70902954"></path>
                    </g>
                </g>
            </g>
        </g>
    </g>
</svg>