<?xml version="1.0" encoding="UTF-8"?>
<svg width="31px" height="31px" viewBox="0 0 31 31" version="1.1" xmlns="http://www.w3.org/2000/svg" xmlns:xlink="http://www.w3.org/1999/xlink">
    <!-- Generator: Sketch 52.5 (67469) - http://www.bohemiancoding.com/sketch -->
    <title>Steam logo only</title>
    <desc>Created with Sketch.</desc>
    <g stroke="none" stroke-width="1" fill="none" fill-rule="evenodd">
        <g transform="translate(-112.000000, -49.000000)" fill="#FFFFFF">
            <g transform="translate(112.000000, 49.000000)">
                <g>
                    <path d="M15.2233299,0.0131289454 C7.19889176,0.0131289454 0.624822431,6.2841667 -7.81597009e-14,14.2536181 L8.18769193,17.6840845 C8.88130989,17.2036377 9.71950689,16.9223031 10.6211379,16.9223031 C10.70156,16.9223031 10.7821026,16.9246022 10.8621633,16.9290188 L14.5035672,11.5804559 C14.5035672,11.5548635 14.5028443,11.5302997 14.5028443,11.5047073 C14.5028443,8.2853931 17.0871344,5.66589622 20.263777,5.66589622 C23.4404798,5.66589622 26.0248302,8.2853931 26.0248302,11.5047073 C26.0248302,14.724203 23.4404798,17.3440024 20.263777,17.3440024 C20.2200418,17.3440024 20.1764874,17.3424899 20.1332342,17.3416428 L14.9403766,21.0970052 C14.942967,21.1659171 14.9448947,21.2351314 14.9448947,21.3044668 C14.9448947,23.7212818 13.0052464,25.687296 10.6211379,25.687296 C8.52829606,25.687296 6.77816674,24.1729296 6.38147799,22.1676496 L0.525846028,19.7144123 C2.33904795,26.2129378 8.23016202,30.9770509 15.2233299,30.9770509 C23.6601797,30.9770509 30.4992503,24.0450888 30.4992503,15.4954832 C30.4992503,6.94466761 23.6601797,0.0131289454 15.2233299,0.0131289454"></path>
                    <path d="M9.57300013,23.5047449 L7.69630391,22.7191863 C8.02907667,23.4205866 8.60438078,24.008001 9.36836054,24.3312635 C11.0195737,25.0283076 12.9231978,24.2341577 13.6116952,22.5595819 C13.9446487,21.7490359 13.9469379,20.854876 13.6165748,20.042999 C13.2868141,19.2310614 12.664341,18.5973629 11.8642165,18.2591565 C11.0702968,17.9244591 10.2199913,17.93662 9.47245745,18.2224317 L11.410901,19.0347928 C12.6288589,19.5496048 13.2047654,20.9667443 12.6973532,22.2009862 C12.1902423,23.4359541 10.7907171,24.0194359 9.57300013,23.5047449"></path>
                    <path d="M24.1025915,11.5049493 C24.1025915,9.35972804 22.3801732,7.61418332 20.263777,7.61418332 C18.1470193,7.61418332 16.4250227,9.35972804 16.4250227,11.5049493 C16.4250227,13.6498681 18.1470193,15.3947473 20.263777,15.3947473 C22.3801732,15.3947473 24.1025915,13.6498681 24.1025915,11.5049493 M17.3864733,11.4979916 C17.3864733,9.88361532 18.6779858,8.57580295 20.2700421,8.57580295 C21.8633031,8.57580295 23.1540325,9.88361532 23.1540325,11.4979916 C23.1540325,13.1119443 21.8633031,14.4202407 20.2700421,14.4202407 C18.6779858,14.4202407 17.3864733,13.1119443 17.3864733,11.4979916"></path>
                </g>
            </g>
        </g>
    </g>
</svg>