<?xml version="1.0" encoding="UTF-8"?>
<svg width="104px" height="111px" viewBox="0 0 104 111" version="1.1" xmlns="http://www.w3.org/2000/svg" xmlns:xlink="http://www.w3.org/1999/xlink">
    <!-- Generator: sketchtool 52.4 (67378) - http://www.bohemiancoding.com/sketch -->
    <title>9A3F9F25-4FC3-499E-8B9D-8714E5AA9A2F</title>
    <desc>Created with sketchtool.</desc>
    <defs>
        <linearGradient x1="89.9488729%" y1="16.2910841%" x2="11.5601977%" y2="61.1399191%" id="linearGradient-1">
            <stop stop-color="#FF344D" offset="0%"></stop>
            <stop stop-color="#D2273C" offset="100%"></stop>
        </linearGradient>
    </defs>
    <g id="ðŸ©-Approved-Screens" stroke="none" stroke-width="1" fill="none" fill-rule="evenodd">
        <g id="Dispute-upload/Result-Copy" transform="translate(-789.000000, -323.000000)" fill="url(#linearGradient-1)" fill-rule="nonzero">
            <g id="Group" transform="translate(630.000000, 197.000000)">
                <g id="Appri" transform="translate(209.237244, 177.237244) rotate(-15.000000) translate(-209.237244, -177.237244) translate(159.237244, 127.237244)">
                    <g id="noun_like_576529">
                        <g id="Group">
                            <path d="M25.7520475,37.5 L27.9202283,37.5 C30.9444449,37.5 33.7649577,36.146875 35.6547014,33.790625 C41.1108268,26.984375 45.0971517,19.2875 47.4977215,10.9125 L48.7262116,6.628125 C49.845015,2.728125 53.470941,0 57.5418812,0 L59.491169,0 C64.5492888,0 68.6609698,4.1 68.6609698,9.14375 L68.6609698,12.765625 C68.6609698,21.2875 67.0501435,29.615625 63.8817674,37.51875 L87.4581211,37.5 C94.3746454,37.5 100.000002,43.109375 100.000002,50.00625 L100.000002,60.58125 C100.000002,70.55625 97.3769247,80.409375 92.412822,89.06875 L88.8746453,95.24375 C87.1917393,98.178125 84.0421666,100 80.6544173,100 L42.6715106,100 C40.7378923,100 38.8042741,99.54375 37.0712256,98.68125 L30.5273202,95.4185927 C29.2213963,97.9464428 26.5697213,99.6794885 23.5200148,99.6794885 L7.86726723,99.6794885 C3.52941777,99.6794885 -7.10542736e-15,96.1732385 -7.10542736e-15,91.8607385 L-7.10542736e-15,44.9982385 C-6.81075851e-15,40.6888635 3.52941777,37.1794885 7.86726723,37.1794885 L23.5200148,37.1794885 C24.2949047,37.1794885 25.0440977,37.2914737 25.7520475,37.5 Z M31.2278386,43.4137973 C31.3344163,43.9256535 31.3904277,44.4556037 31.3904277,44.9982385 L31.3904277,88.8598579 L39.876069,93.090625 C40.7410262,93.521875 41.7062684,93.75 42.6715106,93.75 L80.6544173,93.75 C81.7982919,93.75 82.863819,93.134375 83.4341894,92.140625 L86.9723661,85.965625 C91.3943035,78.25 93.7321953,69.46875 93.7321953,60.58125 L93.7321953,50.00625 C93.7321953,46.55625 90.9179502,43.75 87.4581211,43.75 L63.8692318,43.75 C61.791454,43.75 59.8547018,42.725 58.6888898,41.009375 C57.5262117,39.29375 57.291169,37.11875 58.0621092,35.196875 C60.9358984,28.034375 62.3931634,20.4875 62.3931634,12.765625 L62.3931634,9.14375 C62.3931634,7.55 61.0925936,6.25 59.491169,6.25 L57.5418812,6.25 C56.253847,6.25 55.1068385,7.1125 54.7527074,8.346875 L53.5242173,12.63125 C50.8917387,21.809375 46.5262115,30.240625 40.5467242,37.696875 C38.1648364,40.66819 34.8780245,42.6607127 31.2278386,43.4137973 Z M17.1351377,43.4294885 L7.86726738,43.4294885 C6.99906837,43.4294885 6.29129744,44.1326135 6.29129744,44.9982385 L6.29129744,91.8607385 C6.29129744,92.7232385 6.99906837,93.4294885 7.86726738,93.4294885 L23.5200147,93.4294885 C24.350891,93.4294885 25.0330346,92.7873166 25.0946048,91.979845 C24.6938718,91.1483748 24.664875,90.1494023 25.0991302,89.2578879 L25.0991303,44.9982385 C25.0991303,44.4894084 24.8545741,44.036727 24.475993,43.75 L18.5185187,43.75 C18.0220537,43.75 17.5524326,43.6346929 17.1351377,43.4294885 Z M15.3846151,87.820514 C13.6144716,87.820514 12.1794868,86.3855292 12.1794868,84.6153857 C12.1794868,82.8452423 13.6144716,81.4102574 15.3846151,81.4102574 C17.1547586,81.4102574 18.5897434,82.8452423 18.5897434,84.6153857 C18.5897434,86.3855292 17.1547586,87.820514 15.3846151,87.820514 Z" id="Combined-Shape"></path>
                        </g>
                    </g>
                </g>
            </g>
        </g>
    </g>
</svg>