<?xml version="1.0" encoding="UTF-8"?>
<svg width="55px" height="54px" viewBox="0 0 55 54" version="1.1" xmlns="http://www.w3.org/2000/svg" xmlns:xlink="http://www.w3.org/1999/xlink">
    <!-- Generator: sketchtool 52.4 (67378) - http://www.bohemiancoding.com/sketch -->
    <title>6F092741-D833-44D2-A136-8DE91BB8571E</title>
    <desc>Created with sketchtool.</desc>
    <g id="Page-1" stroke="none" stroke-width="1" fill="none" fill-rule="evenodd">
        <g id="Login" transform="translate(-903.000000, -687.000000)">
            <g id="Social" transform="translate(828.000000, 640.000000)">
                <g id="Twitch" transform="translate(76.000000, 48.000000)">
                    <ellipse id="Oval-Copy" stroke="#FFFFFF" fill="#19214D" fill-rule="nonzero" opacity="0.75" cx="26.5" cy="26" rx="26.5" ry="26"></ellipse>
                    <g id="twitch" transform="translate(15.142857, 14.857143)" fill="#FFFFFF">
                        <path d="M1.51428571,0 L0,4.64285714 L0,21.6666667 L6.05714286,21.6666667 L6.05714286,24.7619048 L9.08571429,24.7619048 L12.1142857,21.6666667 L16.6571429,21.6666667 L22.7142857,15.0738095 L22.7142857,0 L1.51428571,0 Z M21.2,13.9285714 L16.96,18.5714286 L11.5903429,18.5714286 L8.32857143,20.9965476 L8.32857143,18.5714286 L3.02857143,18.5714286 L3.02857143,1.54761905 L21.2,1.54761905 L21.2,13.9285714 Z" id="Shape" fill-rule="nonzero"></path>
                        <rect id="Rectangle" x="10.0952381" y="6.19047619" width="1.26190476" height="6.19047619"></rect>
                        <rect id="Rectangle" x="15.1428571" y="6.19047619" width="1.26190476" height="6.19047619"></rect>
                    </g>
                </g>
            </g>
        </g>
    </g>
</svg>