<?xml version="1.0" encoding="UTF-8"?>
<svg width="20px" height="20px" viewBox="0 0 20 20" version="1.1" xmlns="http://www.w3.org/2000/svg" xmlns:xlink="http://www.w3.org/1999/xlink">
    <!-- Generator: sketchtool 52.4 (67378) - http://www.bohemiancoding.com/sketch -->
    <title>5415D0E2-5F65-4789-89D1-9FC1A23B88F0</title>
    <desc>Created with sketchtool.</desc>
    <g id="Page-1" stroke="none" stroke-width="1" fill="none" fill-rule="evenodd">
        <g id="Friends/Friend-Profile" transform="translate(-904.000000, -248.000000)" fill="#FFFFFF" fill-rule="nonzero">
            <g id="Group-2" transform="translate(890.000000, 235.000000)">
                <path d="M24.0000134,13 C18.4860208,13 14.0000269,17.2498246 14.0000269,22.4736842 C14.0000269,24.2996491 14.5486928,26.0684211 15.5893581,27.5978947 C15.3923583,29.8915789 14.864359,31.594386 14.0976934,32.4010526 C13.9963602,32.5077193 13.9710269,32.6708772 14.0350268,32.805614 C14.0916934,32.9259649 14.2083599,33 14.3333598,33 C14.3486931,33 14.3640264,32.9989474 14.379693,32.9964912 C14.5146929,32.9764912 17.6506886,32.5014035 19.9190189,31.1231579 C21.2070172,31.6701754 22.5790153,31.9473684 24.0000134,31.9473684 C29.514006,31.9473684 34,27.6975439 34,22.4736842 C34,17.2498246 29.514006,13 24.0000134,13 Z M19.5,24 C18.67275,24 18,23.32725 18,22.5 C18,21.67275 18.67275,21 19.5,21 C20.32725,21 21,21.67275 21,22.5 C21,23.32725 20.32725,24 19.5,24 Z M24.5,24 C23.67275,24 23,23.32725 23,22.5 C23,21.67275 23.67275,21 24.5,21 C25.32725,21 26,21.67275 26,22.5 C26,23.32725 25.32725,24 24.5,24 Z M29.5,24 C28.67275,24 28,23.32725 28,22.5 C28,21.67275 28.67275,21 29.5,21 C30.32725,21 31,21.67275 31,22.5 C31,23.32725 30.32725,24 29.5,24 Z" id="Shape"></path>
            </g>
        </g>
    </g>
</svg>