<?xml version="1.0" encoding="UTF-8"?>
<svg width="100px" height="25px" viewBox="0 0 100 25" version="1.1" xmlns="http://www.w3.org/2000/svg" xmlns:xlink="http://www.w3.org/1999/xlink">
    <!-- Generator: sketchtool 52.4 (67378) - http://www.bohemiancoding.com/sketch -->
    <title>7EE079E7-D6D0-46EB-A6E1-409E540A1E12</title>
    <desc>Created with sketchtool.</desc>
    <g id="ðŸ©-Approved-Screens" stroke="none" stroke-width="1" fill="none" fill-rule="evenodd">
        <g id="Not-Selected-" transform="translate(-167.000000, -487.000000)">
            <g id="Group" transform="translate(101.000000, 409.000000)">
                <g id="card" transform="translate(66.000000, 78.000000)">
                    <polygon id="Path" fill="#0B8AD8" points="69.6764303 7 67 23.155 71.2548403 23.155 73.8626503 7"></polygon>
                    <path d="M62.6174,7 L58.6371,18.0894 L58.1567,15.69357 L56.71556,8.43752 C56.71556,8.43752 56.57831,7 54.72539,7 L48.0686264,7 L48,7.273813 L48.0686264,7.273813 L48.137253,7.273813 L48.205879,7.273813 L48.274506,7.273813 C48.343132,7.273813 48.343132,7.273813 48.411759,7.273813 C48.480385,7.273813 48.549012,7.273813 48.617638,7.342266 C48.686264,7.342266 48.686264,7.342266 48.754891,7.41072 C48.823517,7.41072 48.823517,7.41072 48.892144,7.479173 C48.96077,7.479173 48.96077,7.479173 49.0294,7.547626 C49.09802,7.547626 49.16665,7.61608 49.23528,7.61608 C49.3039,7.61608 49.37253,7.684533 49.37253,7.684533 C49.44116,7.684533 49.50978,7.752986 49.57841,7.752986 C49.64703,7.752986 49.71566,7.821439 49.78429,7.821439 C49.92154,7.889893 50.05879,7.889893 50.12742,7.958346 C50.19605,7.958346 50.26467,8.0268 50.3333,8.0268 C50.40193,8.0268 50.47055,8.09525 50.53918,8.09525 C50.60781,8.09525 50.67643,8.16371 50.74506,8.16371 C50.81368,8.23216 50.88231,8.23216 50.95094,8.30061 C51.01956,8.36907 51.08819,8.36907 51.22544,8.43752 C51.3627,8.57443 51.43132,8.57443 51.49995,8.64288 C51.6372,8.71133 51.77445,8.77979 51.91171,8.84824 C51.98033,8.84824 52.04896,8.91669 52.11759,8.98514 C52.18621,9.0536 52.32347,9.12205 52.39209,9.1905 L56.02929,23.155 L60.4214,23.155 L67.0782,7.0684533 L62.6174,7.0684533 L62.6174,7 Z" id="Path" fill="#0B8AD8"></path>
                    <path d="M96.5979005,7 L93.2351805,7 C91.6567705,7 91.3136305,8.23216 91.3136305,8.23216 L85,23.155 L89.3920905,23.155 L90.2842405,20.7591 L95.6371005,20.7591 L96.1175005,23.155 L99.9606005,23.155 L96.5979005,7 Z M91.4508905,17.4049 L93.6469305,11.38101 L94.8822105,17.4049 L91.4508905,17.4049 Z" id="Shape" fill="#0B8AD8" fill-rule="nonzero"></path>
                    <path d="M79.1077505,11.79173 C79.1077505,9.94349 83.2253005,10.2173 85.0096005,11.17565 L85.5586005,7.684533 C85.5586005,7.684533 83.7057005,7 81.7841805,7 C79.7253905,7 74.7156605,7.889893 74.7156605,12.33936 C74.7156605,16.51501 80.5489105,16.58346 80.5489105,18.7055 C80.5489105,20.896 75.3333005,20.4853 73.6176395,19.1162 L73,22.7443 C73,22.7443 74.8529105,23.6341 77.7352305,23.6341 C80.6175405,23.6341 84.9410005,22.1282 84.9410005,18.0894 C84.9410005,13.98223 79.1077505,13.57151 79.1077505,11.79173 Z" id="Path" fill="#0B8AD8"></path>
                    <path d="M15.2855,12.285 C15.2855,8.38408074 17.101,4.89071708 19.9707,2.67825244 C17.8624,0.989787862 15.2269,0 12.3572,0 C5.50512,0 0,5.47293938 0,12.285 C0,19.0970706 5.50512,24.57 12.3572,24.57 C15.2269,24.57 17.9209,23.580252 20.0293,21.9499499 C17.101,19.6210607 15.2855,16.1277269 15.2855,12.285 Z" id="Path" fill="#E20C16"></path>
                    <path d="M15.2,12.30943 C15.2,16.2283 17.0541885,19.7377 19.9849999,21.9604 C22.9158113,19.6792 24.77,16.2283 24.77,12.30943 C24.77,8.39057 22.9158113,4.88113 19.9849999,2.6 C17.0541885,4.88113 15.2,8.39057 15.2,12.30943 Z" id="Path" fill="#EA6008"></path>
                    <path d="M27.6720309,0 C24.8023409,0 22.1083409,0.99434 20,2.63208 C22.8696909,4.91321 24.6852109,8.36415 24.6852109,12.283 C24.6852109,16.2019 22.8696909,19.7113 20,21.934 C22.1083409,23.5717 24.7437809,24.566 27.6720309,24.566 C34.4656009,24.566 40.0293009,19.0679 40.0293009,12.2245 C40.0293009,5.38113 34.4656009,0 27.6720309,0 Z" id="Path" fill="#F59E00"></path>
                </g>
            </g>
        </g>
    </g>
</svg>