<?xml version="1.0" encoding="UTF-8"?>
<svg width="28px" height="28px" viewBox="0 0 28 28" version="1.1" xmlns="http://www.w3.org/2000/svg" xmlns:xlink="http://www.w3.org/1999/xlink">
    <!-- Generator: sketchtool 52.4 (67378) - http://www.bohemiancoding.com/sketch -->
    <title>5399CB1C-2016-4025-BE66-319F9FE253C2</title>
    <desc>Created with sketchtool.</desc>
    <g id="ðŸ©-Approved-Screens" stroke="none" stroke-width="1" fill="none" fill-rule="evenodd">
        <g id="Wallet---Game-History" transform="translate(-433.000000, -471.000000)">
            <g id="gamepad_green" transform="translate(433.000000, 471.000000)">
                <circle id="Oval" fill="#2FC272" cx="14" cy="14" r="14"></circle>
                <g id="Gamepad-menu" transform="translate(13.691513, 13.833382) rotate(-15.000000) translate(-13.691513, -13.833382) translate(6.279748, 9.303970)" fill="#FFFFFF" fill-rule="nonzero">
                    <g id="Gamepad-">
                        <path d="M13.4981823,1.60203834 C11.5402708,-1.36573204 8.59082638,0.698981288 8.59082638,0.698981288 C8.39954095,0.83236136 8.04682388,0.942023753 7.80716424,0.942533811 L7.01714435,0.943043868 C6.77748472,0.943298897 6.42476765,0.833636504 6.23375864,0.700256432 C6.23375864,0.700256432 3.28403777,-1.36496695 1.32584991,1.60280343 C-0.631785099,4.56955369 0.157129095,7.8005138 0.157129095,7.8005138 C0.295341112,8.5916132 0.750887921,9.11952286 1.61056667,9.05321537 C2.4677576,8.9871629 4.32836777,6.92270461 4.32836777,6.92270461 C4.48205953,6.75260038 4.80409353,6.61360968 5.04320032,6.61360968 L9.77944973,6.61284459 C10.0188329,6.61284459 10.3405905,6.7518353 10.4940059,6.92193952 C10.4940059,6.92193952 12.3548925,8.98639782 13.2134655,9.05245028 C14.0720386,9.11875777 14.5286911,8.59033806 14.6660738,7.79974872 C14.6657974,7.79974872 15.4560937,4.56929866 13.4981823,1.60203834 Z M5.53762515,3.98681078 L4.49119428,3.98681078 L4.49119428,4.88563865 C4.49119428,4.88563865 4.26960386,5.03641632 3.92667986,5.0326088 C3.58432551,5.02803978 3.4293831,4.86812407 3.4293831,4.86812407 L3.4293831,3.98706461 L2.44105564,3.98706461 C2.44105564,3.98706461 2.31772832,3.87436211 2.28468914,3.57762961 C2.25221959,3.28089711 2.4211182,3.04102354 2.4211182,3.04102354 L3.46783389,3.04102354 L3.46783389,2.10843569 C3.46783389,2.10843569 3.68315825,2.00563273 3.99275824,2.01350159 C4.30264305,2.02213197 4.52964506,2.12595027 4.52964506,2.12595027 L4.52537275,3.0407697 L5.51370022,3.0407697 C5.51370022,3.0407697 5.6863015,3.23825292 5.70054253,3.47685733 C5.71478356,3.71571556 5.53762515,3.98681078 5.53762515,3.98681078 Z M9.97693431,5.03267987 C9.50366774,5.03267987 9.12217194,4.6949469 9.12217194,4.2777779 C9.12217194,3.85983011 9.50366774,3.52287593 9.97693431,3.52287593 C10.4481419,3.52287593 10.8325791,3.85983011 10.8325791,4.2777779 C10.8325791,4.6952065 10.4481419,5.03267987 9.97693431,5.03267987 Z M9.97693431,3.01960786 C9.50366774,3.01960786 9.12217194,2.68207646 9.12217194,2.26483572 C9.12217194,1.84681606 9.50366774,1.50980393 9.97693431,1.50980393 C10.4481419,1.50980393 10.8325791,1.84681606 10.8325791,2.26483572 C10.8325791,2.6823361 10.4481419,3.01960786 9.97693431,3.01960786 Z M12.257477,4.02614372 C11.7842104,4.02614372 11.4027146,3.68867035 11.4027146,3.27124175 C11.4027146,2.85355356 11.7842104,2.51633979 12.257477,2.51633979 C12.7286846,2.51633979 13.1131218,2.85355356 13.1131218,3.27124175 C13.1131218,3.68867035 12.7286846,4.02614372 12.257477,4.02614372 Z" id="Shape"></path>
                    </g>
                </g>
            </g>
        </g>
    </g>
</svg>