<?xml version="1.0" encoding="UTF-8"?>
<svg width="28px" height="28px" viewBox="0 0 28 28" version="1.1" xmlns="http://www.w3.org/2000/svg" xmlns:xlink="http://www.w3.org/1999/xlink">
    <!-- Generator: sketchtool 52.4 (67378) - http://www.bohemiancoding.com/sketch -->
    <title>042B8DE1-2679-4CAB-9533-9A747692ADA6</title>
    <desc>Created with sketchtool.</desc>
    <g id="ðŸ©-Approved-Screens" stroke="none" stroke-width="1" fill="none" fill-rule="evenodd">
        <g id="Wallet---Game-History" transform="translate(-433.000000, -651.000000)">
            <g id="gamepad_white" transform="translate(433.000000, 651.000000)">
                <circle id="Oval" fill="#FFFFFF" cx="14" cy="14" r="14"></circle>
                <g id="Gamepad-menu" transform="translate(13.561463, 14.123876) rotate(-15.000000) translate(-13.561463, -14.123876) translate(5.561463, 9.123876)" fill="#F54D4D" fill-rule="nonzero">
                    <g id="Gamepad-" transform="translate(0.000000, -0.000000)">
                        <path d="M14.2872219,1.82569019 C12.3293105,-1.14208016 9.37986597,0.922633148 9.37986597,0.922633148 C9.18858054,1.05601322 8.83586347,1.16567561 8.59620383,1.16618567 L7.80618393,1.16669573 C7.56652429,1.16695076 7.21380722,1.05728836 7.02279821,0.923908292 C7.02279821,0.923908292 4.0730773,-1.14131508 2.11488942,1.82645528 C0.15725439,4.79320552 0.946168593,8.02416562 0.946168593,8.02416562 C1.08438061,8.81526502 1.53992743,9.34317467 2.39960618,9.27686718 C3.25679712,9.21081471 5.11740732,7.14635643 5.11740732,7.14635643 C5.27109908,6.97625221 5.59313309,6.8372615 5.83223988,6.8372615 L10.5684893,6.83649641 C10.8078726,6.83649641 11.1296301,6.97548712 11.2830455,7.14559134 C11.2830455,7.14559134 13.1439321,9.21004963 14.0025052,9.27610209 C14.8610782,9.34240958 15.3177307,8.81398987 15.4551135,8.02340054 C15.454837,8.02340054 16.2451334,4.79295049 14.2872219,1.82569019 Z M6.3266648,4.21046267 L5.28023388,4.21046267 L5.28023388,5.10929053 C5.28023388,5.10929053 5.05864345,5.2600682 4.71571944,5.25626069 C4.37336507,5.25169167 4.21842266,5.09177595 4.21842266,5.09177595 L4.21842266,4.2107165 L3.23009515,4.2107165 C3.23009515,4.2107165 3.10676782,4.098014 3.07372863,3.8012815 C3.04125908,3.50454901 3.2101577,3.26467543 3.2101577,3.26467543 L4.25687344,3.26467543 L4.25687344,2.33208759 C4.25687344,2.33208759 4.47219782,2.22928463 4.78179782,2.23715349 C5.09168264,2.24578387 5.31868467,2.34960217 5.31868467,2.34960217 L5.31441236,3.2644216 L6.30273987,3.2644216 C6.30273987,3.2644216 6.47534116,3.46190481 6.48958219,3.70050922 C6.50382322,3.93936745 6.3266648,4.21046267 6.3266648,4.21046267 Z M10.7659739,5.2563316 C10.2927073,5.2563316 9.91121144,4.91859864 9.91121144,4.50142964 C9.91121144,4.08348186 10.2927073,3.74652768 10.7659739,3.74652768 C11.2371815,3.74652768 11.6216187,4.08348186 11.6216187,4.50142964 C11.6216187,4.91885824 11.2371815,5.2563316 10.7659739,5.2563316 Z M10.7659739,3.24325971 C10.2927073,3.24325971 9.91121144,2.90572831 9.91121144,2.48848757 C9.91121144,2.07046791 10.2927073,1.73345579 10.7659739,1.73345579 C11.2371815,1.73345579 11.6216187,2.07046791 11.6216187,2.48848757 C11.6216187,2.90598795 11.2371815,3.24325971 10.7659739,3.24325971 Z M13.0465168,4.24979566 C12.5732502,4.24979566 12.1917544,3.91232229 12.1917544,3.49489369 C12.1917544,3.07720551 12.5732502,2.73999173 13.0465168,2.73999173 C13.5177245,2.73999173 13.9021617,3.07720551 13.9021617,3.49489369 C13.9021617,3.91232229 13.5177245,4.24979566 13.0465168,4.24979566 Z" id="Shape"></path>
                    </g>
                </g>
            </g>
        </g>
    </g>
</svg>