<?xml version="1.0" encoding="UTF-8"?>
<svg width="28px" height="28px" viewBox="0 0 28 28" version="1.1" xmlns="http://www.w3.org/2000/svg" xmlns:xlink="http://www.w3.org/1999/xlink">
    <!-- Generator: sketchtool 52.4 (67378) - http://www.bohemiancoding.com/sketch -->
    <title>F0D8DC57-839F-4A46-A02D-471F7D7B56BC</title>
    <desc>Created with sketchtool.</desc>
    <g id="ðŸ©-Approved-Screens" stroke="none" stroke-width="1" fill="none" fill-rule="evenodd">
        <g id="Wallet-" transform="translate(-418.000000, -530.000000)">
            <g id="Table-" transform="translate(275.000000, 345.000000)">
                <g transform="translate(42.000000, 126.000000)" id="Transaction-3-">
                    <g transform="translate(0.000000, 59.000000)">
                        <g id="Wallet-Icon2" transform="translate(101.000000, 0.000000)">
                            <circle id="Oval" fill="#F54D4D" fill-rule="nonzero" cx="14" cy="14" r="14"></circle>
                            <g id="wallet" transform="translate(7.000000, 8.000000)" fill="#FFFFFF">
                                <g>
                                    <path d="M10.2693511,9.25364172 C9.5991811,9.25361342 9.05394361,8.74771718 9.05394361,8.12586809 L9.05394361,6.25296235 C9.05394361,5.63111327 9.5991811,5.12521702 10.2693511,5.12521702 L13.4362792,5.12521702 C13.4554644,5.12521702 13.4745276,5.12575476 13.4934993,5.12654721 L13.4934993,3.26083015 C13.4934993,2.78057541 13.0739263,2.39125464 12.5563533,2.39125464 L0.937176497,2.39125464 C0.419572997,2.39122634 0,2.78054711 0,3.26080185 L0,11.1180003 C0,11.598255 0.419572997,11.9876041 0.937176497,11.9876041 L12.5563533,11.9876041 C13.0739263,11.9876041 13.4934993,11.5982833 13.4934993,11.1180003 L13.4934993,9.25228323 C13.4745276,9.25310399 13.4554644,9.25364172 13.4362792,9.25364172 L10.2693511,9.25364172 Z" id="Path"></path>
                                    <path d="M13.4362786,5.74316046 L10.2693504,5.74316046 C9.96592556,5.74316046 9.71993427,5.97141519 9.71993427,6.25296237 L9.71993427,8.12586809 C9.71993427,8.40741527 9.96592556,8.63567 10.2693504,8.63567 L13.4362786,8.63567 C13.7397034,8.63567 13.9856947,8.40744357 13.9856947,8.12586809 L13.9856947,6.25296237 C13.9856947,5.97138689 13.7397034,5.74316046 13.4362786,5.74316046 Z M11.3606184,7.92520766 C10.9226532,7.92520766 10.5676205,7.59577369 10.5676205,7.18938689 C10.5676205,6.78300009 10.9226532,6.45356612 11.3606184,6.45356612 C11.7985835,6.45356612 12.1536162,6.78300009 12.1536162,7.18938689 C12.1536162,7.59577369 11.7985835,7.92520766 11.3606184,7.92520766 Z" id="Shape" fill-rule="nonzero"></path>
                                    <path d="M10.9245445,0.798367918 C10.71488,0.209518866 10.030466,-0.110122641 9.39589087,0.0844245271 L4.6348843,1.54392452 L11.1899955,1.54392452 L10.9245445,0.798367918 Z" id="Path"></path>
                                </g>
                            </g>
                        </g>
                    </g>
                </g>
            </g>
        </g>
    </g>
</svg>