<?xml version="1.0" encoding="UTF-8"?>
<svg width="18px" height="18px" viewBox="0 0 18 18" version="1.1" xmlns="http://www.w3.org/2000/svg" xmlns:xlink="http://www.w3.org/1999/xlink">
    <!-- Generator: Sketch 52.5 (67469) - http://www.bohemiancoding.com/sketch -->
    <title>XBOX - BG - Small</title>
    <desc>Created with Sketch.</desc>
    <defs>
        <linearGradient x1="50%" y1="0%" x2="50%" y2="100%" id="linearGradient-1">
            <stop stop-color="#19D000" offset="0%"></stop>
            <stop stop-color="#0093A3" offset="100%"></stop>
        </linearGradient>
    </defs>
    <g stroke="none" stroke-width="1" fill="none" fill-rule="evenodd">
        <g transform="translate(-127.000000, -195.000000)">
            <g transform="translate(127.000000, 195.000000)">
                <circle fill="url(#linearGradient-1)" fill-rule="nonzero" cx="9" cy="9" r="9"></circle>
                <g transform="translate(4.000000, 4.000000)" fill="#FFFFFF">
                    <g>
                        <path d="M1.44030203,1.43492245 L1.43643025,1.43893061 C0.516882582,2.37684082 1.12435885e-13,3.6554449 0.00193588982,4.99016327 C1.12435885e-13,6.08238776 0.346524278,7.14455102 0.987303808,8.01231837 C0.993111477,8.02033469 1.00472682,8.02634694 1.01247038,8.02033469 C1.02021393,8.01432245 1.02214982,8.00430204 1.01827804,7.99428163 C0.650458979,6.81788571 2.5282721,3.96607755 3.50008879,2.7716449 C3.50396057,2.76763673 3.50783235,2.76362857 3.50783235,2.75761633 C3.50783235,2.75160408 3.50396057,2.74559184 3.4981529,2.74158367 C1.8642619,1.06015918 1.42868669,1.44494286 1.43449436,1.43893061 L1.44030203,1.43492245 Z" fill-rule="nonzero"></path>
                        <path d="M8.20430105,1.43492245 L8.20817283,1.43893061 C9.1277205,2.37483673 9.64266719,3.6554449 9.6407313,4.99016327 C9.64266719,6.08238776 9.29614291,7.14455102 8.65536338,8.01231837 C8.64955571,8.02033469 8.63794037,8.02634694 8.63019681,8.02033469 C8.62245325,8.01432245 8.62245325,8.00430204 8.62438914,7.99428163 C8.99220821,6.81788571 7.11439509,3.96407347 6.14451429,2.76964082 C6.14064251,2.76563265 6.13677073,2.76162449 6.13677073,2.75561224 C6.13677073,2.74759592 6.14064251,2.74358776 6.14645018,2.73957959 C7.78034118,1.0581551 8.2139805,1.44494286 8.20817283,1.43893061 L8.20430105,1.43492245 Z" fill-rule="nonzero"></path>
                        <path d="M4.82230154,-2.46025422e-13 C5.79411823,-2.46025422e-13 6.59557661,0.276563265 7.33315063,0.729485714 C7.34283008,0.733493878 7.34476597,0.745518367 7.34089419,0.753534694 C7.33702241,0.76155102 7.32734297,0.763555102 7.31766352,0.76155102 C6.38456462,0.553126531 4.96555739,1.38682449 4.83198099,1.47099592 C4.82810921,1.473 4.82617332,1.47500408 4.82230154,1.47500408 C4.81842976,1.47500408 4.81455798,1.473 4.81262209,1.47099592 C4.45641836,1.25856327 3.14582096,0.547114286 2.319196,0.767563265 C2.30951655,0.769567347 2.29983711,0.767563265 2.29596533,0.759546939 C2.29209355,0.749526531 2.29596533,0.739506122 2.30370888,0.735497959 C3.04128291,0.276563265 3.85242074,-2.46025422e-13 4.82230154,-2.46025422e-13 Z" fill-rule="nonzero"></path>
                        <path d="M4.82230154,4.00215102 C4.82810921,4.00215102 4.83391688,4.00615918 4.83778866,4.01016735 C6.28002657,5.14648163 8.74828609,7.95219592 7.99522495,8.74581224 L7.99716084,8.74380816 L7.99716084,8.74581224 L7.99522495,8.74581224 C7.11633097,9.54343673 5.98770721,9.98233061 4.82036565,9.98032653 C3.65302409,9.98233061 2.52440032,9.54343673 1.64744224,8.74581224 L1.64550635,8.74380816 L1.64744224,8.74581224 C0.894381096,7.95219592 3.36264062,5.14447755 4.80487853,4.01016735 C4.80875031,4.00615918 4.81649387,4.00215102 4.82230154,4.00215102 Z" fill-rule="nonzero"></path>
                    </g>
                </g>
            </g>
        </g>
    </g>
</svg>