<?xml version="1.0" encoding="UTF-8"?>
<svg width="28px" height="27px" viewBox="0 0 28 27" version="1.1" xmlns="http://www.w3.org/2000/svg" xmlns:xlink="http://www.w3.org/1999/xlink">
    <!-- Generator: Sketch 52.5 (67469) - http://www.bohemiancoding.com/sketch -->
    <title>Xbox Logo Only</title>
    <desc>Created with Sketch.</desc>
    <g stroke="none" stroke-width="1" fill="none" fill-rule="evenodd">
        <g transform="translate(-263.000000, -51.000000)" fill="#FFFFFF">
            <g transform="translate(263.000000, 51.000000)">
                <g>
                    <path d="M4.17687587,3.87429061 L4.16564771,3.88511265 C1.49895949,6.4174702 3.26062961e-13,9.86970122 0.00561408048,13.4734408 C3.26062961e-13,16.4224469 1.00492041,19.2902878 2.86318104,21.6332596 C2.88002328,21.6549037 2.91370777,21.6711367 2.93616409,21.6549037 C2.95862041,21.6386706 2.96423449,21.6116155 2.95300633,21.5845604 C1.88633104,18.4082914 7.3319891,10.7084094 10.1502575,7.48344122 C10.1614857,7.47261918 10.1727138,7.46179714 10.1727138,7.44556408 C10.1727138,7.42933102 10.1614857,7.41309796 10.1446434,7.40227592 C5.4063595,2.8624298 4.14319139,3.90134571 4.16003363,3.88511265 L4.17687587,3.87429061 Z" fill-rule="nonzero"></path>
                    <path d="M23.7924731,3.87429061 L23.8037012,3.88511265 C26.4703894,6.41205918 27.9637348,9.86970122 27.9581208,13.4734408 C27.9637348,16.4224469 26.9588144,19.2902878 25.1005538,21.6332596 C25.0837116,21.6549037 25.0500271,21.6711367 25.0275708,21.6549037 C25.0051144,21.6386706 25.0051144,21.6116155 25.0107285,21.5845604 C26.0774038,18.4082914 20.6317457,10.7029984 17.8190914,7.4780302 C17.8078633,7.46720816 17.7966351,7.45638612 17.7966351,7.44015306 C17.7966351,7.41850898 17.8078633,7.40768694 17.8247055,7.3968649 C22.5629894,2.85701878 23.8205435,3.90134571 23.8037012,3.88511265 L23.7924731,3.87429061 Z" fill-rule="nonzero"></path>
                    <path d="M13.9846745,-2.46025422e-13 C16.8029429,-2.46025422e-13 19.1271722,0.746720816 21.2661368,1.96961143 C21.2942072,1.98043347 21.2998213,2.01289959 21.2885932,2.03454367 C21.277365,2.05618776 21.2492946,2.06159878 21.2212242,2.05618776 C18.5152374,1.49344163 14.4001164,3.74442612 14.0127449,3.97168898 C14.0015167,3.9771 13.9959026,3.98251102 13.9846745,3.98251102 C13.9734463,3.98251102 13.9622181,3.9771 13.9566041,3.97168898 C12.9236133,3.39812082 9.12288077,1.47720857 6.72566841,2.07242082 C6.69759801,2.07783184 6.6695276,2.07242082 6.65829944,2.05077673 C6.64707128,2.02372163 6.65829944,1.99666653 6.68075577,1.98584449 C8.81972043,0.746720816 11.1720201,-2.46025422e-13 13.9846745,-2.46025422e-13 Z" fill-rule="nonzero"></path>
                    <path d="M13.9846745,10.8058078 C14.0015167,10.8058078 14.0183589,10.8166298 14.0295871,10.8274518 C18.2120771,13.8955004 25.3700297,21.470929 23.1861524,23.6136931 L23.1917664,23.608282 L23.1917664,23.6136931 L23.1861524,23.6136931 C20.6373598,25.7672792 17.3643509,26.9522927 13.9790604,26.9468816 C10.5937699,26.9522927 7.32076094,25.7672792 4.77758248,23.6136931 L4.7719684,23.608282 L4.77758248,23.6136931 C2.59370518,21.470929 9.75165779,13.8900894 13.9341477,10.8274518 C13.9453759,10.8166298 13.9678322,10.8058078 13.9846745,10.8058078 Z" fill-rule="nonzero"></path>
                </g>
            </g>
        </g>
    </g>
</svg>